<?xml version="1.0" encoding="UTF-8"?>
<svg version="1.1" xmlns="http://www.w3.org/2000/svg" width="512" height="512">
<path d="M0 0 C1.09787842 -0.0038269 2.19575684 -0.00765381 3.3269043 -0.01159668 C5.65365514 -0.01431928 7.9804364 -0.00693389 10.30712891 0.00976562 C13.83437293 0.03100536 17.35954161 0.01005953 20.88671875 -0.015625 C23.15365027 -0.01297859 25.42058052 -0.00784716 27.6875 0 C28.7285791 -0.00809692 29.7696582 -0.01619385 30.84228516 -0.02453613 C42.77124362 0.12479053 52.02306285 3.59776071 60.875 11.53125 C61.60589844 12.16675781 62.33679688 12.80226563 63.08984375 13.45703125 C69.12140003 18.78607681 74.9544197 24.33662912 80.81689453 29.85009766 C86.07709438 34.79521066 91.38186491 39.68825458 96.71484375 44.5546875 C98.875 46.53125 98.875 46.53125 99.875 47.53125 C102.92355662 47.63504708 105.94974214 47.67282153 108.99891663 47.66928101 C110.45334353 47.67351293 110.45334353 47.67351293 111.9371528 47.67783034 C115.21339949 47.68621848 118.48961257 47.68751823 121.76586914 47.68896484 C124.10455929 47.69363032 126.44324852 47.69877344 128.78193665 47.70436096 C133.83419269 47.71566819 138.88644274 47.72408999 143.93870735 47.73048019 C151.93697824 47.74114412 159.93521144 47.76137132 167.93345642 47.78359985 C170.67079625 47.79108079 173.40813627 47.7984945 176.14547634 47.80588722 C177.17187091 47.80866307 177.17187091 47.80866307 178.21900072 47.811495 C186.01619497 47.8324408 193.81339387 47.85125558 201.6105957 47.86914062 C202.68007332 47.8715979 202.68007332 47.8715979 203.77115654 47.87410481 C215.29009384 47.90031243 226.80903432 47.91899608 238.32798869 47.93573253 C250.16614484 47.95320956 262.00423879 47.98212112 273.84234518 48.0206219 C280.48386098 48.04183839 287.12530966 48.05714161 293.76686287 48.05942917 C300.02706321 48.06158758 306.28707978 48.07757816 312.54722404 48.10381889 C314.83516296 48.11097017 317.12312424 48.11313332 319.41107178 48.10971642 C335.42723827 48.08963311 350.45979021 48.88051518 365.5625 54.78125 C366.35793213 55.08498535 367.15336426 55.3887207 367.97290039 55.70166016 C379.80992992 60.33702323 389.92924863 66.59248882 399.875 74.53125 C400.56207031 75.07523437 401.24914062 75.61921875 401.95703125 76.1796875 C403.29232393 77.2616811 404.59047392 78.38944904 405.875 79.53125 C405.875 79.86125 405.875 80.19125 405.875 80.53125 C405.32233963 80.53933685 404.76967926 80.54742371 404.20027161 80.55575562 C398.44114414 80.64190313 392.68235684 80.7414111 386.92358398 80.84863281 C384.77520466 80.88688385 382.62676213 80.92174347 380.47827148 80.953125 C377.38762854 80.99885937 374.29741919 81.05684056 371.20703125 81.1171875 C370.24851761 81.12873871 369.29000397 81.14028992 368.30244446 81.15219116 C361.84443924 81.24506948 361.84443924 81.24506948 355.875 83.53125 C354.47564987 86.32995027 354.62234595 88.43623792 354.875 91.53125 C356.72842775 94.09074546 357.81256393 94.51043798 360.875 95.53125 C362.77071207 95.58836447 364.66850675 95.58419313 366.56469727 95.54614258 C367.73343887 95.5273555 368.90218048 95.50856842 370.1063385 95.48921204 C372.00469704 95.4578138 372.00469704 95.4578138 373.94140625 95.42578125 C377.31841361 95.40589172 380.6953138 95.39227855 384.07235813 95.38278675 C387.59963973 95.36938953 391.12421389 95.33479284 394.65063477 95.25366211 C419.36827522 94.71199292 419.36827522 94.71199292 424.93701172 99.10693359 C427.62774078 101.91289589 429.34539908 104.95231952 430.875 108.53125 C431.26453857 109.41748047 431.65407715 110.30371094 432.05541992 111.21679688 C434.26535481 117.4575424 434.04078428 125.97750333 431.3125 132.03125 C427.58317999 138.16361777 421.80068337 142.61972546 414.875 144.53125 C410.26431401 144.96207002 405.67284343 144.91014329 401.04516602 144.87182617 C399.6451367 144.87097901 398.24510606 144.87145679 396.84507751 144.87315369 C393.06037079 144.87401158 389.27595147 144.85641947 385.49131131 144.83543181 C381.53018748 144.81663049 377.56905647 144.81491186 373.6078949 144.81135559 C366.11404605 144.80204525 358.62032909 144.77744522 351.12653822 144.74730712 C342.59209499 144.71373157 334.05764534 144.69726919 325.52315247 144.68222082 C307.97369213 144.65089471 290.42436003 144.59815397 272.875 144.53125 C275.67712391 141.66843043 278.39215185 139.37133049 281.75390625 137.18359375 C282.67494141 136.57837891 283.59597656 135.97316406 284.54492188 135.34960938 C285.49947266 134.72892578 286.45402344 134.10824219 287.4375 133.46875 C289.33675218 132.23110685 291.23397745 130.99034623 293.12890625 129.74609375 C293.96752197 129.20073975 294.8061377 128.65538574 295.67016602 128.09350586 C297.66341689 126.6811692 299.32181217 125.41331183 300.875 123.53125 C301.2776126 120.31034921 301.5024149 118.3976801 299.5625 115.71875 C296.67885496 113.68951831 294.11660269 113.40457449 290.70248413 113.39080811 C289.42844223 113.38224289 289.42844223 113.38224289 288.12866211 113.37350464 C287.19981201 113.37238678 286.27096191 113.37126892 285.31396484 113.37011719 C283.84269638 113.36266983 283.84269638 113.36266983 282.34170532 113.35507202 C279.08977561 113.34044256 275.83789474 113.33364587 272.5859375 113.328125 C270.32492064 113.3223727 268.0639038 113.31661497 265.80288696 113.31085205 C261.05657728 113.3003388 256.31028454 113.29449875 251.56396484 113.29101562 C245.49460844 113.28554061 239.42547748 113.26153504 233.35619164 113.23304367 C228.68233599 113.21437661 224.00853409 113.20920944 219.33464432 113.20767975 C217.09803667 113.20466017 214.86142982 113.19665519 212.62485886 113.18349457 C209.48720168 113.16635487 206.35008791 113.16833418 203.21240234 113.17480469 C202.29569763 113.1655899 201.37899292 113.15637512 200.43450928 113.1468811 C193.78240676 113.18964622 187.09545046 113.99546512 181.72412109 118.22485352 C181.24539551 118.84287842 180.76666992 119.46090332 180.2734375 120.09765625 C179.71495117 120.80164551 179.15646484 121.50563477 178.58105469 122.23095703 C178.01805664 122.99005371 177.45505859 123.74915039 176.875 124.53125 C176.26817383 125.32772949 175.66134766 126.12420898 175.03613281 126.94482422 C173.1636879 129.43409175 171.32719934 131.94612405 169.5 134.46875 C168.26367479 136.16584118 167.02673007 137.86248128 165.7890625 139.55859375 C165.2523291 140.29843506 164.7155957 141.03827637 164.16259766 141.80053711 C162.875 143.53125 162.875 143.53125 161.875 144.53125 C159.78221259 144.64660237 157.68549232 144.69095831 155.58959961 144.70825195 C154.93240433 144.71482315 154.27520905 144.72139435 153.59809875 144.72816467 C151.40784592 144.74797559 149.21766262 144.75959029 147.02734375 144.76953125 C145.90025592 144.77564454 145.90025592 144.77564454 144.75039864 144.78188133 C140.75734861 144.8027958 136.76433328 144.81706234 132.77124023 144.82641602 C128.68653741 144.83736642 124.60239679 144.87161501 120.51788998 144.91158772 C117.34753068 144.93804799 114.17729778 144.94613451 111.00683784 144.94969749 C109.50446427 144.95450468 108.00209401 144.96594595 106.49983025 144.98473549 C92.9361509 145.14354684 79.62569507 143.30052997 67.5 136.78125 C66.51205444 136.26800171 66.51205444 136.26800171 65.50415039 135.74438477 C59.73820628 132.65192828 54.71033909 128.9425948 49.875 124.53125 C49.2665625 124.01433594 48.658125 123.49742187 48.03125 122.96484375 C35.99194945 112.04738711 29.26565838 95.18611934 21.78630066 81.03010559 C18.49570122 74.80379782 15.15702089 68.60374212 11.8125 62.40625 C10.66524753 60.27740682 9.5181123 58.14850047 8.37109375 56.01953125 C7.80116699 54.9620166 7.23124023 53.90450195 6.64404297 52.81494141 C4.79412801 49.3811357 2.94568367 45.94654047 1.09765625 42.51171875 C0.16288452 40.77462646 0.16288452 40.77462646 -0.79077148 39.00244141 C-1.97148866 36.80822162 -3.15200594 34.61389425 -4.33227539 32.41943359 C-4.87231201 31.41605957 -5.41234863 30.41268555 -5.96875 29.37890625 C-6.48904785 28.40912842 -7.0093457 27.43935059 -7.54541016 26.44018555 C-8.62717912 24.44802525 -9.72675801 22.4654621 -10.84130859 20.49145508 C-11.38609863 19.52232178 -11.93088867 18.55318848 -12.4921875 17.5546875 C-12.98315918 16.69407715 -13.47413086 15.8334668 -13.97998047 14.94677734 C-15.79781311 11.1118869 -15.85779071 8.70815704 -15.125 4.53125 C-11.67260459 -1.09394659 -5.88754533 -0.04508865 0 0 Z M163.5 72.15625 C161.29592107 76.73395239 161.0778361 80.53677411 161.875 85.53125 C164.20468931 90.36983548 167.03641452 93.20156069 171.875 95.53125 C176.86947589 96.3284139 180.67229761 96.11032893 185.25 93.90625 C188.83407713 90.66351355 191.47035241 88.06649104 192.2578125 83.1328125 C192.51383919 77.44902006 191.81126932 73.88186345 187.875 69.53125 C183.52438655 65.59498068 179.95722994 64.89241081 174.2734375 65.1484375 C169.33975896 65.93589759 166.74273645 68.57217287 163.5 72.15625 Z M227.5 72.15625 C225.29592107 76.73395239 225.0778361 80.53677411 225.875 85.53125 C228.20468931 90.36983548 231.03641452 93.20156069 235.875 95.53125 C240.86947589 96.3284139 244.67229761 96.11032893 249.25 93.90625 C252.83407713 90.66351355 255.47035241 88.06649104 256.2578125 83.1328125 C256.51383919 77.44902006 255.81126932 73.88186345 251.875 69.53125 C247.52438655 65.59498068 243.95722994 64.89241081 238.2734375 65.1484375 C233.33975896 65.93589759 230.74273645 68.57217287 227.5 72.15625 Z M291.5 72.15625 C289.29592107 76.73395239 289.0778361 80.53677411 289.875 85.53125 C292.20468931 90.36983548 295.03641452 93.20156069 299.875 95.53125 C304.86947589 96.3284139 308.67229761 96.11032893 313.25 93.90625 C316.83407713 90.66351355 319.47035241 88.06649104 320.2578125 83.1328125 C320.51383919 77.44902006 319.81126932 73.88186345 315.875 69.53125 C311.52438655 65.59498068 307.95722994 64.89241081 302.2734375 65.1484375 C297.33975896 65.93589759 294.74273645 68.57217287 291.5 72.15625 Z " fill="#000000" transform="translate(47.125,31.46875)"/>
<path d="M0 0 C1.38384415 -0.00514555 2.76768173 -0.01243162 4.15150452 -0.02168274 C7.88903288 -0.04011771 11.62584332 -0.0273119 15.36334133 -0.00759244 C19.28123685 0.00884815 23.19908885 -0.00002572 27.11700439 -0.00511169 C33.69058652 -0.0096245 40.26388332 0.00619177 46.83740234 0.03417969 C54.43571445 0.06628147 62.03351362 0.06619273 69.6318624 0.04896492 C76.9500571 0.03310442 84.26806384 0.03982679 91.58625031 0.05690193 C94.69784808 0.06377159 97.80929516 0.06274111 100.92089081 0.05535698 C104.58189758 0.04769779 108.24231979 0.0598072 111.90322685 0.08720589 C113.88714651 0.09737804 115.87113635 0.08790546 117.85505676 0.07788086 C119.03538986 0.09060532 120.21572296 0.10332977 121.43182373 0.11643982 C122.97038088 0.1206502 122.97038088 0.1206502 124.54001999 0.12494564 C127.94950641 0.77083143 129.12602306 1.89962278 131.21191406 4.63110352 C131.96325869 8.72934692 132.19254682 11.04266644 129.98925781 14.61157227 C126.2053592 19.09321105 121.75299544 22.87745752 117.35644531 26.74047852 C112.29990038 31.2976325 107.58058665 36.22155105 102.80834961 41.07202148 C99.38299234 44.53601765 95.94829735 47.91790862 92.25097656 51.09204102 C87.48583601 55.18838991 83.11736857 59.65493546 78.71191406 64.13110352 C73.70270937 69.22071278 68.67168625 74.16114952 63.25292969 78.81274414 C59.22694512 82.39953039 55.49269908 86.28963174 51.71191406 90.13110352 C48.5698353 93.32361693 45.40950896 96.49415266 42.21191406 99.63110352 C41.56738281 100.27176758 40.92285156 100.91243164 40.25878906 101.57250977 C26.72318549 114.29709577 13.19976351 113.49611462 -4.47949219 113.4074707 C-7.20070356 113.4123101 -9.92185423 113.42607979 -12.64303589 113.43933105 C-19.246961 113.46591049 -25.8504753 113.46029343 -32.45441604 113.44285521 C-37.82496094 113.42926502 -43.19539129 113.42748434 -48.56594849 113.43399811 C-49.33240836 113.43491751 -50.09886823 113.4358369 -50.88855416 113.43678416 C-52.445953 113.43870265 -54.00335182 113.44064794 -55.5607506 113.44261971 C-70.13987442 113.45969956 -84.7187713 113.44010343 -99.29785788 113.40781751 C-111.7878782 113.38101351 -124.27756384 113.38567049 -136.76757812 113.41333008 C-151.29707688 113.44549144 -165.8263771 113.45805188 -180.35590649 113.4396565 C-181.90734542 113.43774535 -183.45878439 113.43585912 -185.01022339 113.43399811 C-186.15501477 113.43260963 -186.15501477 113.43260963 -187.32293326 113.4311931 C-192.68255156 113.42602817 -198.04204317 113.43472299 -203.40164185 113.44887543 C-209.93973141 113.46576146 -216.47738918 113.46102909 -223.01542974 113.42919096 C-226.3469461 113.4134984 -229.67715407 113.41038121 -233.00875473 113.42708588 C-259.42638127 113.54730073 -259.42638127 113.54730073 -270.72558594 104.20141602 C-271.40621094 103.39446289 -272.08683594 102.58750977 -272.78808594 101.75610352 C-273.99851562 100.32911133 -273.99851562 100.32911133 -275.23339844 98.87329102 C-279.18169234 93.9263654 -282.95356123 88.84536625 -286.70996094 83.75219727 C-289.68378567 79.73828962 -292.77581977 75.83048195 -295.91308594 71.94360352 C-300.57141706 66.16524064 -305.17151761 60.35009927 -309.65136719 54.43188477 C-310.91069929 52.78116974 -312.19144122 51.14580246 -313.51855469 49.54907227 C-315.91424756 46.5762657 -317.12249146 44.21753039 -317.35058594 40.44360352 C-316.78808594 36.63110352 -316.78808594 36.63110352 -315.36860847 34.42063236 C-311.39379097 31.66419429 -307.6645839 32.11009162 -302.93722534 32.18614197 C-301.92561974 32.18640194 -300.91401413 32.18666191 -299.87175381 32.18692976 C-296.47096205 32.19240184 -293.0710332 32.22631076 -289.67041016 32.25976562 C-287.236009 32.2690371 -284.80159991 32.27639651 -282.3671875 32.28198242 C-277.1168156 32.29715973 -271.86662793 32.32377022 -266.61635971 32.35920525 C-258.30227565 32.41423685 -249.9883458 32.42894601 -241.67410278 32.43739319 C-238.82637566 32.44079523 -235.97864895 32.44448232 -233.13092232 32.44827366 C-232.06326592 32.44968413 -232.06326592 32.44968413 -230.97404071 32.4511231 C-222.87053284 32.46243612 -214.76705453 32.4826364 -206.66357422 32.50634766 C-205.92290412 32.50850446 -205.18223402 32.51066127 -204.41911937 32.51288343 C-192.44892374 32.54869159 -180.4789811 32.61172885 -168.50894223 32.68143683 C-156.19832108 32.75208235 -143.88805694 32.78001093 -131.57723629 32.77242857 C-123.99721545 32.76934856 -116.41894609 32.80068383 -108.83930816 32.87767524 C-103.00963363 32.93361279 -97.18105675 32.93131559 -91.35121155 32.90851593 C-88.97533218 32.90831142 -86.59935982 32.92666828 -84.22380447 32.96590614 C-69.00726585 33.20415335 -58.88202045 31.24031233 -46.59974694 21.97935688 C-43.91797348 19.9835585 -41.10884145 18.23190954 -38.28027344 16.45141602 C-36.40605493 15.22242027 -34.53359139 13.99074309 -32.66308594 12.75610352 C-30.76512261 11.50798633 -28.86669427 10.26057595 -26.96777344 9.01391602 C-26.16065918 8.48169434 -25.35354492 7.94947266 -24.52197266 7.40112305 C-23.61979004 6.8170166 -22.71760742 6.23291016 -21.78808594 5.63110352 C-21.28244551 5.22044616 -20.77680508 4.8097888 -20.25584221 4.38668728 C-13.89467172 -0.3631202 -7.69999443 -0.07014908 0 0 Z M-250.78808594 51.63110352 C-252.20850414 54.47193993 -252.10260866 56.48587629 -251.78808594 59.63110352 C-249.55602163 62.4789097 -248.23815595 63.48108018 -244.78808594 64.63110352 C-242.16944433 64.77959791 -239.59483824 64.86210622 -236.97558594 64.88110352 C-235.92661133 64.91204102 -235.92661133 64.91204102 -234.85644531 64.94360352 C-230.0744366 64.9793903 -226.83272595 64.18300502 -222.78808594 61.63110352 C-221.36766773 58.7902671 -221.47356322 56.77633074 -221.78808594 53.63110352 C-224.02015025 50.78329733 -225.33801592 49.78112685 -228.78808594 48.63110352 C-231.40672754 48.48260912 -233.98133363 48.40010081 -236.60058594 48.38110352 C-237.64956055 48.35016602 -237.64956055 48.35016602 -238.71972656 48.31860352 C-243.50173527 48.28281673 -246.74344593 49.07920201 -250.78808594 51.63110352 Z M-186.78808594 51.63110352 C-188.20850414 54.47193993 -188.10260866 56.48587629 -187.78808594 59.63110352 C-185.55602163 62.4789097 -184.23815595 63.48108018 -180.78808594 64.63110352 C-178.16944433 64.77959791 -175.59483824 64.86210622 -172.97558594 64.88110352 C-171.92661133 64.91204102 -171.92661133 64.91204102 -170.85644531 64.94360352 C-166.0744366 64.9793903 -162.83272595 64.18300502 -158.78808594 61.63110352 C-157.36766773 58.7902671 -157.47356322 56.77633074 -157.78808594 53.63110352 C-160.02015025 50.78329733 -161.33801592 49.78112685 -164.78808594 48.63110352 C-167.40672754 48.48260912 -169.98133363 48.40010081 -172.60058594 48.38110352 C-173.64956055 48.35016602 -173.64956055 48.35016602 -174.71972656 48.31860352 C-179.50173527 48.28281673 -182.74344593 49.07920201 -186.78808594 51.63110352 Z M-122.78808594 51.63110352 C-124.20850414 54.47193993 -124.10260866 56.48587629 -123.78808594 59.63110352 C-121.55602163 62.4789097 -120.23815595 63.48108018 -116.78808594 64.63110352 C-114.16944433 64.77959791 -111.59483824 64.86210622 -108.97558594 64.88110352 C-107.92661133 64.91204102 -107.92661133 64.91204102 -106.85644531 64.94360352 C-102.0744366 64.9793903 -98.83272595 64.18300502 -94.78808594 61.63110352 C-93.36766773 58.7902671 -93.47356322 56.77633074 -93.78808594 53.63110352 C-96.02015025 50.78329733 -97.33801592 49.78112685 -100.78808594 48.63110352 C-103.40672754 48.48260912 -105.98133363 48.40010081 -108.60058594 48.38110352 C-109.64956055 48.35016602 -109.64956055 48.35016602 -110.71972656 48.31860352 C-115.50173527 48.28281673 -118.74344593 49.07920201 -122.78808594 51.63110352 Z M-58.78808594 51.63110352 C-60.20850414 54.47193993 -60.10260866 56.48587629 -59.78808594 59.63110352 C-57.55602163 62.4789097 -56.23815595 63.48108018 -52.78808594 64.63110352 C-50.16944433 64.77959791 -47.59483824 64.86210622 -44.97558594 64.88110352 C-43.92661133 64.91204102 -43.92661133 64.91204102 -42.85644531 64.94360352 C-38.0744366 64.9793903 -34.83272595 64.18300502 -30.78808594 61.63110352 C-29.36766773 58.7902671 -29.47356322 56.77633074 -29.78808594 53.63110352 C-32.02015025 50.78329733 -33.33801592 49.78112685 -36.78808594 48.63110352 C-39.40672754 48.48260912 -41.98133363 48.40010081 -44.60058594 48.38110352 C-45.64956055 48.35016602 -45.64956055 48.35016602 -46.71972656 48.31860352 C-51.50173527 48.28281673 -54.74344593 49.07920201 -58.78808594 51.63110352 Z M5.21191406 51.63110352 C3.79149586 54.47193993 3.89739134 56.48587629 4.21191406 59.63110352 C6.44397837 62.4789097 7.76184405 63.48108018 11.21191406 64.63110352 C13.83055567 64.77959791 16.40516176 64.86210622 19.02441406 64.88110352 C20.07338867 64.91204102 20.07338867 64.91204102 21.14355469 64.94360352 C25.9255634 64.9793903 29.16727405 64.18300502 33.21191406 61.63110352 C34.63233227 58.7902671 34.52643678 56.77633074 34.21191406 53.63110352 C31.97984975 50.78329733 30.66198408 49.78112685 27.21191406 48.63110352 C24.59327246 48.48260912 22.01866637 48.40010081 19.39941406 48.38110352 C18.35043945 48.35016602 18.35043945 48.35016602 17.28027344 48.31860352 C12.49826473 48.28281673 9.25655407 49.07920201 5.21191406 51.63110352 Z " fill="#000000" transform="translate(348.7880859375,367.368896484375)"/>
<path d="M0 0 C1.79735651 0.02991088 3.59484514 0.05265381 5.39237976 0.06860352 C10.08299579 0.12918071 14.76545145 0.28580262 19.45288086 0.46386719 C24.25196916 0.62871981 29.05240128 0.70086155 33.85351562 0.78125 C43.24313448 0.95191937 52.6267437 1.22428716 62.01171875 1.5625 C56.56473212 7.06368013 56.56473212 7.06368013 53.4375 9.21875 C52.77943359 9.67701172 52.12136719 10.13527344 51.44335938 10.60742188 C50.39438477 11.32768555 50.39438477 11.32768555 49.32421875 12.0625 C47.79881853 13.12405133 46.27410112 14.18658436 44.75 15.25 C43.96705566 15.79527344 43.18411133 16.34054688 42.37744141 16.90234375 C38.55935979 19.58169927 34.78618798 22.32221642 31.01171875 25.0625 C24.51161034 29.77355563 17.97307036 34.42548282 11.40625 39.04296875 C6.24604855 42.67704777 1.12257483 46.35941146 -3.98828125 50.0625 C-11.90866412 55.79747867 -19.86730309 61.47443876 -27.87841797 67.08203125 C-30.05659373 68.61043415 -32.22737969 70.14900796 -34.3984375 71.6875 C-35.82385807 72.68801406 -37.24962675 73.68803238 -38.67578125 74.6875 C-39.32305176 75.14914551 -39.97032227 75.61079102 -40.63720703 76.08642578 C-41.55928955 76.72813721 -41.55928955 76.72813721 -42.5 77.3828125 C-43.29603638 77.94379639 -43.29603638 77.94379639 -44.1081543 78.51611328 C-49.05121746 81.26718051 -53.54347978 81.80561796 -59.13671875 81.7578125 C-59.79411041 81.7549826 -60.45150208 81.75215271 -61.1288147 81.74923706 C-63.20716358 81.73813447 -65.28506491 81.71304986 -67.36328125 81.6875 C-68.78124373 81.67745731 -70.19921304 81.66833373 -71.6171875 81.66015625 C-75.07436162 81.63822805 -78.53127767 81.60376818 -81.98828125 81.5625 C-80.69719744 78.79594582 -79.28180085 76.51287933 -77.3359375 74.1640625 C-76.81257812 73.52726562 -76.28921875 72.89046875 -75.75 72.234375 C-75.18925781 71.55890625 -74.62851563 70.8834375 -74.05078125 70.1875 C-72.86363633 68.74296525 -71.67745383 67.29763907 -70.4921875 65.8515625 C-69.89937988 65.1287207 -69.30657227 64.40587891 -68.69580078 63.66113281 C-66.25328581 60.6591513 -63.86705898 57.61506619 -61.48828125 54.5625 C-57.00689271 48.82192578 -52.42870365 43.1655528 -47.82421875 37.5234375 C-44.81719075 33.83234625 -41.83333722 30.12647343 -38.90636921 26.37147522 C-38.01823984 25.23853843 -37.12420869 24.11017617 -36.22158337 22.98875427 C-33.74049166 19.89174695 -31.43692866 16.76261762 -29.27497864 13.43383789 C-20.94719856 1.1656188 -14.39452691 -0.71165498 0 0 Z " fill="#000000" transform="translate(257.98828125,158.4375)"/>
<path d="M0 0 C21.12 0 42.24 0 64 0 C64 15.84 64 31.68 64 48 C42.88 48 21.76 48 0 48 C0 32.16 0 16.32 0 0 Z " fill="#000000" transform="translate(368,304)"/>
<path d="M0 0 C31.68 0 63.36 0 96 0 C96 19.29875687 96 19.29875687 92.34814453 23.7350769 C91.75888184 24.29945465 91.16961914 24.8638324 90.5625 25.4453125 C89.91909668 26.06697296 89.27569336 26.68863342 88.61279297 27.32913208 C78.64579589 35.43117015 64.66879098 34.23606141 52.49414062 33.95556641 C48.74708556 33.86998929 45.01596397 33.9207747 41.26945496 34.00709152 C16.20835273 34.49972295 16.20835273 34.49972295 7.38720703 27.32913208 C6.74380371 26.70747162 6.10040039 26.08581116 5.4375 25.4453125 C4.55360596 24.59874588 4.55360596 24.59874588 3.65185547 23.7350769 C-2.38569491 16.40058464 0 10.18588484 0 0 Z " fill="#000000" transform="translate(352,256)"/>
<path d="M0 0 C15.84 0 31.68 0 48 0 C48 15.84 48 31.68 48 48 C32.16 48 16.32 48 0 48 C0 32.16 0 16.32 0 0 Z " fill="#000000" transform="translate(208,336)"/>
<path d="M0 0 C15.84 0 31.68 0 48 0 C48 15.84 48 31.68 48 48 C32.16 48 16.32 48 0 48 C0 32.16 0 16.32 0 0 Z " fill="#000000" transform="translate(144,336)"/>
<path d="M0 0 C15.84 0 31.68 0 48 0 C48 15.84 48 31.68 48 48 C32.16 48 16.32 48 0 48 C0 32.16 0 16.32 0 0 Z " fill="#000000" transform="translate(80,336)"/>
<path d="M0 0 C15.84 0 31.68 0 48 0 C48 15.84 48 31.68 48 48 C32.16 48 16.32 48 0 48 C0 32.16 0 16.32 0 0 Z " fill="#000000" transform="translate(144,272)"/>
<path d="M0 0 C6.14625 -0.0825 12.2925 -0.165 18.625 -0.25 C20.55424316 -0.28641602 22.48348633 -0.32283203 24.47119141 -0.36035156 C26.01463714 -0.37204314 27.55809529 -0.38223386 29.1015625 -0.390625 C29.89135498 -0.41108887 30.68114746 -0.43155273 31.49487305 -0.45263672 C36.80633567 -0.45596783 39.85507731 0.38324128 44 4 C48.27559958 8.89997567 48.55123444 12.69979822 48.390625 18.8984375 C48.38659668 19.63940674 48.38256836 20.38037598 48.37841797 21.14379883 C48.3576323 23.88778772 48.30178726 26.6314211 48.25 29.375 C48.1675 35.52125 48.085 41.6675 48 48 C32.16 48 16.32 48 0 48 C0 32.16 0 16.32 0 0 Z " fill="#000000" transform="translate(208,272)"/>
<path d="M0 0 C0.74096924 0.00402832 1.48193848 0.00805664 2.24536133 0.01220703 C4.98935022 0.0329927 7.7329836 0.08883774 10.4765625 0.140625 C16.6228125 0.223125 22.7690625 0.305625 29.1015625 0.390625 C29.1015625 16.230625 29.1015625 32.070625 29.1015625 48.390625 C13.2615625 48.390625 -2.5784375 48.390625 -18.8984375 48.390625 C-18.9809375 42.244375 -19.0634375 36.098125 -19.1484375 29.765625 C-19.18485352 27.83638184 -19.22126953 25.90713867 -19.25878906 23.91943359 C-19.27048064 22.37598786 -19.28067136 20.83252971 -19.2890625 19.2890625 C-19.30952637 18.49927002 -19.32999023 17.70947754 -19.35107422 16.89575195 C-19.35440533 11.58428933 -18.51519622 8.53554769 -14.8984375 4.390625 C-9.99846183 0.11502542 -6.19863928 -0.16060944 0 0 Z " fill="#000000" transform="translate(98.8984375,271.609375)"/>
<path d="M0 0 C4.96519463 2.30526893 7.39089701 5.24073974 10 10 C10.51769038 12.98030847 10.46847054 15.88103031 10.390625 18.8984375 C10.38496521 19.73339752 10.37930542 20.56835754 10.37347412 21.42861938 C10.35120223 24.07801266 10.30102523 26.72602016 10.25 29.375 C10.22992302 31.17836579 10.21167435 32.98175292 10.1953125 34.78515625 C10.15477982 39.19105886 10.07647846 43.59399076 10 48 C-0.56 48 -11.12 48 -22 48 C-22.09204469 42.69720317 -22.17161406 37.39719875 -22.21972656 32.09423828 C-22.23979033 30.29205919 -22.26704813 28.48994479 -22.30175781 26.68798828 C-22.35050829 24.09130864 -22.37302082 21.49549271 -22.390625 18.8984375 C-22.41127014 18.0982016 -22.43191528 17.2979657 -22.45318604 16.47348022 C-22.45529705 11.16083853 -21.48340331 8.23577375 -18 4 C-12.72867143 -1.00776214 -6.89190982 -0.92775709 0 0 Z " fill="#000000" transform="translate(406,192)"/>
<path d="M0 0 C4.19501302 -0.15042801 8.38852209 -0.25816494 12.58544922 -0.32958984 C14.00727743 -0.35941841 15.42892738 -0.40009869 16.85009766 -0.45263672 C26.97905149 -0.81719328 34.29657665 0.40916122 43 6 C43.69307251 6.44339722 44.38614502 6.88679443 45.10021973 7.34362793 C50.02352168 10.51315248 54.87997907 13.77419802 59.71337891 17.07885742 C62.28115526 18.83379293 64.85672123 20.57681451 67.43359375 22.31835938 C69.06556359 23.42640698 70.69709119 24.53510628 72.328125 25.64453125 C73.09981018 26.16739212 73.87149536 26.69025299 74.66656494 27.22895813 C76.4626392 28.45973663 78.23430798 29.72601798 80 31 C80 31.33 80 31.66 80 32 C36.89837418 37.44379973 36.89837418 37.44379973 23.17857361 27.12480164 C14.32037317 19.56729752 6.66143234 10.53172251 0 1 C0 0.67 0 0.34 0 0 Z " fill="#000000" transform="translate(208,32)"/>
</svg>
