<?xml version="1.0" encoding="UTF-8"?>
<svg version="1.1" xmlns="http://www.w3.org/2000/svg" width="512" height="512">
<path d="M0 0 C1.2857341 0.31025871 1.2857341 0.31025871 2.59744263 0.62678528 C5.32546693 1.29198367 8.04071158 1.9986717 10.7578125 2.70703125 C12.60868804 3.16618951 14.46024698 3.62260232 16.3125 4.07617188 C20.84447441 5.19229146 25.36545111 6.34572619 29.8828125 7.51953125 C29.89739502 8.48665039 29.91197754 9.45376953 29.92700195 10.45019531 C29.98571102 14.09604822 30.0629266 17.74132937 30.14526367 21.38671875 C30.17817629 22.95368047 30.20630866 24.52075118 30.22924805 26.08789062 C30.41989362 38.77596197 31.62196063 50.25328989 37.5703125 61.70703125 C37.91916504 62.38628662 38.26801758 63.06554199 38.62744141 63.76538086 C45.64370088 76.94882844 56.93719526 85.44160904 70.8828125 90.51953125 C78.96863549 92.88900319 86.39444454 93.74786144 94.8828125 94.51953125 C94.8828125 123.22953125 94.8828125 151.93953125 94.8828125 181.51953125 C37.4628125 181.51953125 -19.9571875 181.51953125 -79.1171875 181.51953125 C-81.36740293 172.51866953 -81.36740293 172.51866953 -81.88919067 169.39785767 C-82.00973816 168.68610886 -82.13028564 167.97436005 -82.25448608 167.24104309 C-82.37820587 166.49070297 -82.50192566 165.74036285 -82.62939453 164.96728516 C-82.76623657 164.15312637 -82.90307861 163.33896759 -83.04406738 162.50013733 C-83.49127191 159.83270328 -83.93350376 157.16447814 -84.375 154.49609375 C-84.68596967 152.62575374 -84.99699559 150.75542309 -85.30807495 148.88510132 C-85.95766604 144.97360623 -86.60439387 141.06164925 -87.24951172 137.14941406 C-88.0734065 132.15635564 -88.90774981 127.16510473 -89.74469185 122.17421913 C-90.39015634 118.31447452 -91.02832008 114.45354811 -91.66451645 110.59226608 C-91.96887443 108.75238951 -92.27584823 106.91294354 -92.5855751 105.07396317 C-94.58814147 93.16250699 -96.22373247 82.34119571 -93.6171875 70.39453125 C-93.47410156 69.72421875 -93.33101563 69.05390625 -93.18359375 68.36328125 C-92.83718967 66.74672887 -92.47856046 65.13280338 -92.1171875 63.51953125 C-90.6321875 63.02453125 -90.6321875 63.02453125 -89.1171875 62.51953125 C-88.7253125 63.03515625 -88.3334375 63.55078125 -87.9296875 64.08203125 C-86.21005091 65.76493108 -86.21005091 65.76493108 -83.87890625 65.44140625 C-80.1623651 64.20080694 -77.85637719 61.89272441 -75.1171875 59.20703125 C-73.95858662 58.10390058 -72.79972535 57.00104334 -71.640625 55.8984375 C-71.0537793 55.33398926 -70.46693359 54.76954102 -69.86230469 54.18798828 C-67.19138147 51.63439437 -64.46569453 49.1417441 -61.7421875 46.64453125 C-56.99436145 42.26858815 -52.27122909 37.86664995 -47.5546875 33.45703125 C-42.09913287 28.35721324 -36.61527172 23.29075413 -31.1015625 18.25390625 C-28.95791947 16.29392206 -26.82421499 14.32364094 -24.6953125 12.34765625 C-24.1192627 11.81350098 -23.54321289 11.2793457 -22.94970703 10.72900391 C-21.85057798 9.70908004 -20.75250976 8.68801113 -19.65576172 7.66552734 C-19.15061035 7.19711426 -18.64545898 6.72870117 -18.125 6.24609375 C-17.46975342 5.63628662 -17.46975342 5.63628662 -16.80126953 5.01416016 C-16.24552246 4.52093262 -15.68977539 4.02770508 -15.1171875 3.51953125 C-14.25319336 2.60776123 -13.38919922 1.69599121 -12.49902344 0.7565918 C-8.38540162 -2.62959959 -4.81553949 -1.30430078 0 0 Z M-45.57595825 114.32467651 C-47.84150397 117.55102571 -47.65231479 120.66381854 -47.578125 124.4609375 C-47.57720856 125.22502426 -47.57629211 125.98911102 -47.5753479 126.77635193 C-47.56931868 128.38766716 -47.55359282 129.99897153 -47.52880859 131.61010742 C-47.49226086 134.0770797 -47.48778963 136.54255065 -47.48828125 139.00976562 C-47.47845096 140.5768359 -47.46679434 142.14389601 -47.453125 143.7109375 C-47.45089935 144.4484877 -47.44867371 145.1860379 -47.44638062 145.94593811 C-47.37730959 149.66800478 -47.23427622 151.34389817 -45.1171875 154.51953125 C-41.55396999 155.70727042 -38.31268633 155.67490657 -34.60400391 155.68066406 C-33.45959587 155.68811142 -33.45959587 155.68811142 -32.29206848 155.69570923 C-29.76761982 155.71031671 -27.24323399 155.71713026 -24.71875 155.72265625 C-22.96381631 155.72840859 -21.20888263 155.73416632 -19.45394897 155.7399292 C-15.77365832 155.75043497 -12.09338948 155.7562805 -8.41308594 155.75976562 C-3.69972111 155.76525136 1.01335499 155.78928279 5.72662926 155.81773758 C9.35204916 155.83637014 12.97739957 155.84156987 16.60286331 155.8431015 C18.34038498 155.84612685 20.07790545 155.85415143 21.8153801 155.86728668 C24.247423 155.88436131 26.67876115 155.88246377 29.11083984 155.87597656 C30.18486809 155.88979874 30.18486809 155.88979874 31.28059387 155.90390015 C35.61996127 155.86768226 38.50923065 155.325757 41.8828125 152.51953125 C42.38793575 149.56656317 42.56164513 147.19222377 42.51171875 144.23828125 C42.51413071 143.42838745 42.51654266 142.61849365 42.51902771 141.78405762 C42.5180487 140.07262269 42.5046419 138.36115632 42.47973633 136.64990234 C42.44543026 134.02852947 42.45907002 131.4105274 42.47851562 128.7890625 C42.4716171 127.12628772 42.46194465 125.46352165 42.44921875 123.80078125 C42.45417862 123.01634644 42.45913849 122.23191162 42.46424866 121.42370605 C42.4317001 117.25421319 42.4317001 117.25421319 40.33860779 113.81419373 C36.94545366 112.02536819 33.80118775 112.09259863 30.05664062 112.11547852 C29.27244247 112.10861526 28.48824432 112.10175201 27.68028259 112.09468079 C25.09135775 112.07639802 22.50303797 112.08025187 19.9140625 112.0859375 C18.11331993 112.08137675 16.31257911 112.0760715 14.51184082 112.0700531 C10.73910446 112.06111938 6.96657976 112.06354849 3.19384766 112.07348633 C-1.64192498 112.08498287 -6.47696816 112.06475558 -11.31264496 112.03556919 C-15.03070722 112.01722864 -18.74859392 112.01749523 -22.46669006 112.02320671 C-24.24968998 112.02336015 -26.03270163 112.01729681 -27.81565857 112.00491524 C-30.30791091 111.99004525 -32.79880592 112.00065139 -35.29101562 112.01782227 C-36.02776016 112.0081543 -36.7645047 111.99848633 -37.52357483 111.98852539 C-40.91908062 112.03753994 -42.80680326 112.29165778 -45.57595825 114.32467651 Z " fill="#474747" transform="translate(371.1171875,293.48046875)"/>
<path d="M0 0 C1.64794154 1.53772033 3.2505695 3.12498669 4.8125 4.75 C8.36282671 8.43353636 12.05519371 11.82991015 15.91870117 15.17480469 C19.27378069 18.11704216 22.507723 21.18465489 25.75 24.25 C31.43571556 29.60370297 37.15747002 34.9111152 42.92578125 40.17578125 C45.89461581 42.89370077 48.83320203 45.64329858 51.76977539 48.39599609 C53.69900197 50.20225261 55.63395382 52.00217627 57.5703125 53.80078125 C59.58722024 55.67440839 61.5792777 57.56244853 63.5546875 59.48046875 C64.23789063 60.12628906 64.92109375 60.77210938 65.625 61.4375 C66.17414063 61.97246094 66.72328125 62.50742187 67.2890625 63.05859375 C69.03518852 64.21821324 69.03518852 64.21821324 71.4609375 63.84765625 C74.13731279 62.95415865 75.86339201 61.82007348 78 60 C78.48009262 62.06228466 78.95903544 64.12483701 79.4375 66.1875 C79.70433594 67.33605469 79.97117188 68.48460937 80.24609375 69.66796875 C80.49488281 70.76753906 80.74367187 71.86710937 81 73 C81.27831665 74.1679586 81.27831665 74.1679586 81.56225586 75.35951233 C83.43061383 86.62951171 79.74593152 99.55347268 77.875 110.72265625 C77.56450154 112.60014195 77.25445091 114.47770176 76.94482422 116.35533142 C76.29927828 120.26309189 75.65014803 124.17023246 74.99804688 128.0769043 C74.16249705 133.08283435 73.33331297 138.08979157 72.50643921 143.09716129 C71.71481335 147.88935598 70.92001258 152.68102246 70.125 157.47265625 C69.89873932 158.8389149 69.89873932 158.8389149 69.66790771 160.23277473 C69.24129988 162.8053005 68.81242813 165.37743795 68.3828125 167.94946289 C68.25706848 168.70947098 68.13132446 169.46947906 68.00177002 170.2525177 C67.44883247 173.54923639 66.81158323 176.7536671 66 180 C8.58 180 -48.84 180 -108 180 C-108 151.29 -108 122.58 -108 93 C-97.605 91.515 -97.605 91.515 -87 90 C-78.0617327 86.82835676 -71.01213596 83.34862202 -64 77 C-62.700625 75.824375 -62.700625 75.824375 -61.375 74.625 C-47.13639992 58.88759992 -43.62682708 42.36750852 -43.3125 21.6875 C-43.27922904 20.15687372 -43.24473088 18.6262736 -43.20898438 17.09570312 C-43.1252226 13.39732825 -43.05789998 9.69888103 -43 6 C-38.39216045 4.87768999 -33.78399833 3.75671743 -29.17553711 2.63696289 C-27.60904225 2.25614231 -26.0426349 1.87496154 -24.47631836 1.4934082 C-22.22012075 0.94386753 -19.96360774 0.39563878 -17.70703125 -0.15234375 C-17.01100296 -0.3221727 -16.31497467 -0.49200165 -15.59785461 -0.66697693 C-13.73373231 -1.1189306 -11.86695718 -1.55990346 -10 -2 C-9.06784668 -2.2266333 -8.13569336 -2.4532666 -7.17529297 -2.68676758 C-3.92762563 -3.15441709 -2.58099212 -1.92865345 0 0 Z M-55 114 C-55.41755513 116.88791445 -55.58468308 119.39065396 -55.56640625 122.28125 C-55.57260483 123.0911438 -55.57880341 123.9010376 -55.58518982 124.73547363 C-55.59228997 126.44684649 -55.58911047 128.1582884 -55.57641602 129.86962891 C-55.56254657 132.49119838 -55.59661572 135.10920085 -55.63476562 137.73046875 C-55.63571679 139.39323004 -55.63385812 141.05599581 -55.62890625 142.71875 C-55.64216446 143.50318481 -55.65542267 144.28761963 -55.66908264 145.0958252 C-55.68265265 147.57040614 -55.68265265 147.57040614 -55 151 C-51.02949339 154.2992511 -47.1975227 154.42531234 -42.24389648 154.37231445 C-41.09664093 154.37779045 -41.09664093 154.37779045 -39.9262085 154.38337708 C-37.4076084 154.39145816 -34.88965656 154.37789437 -32.37109375 154.36328125 C-30.61662293 154.3627624 -28.86215152 154.36328106 -27.10768127 154.36479187 C-23.43506159 154.36470226 -19.76266192 154.35429469 -16.09008789 154.33618164 C-11.38344071 154.31347815 -6.67711441 154.31295461 -1.97042751 154.31969929 C1.65067902 154.32304092 5.27171244 154.31640579 8.8928051 154.30657005 C10.62834223 154.30272237 12.3638875 154.30156805 14.09942818 154.3031559 C16.5242068 154.30352687 18.94857419 154.29089829 21.37329102 154.2746582 C22.08976303 154.27713562 22.80623505 154.27961304 23.54441833 154.28216553 C27.16554903 154.24346965 29.97959788 154.11000062 33 152 C34.53959877 148.92080245 34.20465118 145.67036352 34.23828125 142.2890625 C34.25038887 141.14224503 34.25038887 141.14224503 34.26274109 139.97225952 C34.27657813 138.35327419 34.28730199 136.73425974 34.29516602 135.11523438 C34.31238609 132.64136434 34.35627351 130.16882854 34.40039062 127.6953125 C34.41051715 126.12240566 34.41903338 124.54948746 34.42578125 122.9765625 C34.45204338 121.86856796 34.45204338 121.86856796 34.47883606 120.7381897 C34.46537288 117.54461345 34.3166997 115.45150438 32.45976257 112.80415344 C29.10881233 110.3463437 26.17267586 110.44581593 22.17382812 110.49829102 C21.38962997 110.49288803 20.60543182 110.48748505 19.79747009 110.48191833 C17.20834473 110.46942309 14.62032966 110.48592663 12.03125 110.50390625 C10.23050885 110.50375128 8.42976736 110.50226263 6.62902832 110.49949646 C2.85621382 110.49811211 -0.91622068 110.51067635 -4.68896484 110.53344727 C-9.52465728 110.56183207 -14.3597183 110.55909509 -19.19545746 110.54635715 C-22.91352734 110.53940166 -26.63145131 110.54718776 -30.34950256 110.55961418 C-32.13248637 110.56412995 -33.91548584 110.56446439 -35.69847107 110.56054878 C-38.19058326 110.55763781 -40.68182583 110.57413743 -43.17382812 110.59594727 C-43.91057266 110.59144562 -44.6473172 110.58694397 -45.40638733 110.58230591 C-49.49622554 110.64176643 -52.18162544 110.88753708 -55 114 Z " fill="#474747" transform="translate(154,295)"/>
<path d="M0 0 C0.54713654 0.41232376 1.09427307 0.82464752 1.6579895 1.24946594 C2.37687347 1.7901622 3.09575745 2.33085846 3.83642578 2.88793945 C4.54856232 3.42401321 5.26069885 3.96008698 5.99441528 4.5124054 C8.23295289 6.17278724 10.50360221 7.72281313 12.875 9.1875 C13.61492187 9.65542969 14.35484375 10.12335938 15.1171875 10.60546875 C22.50009221 14.17687387 29.64834902 15.44661811 37.7890625 15.38818359 C38.71080261 15.39344055 39.63254272 15.39869751 40.58221436 15.40411377 C43.59665414 15.41720202 46.61055585 15.40861551 49.625 15.3984375 C51.73909607 15.40046144 53.85319146 15.40337555 55.96728516 15.40713501 C60.38515916 15.41154324 64.80285046 15.40517572 69.22070312 15.39111328 C74.86270698 15.37402247 80.50428258 15.3838717 86.14627075 15.40183067 C90.50792627 15.41270909 94.86948148 15.40920357 99.23114014 15.4014473 C101.31060844 15.3994565 103.39008606 15.40186485 105.46954346 15.40888596 C108.38358432 15.41656748 111.29694672 15.40480295 114.2109375 15.38818359 C115.47994904 15.39729263 115.47994904 15.39729263 116.77459717 15.40658569 C125.32699021 15.3169402 132.91845583 13.05197066 140.25 8.625 C141.20390625 8.06039062 142.1578125 7.49578125 143.140625 6.9140625 C145.29464963 5.47216077 147.20863893 4.04255542 149.17871094 2.38037109 C150.10973633 1.59484863 151.04076172 0.80932617 152 0 C152.1002128 5.83084315 152.17209129 11.66116563 152.21972656 17.49267578 C152.23962139 19.46900179 152.26674723 21.4452707 152.30175781 23.42138672 C152.5684552 38.88199125 151.77565928 53.35721734 144.3125 67.3125 C143.9714624 67.96927734 143.6304248 68.62605469 143.27905273 69.30273438 C133.55968252 87.35204815 117.16983869 100.08206273 97.70703125 106.03515625 C78.81838853 110.95137833 59.55889776 109.88873662 42 101 C41.01644531 100.50757813 40.03289062 100.01515625 39.01953125 99.5078125 C21.5658992 90.06975533 9.34264364 74.61845824 2.9296875 55.87109375 C2.19602362 53.2534095 1.54106436 50.66370148 1 48 C0.82654053 47.16001465 0.65308105 46.3200293 0.47436523 45.45458984 C-0.13417554 41.02285955 -0.12362903 36.69383019 -0.09765625 32.2265625 C-0.0962413 31.3028183 -0.09482635 30.3790741 -0.09336853 29.42733765 C-0.08779609 26.49319138 -0.07524869 23.55912299 -0.0625 20.625 C-0.05748144 18.62890736 -0.05291915 16.63281351 -0.04882812 14.63671875 C-0.03783569 9.75778275 -0.0205901 4.87890455 0 0 Z " fill="#7A7A7A" transform="translate(180,153)"/>
<path d="M0 0 C0.70388855 0.28016464 1.4077771 0.56032928 2.13299561 0.84898376 C4.46790309 1.78017878 6.79833828 2.72206514 9.12890625 3.6640625 C10.77679207 4.32392935 12.4249931 4.9830095 14.07348633 5.64135742 C16.721946 6.69939634 19.37005722 7.75825798 22.01701355 8.8200531 C29.25638382 11.72321697 36.5105531 14.58766541 43.76953125 17.44140625 C45.96951302 18.3073767 48.16946435 19.17342448 50.36938477 20.03955078 C53.61802767 21.31856604 56.8669398 22.5968656 60.11691284 23.87249756 C63.1573911 25.06661655 66.19606995 26.26520806 69.234375 27.46484375 C70.14830017 27.82255356 71.06222534 28.18026337 72.00384521 28.54881287 C72.84328674 28.88115433 73.68272827 29.21349579 74.54760742 29.5559082 C75.27904465 29.84375687 76.01048187 30.13160553 76.76408386 30.42817688 C78.69140625 31.2890625 78.69140625 31.2890625 81.69140625 33.2890625 C81.69140625 48.68025767 73.13822859 62.89388917 67.69140625 77.2890625 C15.22140625 77.2890625 -37.24859375 77.2890625 -91.30859375 77.2890625 C-94.71446903 70.47731193 -97.61304992 63.71733172 -100.31005859 56.625 C-101.06114349 54.65738293 -101.82719635 52.69600879 -102.59375 50.734375 C-103.07774959 49.46910409 -103.56085419 48.20349038 -104.04296875 46.9375 C-104.47834961 45.80489746 -104.91373047 44.67229492 -105.36230469 43.50537109 C-106.34014796 40.18181399 -106.71682133 37.72750159 -106.30859375 34.2890625 C-104.12512751 30.84265953 -100.16171081 29.81483119 -96.49609375 28.41796875 C-95.79492935 28.14323227 -95.09376495 27.86849579 -94.37135315 27.58543396 C-92.02008685 26.66625986 -89.66457233 25.75858409 -87.30859375 24.8515625 C-84.77695437 23.8696009 -82.24606495 22.88572342 -79.71522522 21.90170288 C-77.89280668 21.19337196 -76.06998974 20.48606531 -74.24681091 19.7796936 C-67.87132712 17.30447271 -61.51849506 14.7768686 -55.17495728 12.22093201 C-50.55169076 10.3589746 -45.92338663 8.50972595 -41.29467773 6.66134644 C-39.01710334 5.74842046 -36.74169045 4.83008287 -34.46850586 3.90628052 C-31.2556714 2.60205913 -28.03526135 1.3185197 -24.8125 0.0390625 C-23.37409508 -0.55353111 -23.37409508 -0.55353111 -21.90663147 -1.15809631 C-13.61861767 -4.40810942 -8.15885578 -3.33394252 0 0 Z M-39.34375 18.76953125 C-41.92318563 22.07715745 -42.38795977 25.18781981 -42.30859375 29.2890625 C-41.36754644 31.94117123 -40.47927425 33.98522793 -39.1171875 36.38671875 C-38.77486588 37.0246788 -38.43254425 37.66263885 -38.07984924 38.31993103 C-37.35544351 39.66036005 -36.62119769 40.99551339 -35.87768555 42.32543945 C-34.75316646 44.33889877 -33.66059576 46.36718422 -32.57226562 48.40039062 C-26.80907314 59.72485376 -26.80907314 59.72485376 -17.43359375 67.7890625 C-12.78624034 68.53263905 -8.70898672 68.70808312 -4.59594727 66.27661133 C0.96125561 61.77636505 3.71647931 56.32693777 6.81640625 49.9765625 C7.81795339 47.97993817 8.82054453 45.98383717 9.82421875 43.98828125 C10.30020508 43.02664062 10.77619141 42.065 11.26660156 41.07421875 C12.9797706 37.72537837 14.85672475 34.49158707 16.80419922 31.27416992 C18.43012762 27.63618869 17.73474802 25.07117642 16.69140625 21.2890625 C15.14632808 19.29906653 14.19777474 18.42746478 11.75488281 17.75976562 C6.24147465 17.27904599 0.95479146 17.37225259 -4.55859375 17.7890625 C-12.92352789 18.35075007 -21.0705536 18.14940257 -29.41699219 17.34375 C-33.39857165 17.04045052 -35.69693143 16.99070984 -39.34375 18.76953125 Z " fill="#474747" transform="translate(268.30859375,40.7109375)"/>
<path d="M0 0 C51.48 0 102.96 0 156 0 C153.18680913 12.65935892 148.52194875 21.20212896 137.671875 28.60546875 C130.71976768 32.23398091 124.21425583 33.44582355 116.43212891 33.40405273 C115.06677757 33.41434761 115.06677757 33.41434761 113.67384338 33.42485046 C110.69125373 33.44301945 107.70919515 33.43929479 104.7265625 33.43359375 C102.63585237 33.43816059 100.54514374 33.44346765 98.45443726 33.44947815 C94.08186732 33.45839008 89.70948021 33.45600831 85.33691406 33.44604492 C79.75654425 33.43456331 74.17680801 33.45476456 68.59652138 33.48396206 C64.28113857 33.50238263 59.96590591 33.50201984 55.65049362 33.49632454 C53.59417203 33.49617201 51.53783981 33.50215912 49.48155594 33.51461601 C34.19916441 33.59415753 22.23619613 32.66310118 10.4375 21.875 C4.30264696 15.53655671 2.11386204 8.45544816 0 0 Z " fill="#484848" transform="translate(178,127)"/>
<path d="M0 0 C7.92 0 15.84 0 24 0 C25.95830791 11.81269384 27.91458719 23.62571867 29.86727142 35.43934345 C30.77400764 40.92453697 31.68164122 46.40957888 32.59130859 51.89428711 C33.46873082 57.18478054 34.34381804 62.47565532 35.2172699 67.76680565 C35.55135009 69.78800477 35.88627934 71.80906373 36.22206116 73.82998085 C36.69128762 76.6549265 37.15752529 79.48035002 37.62304688 82.3059082 C37.83343849 83.56610527 37.83343849 83.56610527 38.04808044 84.85176086 C38.55369465 87.93567468 39 90.86902193 39 94 C21.18 94 3.36 94 -15 94 C-13.13780914 80.96466396 -11.23736642 67.96563398 -9.08203125 54.98046875 C-8.81708013 53.37383702 -8.55232934 51.76717224 -8.2877655 50.16047668 C-7.60423959 46.01266221 -6.91806844 41.86528998 -6.23126221 37.71801758 C-5.52555961 33.453562 -4.82247439 29.18867492 -4.11914062 24.92382812 C-2.74859291 16.61547088 -1.37499542 8.30762233 0 0 Z " fill="#7A7A7A" transform="translate(244,381)"/>
<path d="M0 0 C4.08280087 1.56977769 7.58169308 3.51965391 11.3125 5.8125 C30.49626184 17.112138 52.6824681 19.30734042 74.15625 14.2578125 C84.66960613 11.31719556 95.26655646 6.59631853 104 0 C104.66 0 105.32 0 106 0 C107.60908576 20.12099852 107.60908576 20.12099852 104.40625 25.8515625 C101.73864781 27.92534914 98.98441353 29.41202734 96 31 C93.13360488 32.96834 90.35669316 35.05594347 87.5625 37.125 C86.01084016 38.24198433 84.457412 39.35651576 82.90234375 40.46875 C77.78049404 44.14778138 72.69921511 47.88064333 67.625 51.625 C66.82263916 52.21684082 66.02027832 52.80868164 65.19360352 53.41845703 C61.02429994 56.44955696 61.02429994 56.44955696 57.06787109 59.74365234 C55 61 55 61 52.50073242 60.85644531 C49.90120847 59.9661661 48.16910694 58.95615809 45.98828125 57.296875 C45.23949707 56.73516602 44.49071289 56.17345703 43.71923828 55.59472656 C42.52790283 54.68158691 42.52790283 54.68158691 41.3125 53.75 C39.60876422 52.46783088 37.90431973 51.18660303 36.19921875 49.90625 C35.33474121 49.25398438 34.47026367 48.60171875 33.57958984 47.9296875 C30.38053302 45.53660165 27.14379665 43.20029756 23.89282227 40.87841797 C22.38388302 39.7949187 20.88295391 38.70017409 19.39038086 37.59423828 C16.00889404 35.09331947 12.69005491 32.76950988 8.984375 30.7734375 C5.20481528 28.60476451 2.51698991 26.6689801 0 23 C-1.51790417 15.43672135 -0.80486411 7.61811028 0 0 Z " fill="#474747" transform="translate(203,253)"/>
<path d="M0 0 C16.16499137 2.06942834 30.85794417 11.19694158 41.2578125 23.625 C51.9786413 38.2399415 57.03112999 56.97432024 56 75 C40.86041815 75.80466282 27.76200957 71.47765195 16.02734375 61.8671875 C6.50823418 53.10006925 0.39478255 40.27551584 -0.15429688 27.37475586 C-0.2198426 23.22825529 -0.17516786 19.08392056 -0.125 14.9375 C-0.11494832 13.48503222 -0.10582635 12.0325577 -0.09765625 10.58007812 C-0.07582017 7.05324318 -0.04141149 3.5266658 0 0 Z " fill="#7A7A7A" transform="translate(410,304)"/>
<path d="M0 0 C0.07526343 4.05264618 0.12911541 8.1050108 0.16479492 12.15820312 C0.17969923 13.53132226 0.20002997 14.90439539 0.22631836 16.27734375 C0.52681445 32.39807514 -2.53918921 47.92857224 -14 60 C-24.54781865 69.43584981 -36.57259225 75.23691961 -50.875 75.0625 C-52.32519531 75.04896484 -52.32519531 75.04896484 -53.8046875 75.03515625 C-54.52914062 75.02355469 -55.25359375 75.01195312 -56 75 C-57.14832796 61.09247251 -53.9687529 45.10362345 -47 33 C-46.46246094 32.05769531 -45.92492187 31.11539062 -45.37109375 30.14453125 C-36.67557386 15.72981036 -17.86898808 0 0 0 Z " fill="#7A7A7A" transform="translate(102,304)"/>
<path d="M0 0 C3.48310016 0.8462434 7.01113833 1.43398205 10.5378418 2.06860352 C13.31845441 2.5711466 16.09526649 3.08806998 18.86962891 3.62402344 C19.64983398 3.77363525 20.43003906 3.92324707 21.23388672 4.07739258 C23.16650391 4.52636719 23.16650391 4.52636719 25.16650391 5.52636719 C23.59257153 9.50261739 21.01528966 11.71261351 17.85400391 14.52636719 C16.76252272 15.5064626 15.67138866 16.4869447 14.58056641 17.46777344 C13.73413574 18.22405029 13.73413574 18.22405029 12.87060547 18.99560547 C10.13066329 21.45684293 7.43081037 23.96093402 4.72900391 26.46386719 C3.63668214 27.47311832 2.54423352 28.48223218 1.45166016 29.49121094 C0.90912598 29.99249512 0.3665918 30.4937793 -0.19238281 31.01025391 C-3.4436092 34.01384151 -6.69631532 37.01582738 -9.94946289 40.01733398 C-12.71003572 42.56469014 -15.46871375 45.11404876 -18.22412109 47.66699219 C-24.36785592 53.35560269 -30.54277935 58.9996393 -36.83349609 64.52636719 C-40.56673536 63.2819541 -41.43209773 61.79948751 -43.83349609 58.71386719 C-47.73576188 53.79919091 -51.83316455 49.17987873 -56.20263672 44.67553711 C-58.91925005 41.80367465 -60.63211126 39.30214808 -61.83349609 35.52636719 C-59.90324507 34.10407696 -57.97299107 32.68179077 -56.04272461 31.25952148 C-54.34134103 30.00584442 -52.64000754 28.75209936 -50.9387207 27.49829102 C-46.54802417 24.26259551 -42.15661606 21.02787836 -37.76318359 17.79589844 C-36.54888672 16.90088623 -36.54888672 16.90088623 -35.31005859 15.98779297 C-33.70440347 14.80790926 -32.09502953 13.63306922 -30.48193359 12.46337891 C-27.02600405 9.94703021 -23.65195653 7.43099859 -20.46630859 4.57714844 C-13.31498801 -1.61623663 -9.11857989 -2.36622848 0 0 Z " fill="#7A7A7A" transform="translate(324.83349609375,284.4736328125)"/>
<path d="M0 0 C0.74701172 0.55671387 1.49402344 1.11342773 2.26367188 1.68701172 C3.06224609 2.29174316 3.86082031 2.89647461 4.68359375 3.51953125 C6.39310689 4.79703865 8.10274597 6.07437752 9.8125 7.3515625 C10.68922363 8.00979004 11.56594727 8.66801758 12.46923828 9.34619141 C16.66857282 12.49085971 20.89505304 15.59840018 25.12109375 18.70703125 C25.9104834 19.28880127 26.69987305 19.87057129 27.51318359 20.4699707 C33.36479448 24.78184639 39.23234761 29.07096101 45.12109375 33.33203125 C43.67396143 38.0287122 40.91067644 41.00987244 37.55859375 44.45703125 C32.10841724 50.19723383 27.04400877 56.12866106 22.12109375 62.33203125 C18.16736304 60.70902007 15.36251356 57.97950693 12.30859375 55.08203125 C11.74599854 54.55552979 11.18340332 54.02902832 10.60375977 53.48657227 C9.39745534 52.35705824 8.1930024 51.22556419 6.99023438 50.09228516 C3.85620417 47.14082777 0.70617562 44.2065198 -2.44140625 41.26953125 C-3.07328857 40.67897949 -3.7051709 40.08842773 -4.35620117 39.47998047 C-9.17640603 34.97731134 -14.02877314 30.51157257 -18.8984375 26.0625 C-21.02845986 24.11490846 -23.14938083 22.15786631 -25.265625 20.1953125 C-25.83369873 19.66873047 -26.40177246 19.14214844 -26.98706055 18.59960938 C-28.10739716 17.56095896 -29.22736274 16.52190818 -30.34692383 15.48242188 C-33.23480817 12.81164842 -36.16276001 10.21665545 -39.19140625 7.70703125 C-40.07828125 6.92328125 -40.96515625 6.13953125 -41.87890625 5.33203125 C-41.87890625 4.67203125 -41.87890625 4.01203125 -41.87890625 3.33203125 C-33.89907584 1.37778707 -25.87543121 -0.32602829 -17.81640625 -1.91796875 C-16.90028564 -2.10520508 -15.98416504 -2.29244141 -15.0402832 -2.48535156 C-14.17105225 -2.65389648 -13.30182129 -2.82244141 -12.40625 -2.99609375 C-11.63015381 -3.14981445 -10.85405762 -3.30353516 -10.05444336 -3.46191406 C-5.8251426 -3.86248974 -3.32255635 -2.4999996 0 0 Z " fill="#7A7A7A" transform="translate(203.87890625,286.66796875)"/>
<path d="M0 0 C23.43 0 46.86 0 71 0 C71 7.92 71 15.84 71 24 C47.57 24 24.14 24 0 24 C0 16.08 0 8.16 0 0 Z " fill="#7A7A7A" transform="translate(333,415)"/>
<path d="M0 0 C23.43 0 46.86 0 71 0 C71 7.92 71 15.84 71 24 C47.57 24 24.14 24 0 24 C0 16.08 0 8.16 0 0 Z " fill="#7A7A7A" transform="translate(108,415)"/>
<path d="M0 0 C3.83083385 1.27694462 4.88438895 3.03810958 7.375 6.1875 C9.85154229 9.31852819 12.31280966 12.35849182 15.0625 15.25 C17.8901965 19.26350471 17.36432919 22.6745242 16.61743164 27.44189453 C16.11415215 30.11623741 15.56692808 32.77586888 15 35.4375 C14.34 38.593125 13.68 41.74875 13 45 C5.08 45 -2.84 45 -11 45 C-11.66 41.844375 -12.32 38.68875 -13 35.4375 C-13.20882812 34.4570874 -13.41765625 33.4766748 -13.6328125 32.46655273 C-16.18958254 19.9579104 -16.18958254 19.9579104 -13.91552734 16.21508789 C-12.4215761 14.31981834 -10.84529897 12.56590444 -9.1875 10.8125 C-8.09686831 9.61139208 -7.00700234 8.40958834 -5.91796875 7.20703125 C-5.4079834 6.65354004 -4.89799805 6.10004883 -4.37255859 5.52978516 C-2.79303032 3.76932194 -1.36543023 1.93076625 0 0 Z " fill="#7A7A7A" transform="translate(255,327)"/>
<path d="M0 0 C0.84256348 0.05329468 0.84256348 0.05329468 1.70214844 0.10766602 C15.23419174 0.92974451 28.47689833 0.953364 42 0 C39.83358305 5.71541499 36.91878242 10.99806253 34.0324707 16.37573242 C33.0618346 18.18874287 32.10216613 20.00729526 31.14257812 21.82617188 C30.52962891 22.97021484 29.91667969 24.11425781 29.28515625 25.29296875 C28.44803101 26.86340942 28.44803101 26.86340942 27.59399414 28.46557617 C26 31 26 31 23 33 C20.12109375 33.13671875 20.12109375 33.13671875 17 32 C14.90104042 29.50929732 13.51858883 26.7134996 12.0625 23.8125 C11.63791504 23.0076416 11.21333008 22.2027832 10.77587891 21.37353516 C9.49345369 18.92711449 8.24304414 16.46662673 7 14 C6.43853271 12.90002686 6.43853271 12.90002686 5.86572266 11.77783203 C3.8713817 7.87053312 1.91611012 3.94642547 0 0 Z " fill="#7A7A7A" transform="translate(235,67)"/>
</svg>
