<?xml version="1.0" encoding="UTF-8"?>
<svg version="1.1" xmlns="http://www.w3.org/2000/svg" width="512" height="512">
<path d="M0 0 C7.98290805 4.79592075 12.14682776 13.09140442 16.61132812 20.96411133 C17.63550763 22.76851236 18.67232155 24.56520518 19.7109375 26.36132812 C24.75 35.16469029 24.75 35.16469029 24.75 37.4375 C25.97917648 37.37485962 27.20835297 37.31221924 28.47477722 37.24768066 C40.05476148 36.65771537 51.63481257 36.06907797 63.21493053 35.48174286 C69.16846777 35.17974096 75.12198041 34.87727015 81.07543945 34.57373047 C86.82010237 34.28085359 92.56482644 33.98920487 98.30959511 33.69841003 C100.5020705 33.58721212 102.69452344 33.47557059 104.88695335 33.36347961 C107.95607157 33.20664247 111.0252656 33.0513782 114.09448242 32.89648438 C115.00222916 32.84973068 115.90997589 32.80297699 116.8452301 32.75480652 C120.81780184 32.55581353 124.77080313 32.37731149 128.75 32.4375 C125.8066084 35.6350539 122.86220862 37.71448333 119.078125 39.8359375 C117.38731812 40.79161621 117.38731812 40.79161621 115.66235352 41.76660156 C115.06576935 42.0998645 114.46918518 42.43312744 113.85452271 42.77648926 C111.32733244 44.18827907 108.80819451 45.61415879 106.28858948 47.03942871 C104.99572277 47.77068128 103.70245612 48.50122716 102.40879822 49.2310791 C96.34164791 52.65689611 90.32296636 56.16326687 84.3125 59.6875 C76.51100433 64.24825411 68.70518086 68.80112933 60.875 73.3125 C59.98240479 73.83102539 59.08980957 74.34955078 58.17016602 74.88378906 C57.35346436 75.35268555 56.5367627 75.82158203 55.6953125 76.3046875 C54.97875488 76.71831543 54.26219727 77.13194336 53.52392578 77.55810547 C51.75 78.4375 51.75 78.4375 49.75 78.4375 C57.74409137 92.45292939 65.74899931 106.4618624 73.8125 120.4375 C74.40619385 121.46665527 74.9998877 122.49581055 75.61157227 123.55615234 C76.18447998 124.54824707 76.7573877 125.5403418 77.34765625 126.5625 C77.9008252 127.5215625 78.45399414 128.480625 79.02392578 129.46875 C80.25101419 131.57927263 81.49027096 133.68274086 82.73779297 135.78125 C83.37990723 136.8640625 84.02202148 137.946875 84.68359375 139.0625 C85.27068115 140.04476562 85.85776855 141.02703125 86.46264648 142.0390625 C87.75 144.4375 87.75 144.4375 87.75 146.4375 C88.9145874 146.35894775 90.0791748 146.28039551 91.27905273 146.19946289 C95.63273654 145.9263475 99.98568465 145.75526058 104.34545898 145.61352539 C106.22533692 145.53843363 108.10434816 145.43630217 109.98120117 145.3059082 C125.13384861 144.28017815 125.13384861 144.28017815 129.45733643 147.84539795 C132.35977847 151.36281504 134.21533592 155.271586 135.90750122 159.48043823 C136.7833951 161.51507432 137.82489688 163.3458244 138.96655273 165.24243164 C140.75 168.4375 140.75 168.4375 140.75 171.4375 C132.86647197 172.0096642 124.98274629 172.57904265 117.09887695 173.14648438 C114.41684911 173.33965206 111.73488757 173.53370581 109.05297852 173.72851562 C105.19819843 174.00818873 101.34325912 174.28556821 97.48828125 174.5625 C96.28915604 174.64999512 95.09003082 174.73749023 93.85456848 174.82763672 C92.73378403 174.90771973 91.61299957 174.98780273 90.45825195 175.0703125 C89.47452103 175.14137207 88.4907901 175.21243164 87.47724915 175.28564453 C84.89446631 175.429456 82.33609348 175.46519125 79.75 175.4375 C79.5017749 176.13770264 79.2535498 176.83790527 78.99780273 177.55932617 C77.57802935 180.8341664 75.80196959 183.54265735 73.78515625 186.48828125 C73.39561264 187.06021713 73.00606903 187.63215302 72.60472107 188.22142029 C71.34550615 190.06765739 70.07943081 191.90905097 68.8125 193.75 C67.94633028 195.01380259 67.08044564 196.27780061 66.21484375 197.54199219 C64.92576513 199.42413981 63.63613224 201.30588922 62.3442688 203.18612671 C59.91836393 206.7189182 57.51987531 210.26750014 55.15234375 213.83984375 C54.39908813 214.96749146 54.39908813 214.96749146 53.63061523 216.11791992 C52.73313909 217.46326126 51.84289509 218.81346525 50.96118164 220.16918945 C49.78125 221.921875 49.78125 221.921875 47.75 224.4375 C46.76 224.4375 45.77 224.4375 44.75 224.4375 C42.70540103 221.05544651 40.69370551 217.65494543 38.6875 214.25 C38.10677734 213.29029297 37.52605469 212.33058594 36.92773438 211.34179688 C36.38310547 210.41044922 35.83847656 209.47910156 35.27734375 208.51953125 C34.76937256 207.66593018 34.26140137 206.8123291 33.73803711 205.93286133 C32.52170481 202.8609235 32.7176918 201.55045987 33.75 198.4375 C34.61742269 196.64610949 35.55784692 194.88905047 36.55078125 193.1640625 C37.39866211 191.6790625 37.39866211 191.6790625 38.26367188 190.1640625 C38.85728516 189.14054688 39.45089844 188.11703125 40.0625 187.0625 C40.64451172 186.04671875 41.22652344 185.0309375 41.82617188 183.984375 C42.67985352 182.49550781 42.67985352 182.49550781 43.55078125 180.9765625 C44.09814941 180.01782227 44.64551758 179.05908203 45.20947266 178.07128906 C46.14708256 176.46828816 47.11381722 174.88128564 48.13037109 173.32714844 C49.4484083 171.36878882 49.4484083 171.36878882 50.75 168.4375 C49.61563868 164.7366844 47.74169794 161.51020728 45.80078125 158.17578125 C45.2070874 157.15162109 44.61339355 156.12746094 44.00170898 155.07226562 C43.04180054 153.42774414 43.04180054 153.42774414 42.0625 151.75 C41.0524355 150.01023251 40.0423768 148.27046163 39.03266907 146.53048706 C37.98071253 144.71851588 36.92737508 142.90735184 35.87402344 141.09619141 C33.78445995 137.50037395 31.70692726 133.89771431 29.6328125 130.29296875 C29.29990707 129.7146077 28.96700165 129.13624664 28.62400818 128.5403595 C27.03238299 125.77503414 25.44132439 123.00938416 23.85083008 120.2434082 C20.21542286 113.93474439 16.52005853 107.66666686 12.75 101.4375 C4.32378086 105.82845553 -3.9707738 110.38274687 -12.14086914 115.23413086 C-19.88061771 119.82710922 -27.67891142 124.31690552 -35.47973633 128.80517578 C-40.68634901 131.80168288 -45.88825072 134.80494178 -51.0703125 137.84375 C-51.95090332 138.35881104 -52.83149414 138.87387207 -53.73876953 139.40454102 C-55.374636 140.36242783 -57.00853284 141.32368883 -58.64013672 142.28881836 C-64.02697949 145.4375 -64.02697949 145.4375 -66.25 145.4375 C-64.8903163 141.74462389 -63.2136459 138.59314127 -61.08203125 135.2890625 C-60.12490234 133.79922852 -60.12490234 133.79922852 -59.1484375 132.27929688 C-58.46007812 131.21775391 -57.77171875 130.15621094 -57.0625 129.0625 C-56.33952827 127.94095851 -55.61687703 126.81921037 -54.89453125 125.69726562 C-49.60356332 117.48909404 -44.26490118 109.3118247 -38.91967773 101.13891602 C-34.11448737 93.78491312 -29.35952274 86.39959385 -24.625 79 C-23.63016602 77.44539063 -23.63016602 77.44539063 -22.61523438 75.859375 C-21.38060689 73.9270247 -20.15141714 71.99118505 -18.92871094 70.05126953 C-17.85753842 68.38344333 -16.7541125 66.73560802 -15.61035156 65.11669922 C-15.13307617 64.42721191 -14.65580078 63.73772461 -14.1640625 63.02734375 C-13.53298584 62.15710571 -13.53298584 62.15710571 -12.88916016 61.26928711 C-12.02790764 59.36499918 -12.02790764 59.36499918 -12.9152832 57.0925293 C-14.410788 54.11765922 -16.00817407 51.24050098 -17.69140625 48.3671875 C-18.01914536 47.80428009 -18.34688446 47.24137268 -18.68455505 46.66140747 C-19.7240064 44.8765492 -20.76778335 43.09428077 -21.8125 41.3125 C-22.860563 39.52345284 -23.90757266 37.73383314 -24.95115662 35.94216919 C-25.89511275 34.32166049 -26.84308389 32.70349253 -27.79125977 31.08544922 C-30.79246453 25.63757191 -30.93492093 20.53011058 -30.25 14.4375 C-28.23800623 7.77159541 -25.22846731 3.61833524 -19.1171875 0.27734375 C-13.00478842 -2.47195709 -6.1684028 -2.78112959 0 0 Z " fill="#000000" transform="translate(366.25,75.5625)"/>
<path d="M0 0 C1.42359953 1.30364599 2.83023986 2.6274209 4.1875 4 C4.1875 4.33 4.1875 4.66 4.1875 5 C2.64255859 4.96519531 2.64255859 4.96519531 1.06640625 4.9296875 C-17.71102381 4.6358728 -39.19232835 4.96229781 -53.58984375 18.6953125 C-60.27865159 25.98922031 -61.4502493 32.36185251 -61.21875 42.15234375 C-59.83216985 55.28485766 -51.23739781 66.73091128 -41.38671875 75.0859375 C-37.3162751 78.11251928 -33.00978559 80.68763381 -28.6328125 83.23828125 C-24.09889241 86.07041139 -24.09889241 86.07041139 -22.8125 88 C-22.95013006 92.49591523 -25.26720713 95.57966576 -27.6875 99.25 C-34.49316886 109.95300942 -37.10520399 120.16017056 -34.8125 132.8125 C-29.88992275 153.0325931 -15.78171677 167.44705515 -1.8125 182 C-17.21753073 198.55378063 -44.76748309 209.06238168 -67.08544922 210.16113281 C-98.68795123 210.53688494 -98.68795123 210.53688494 -110.8125 207 C-111.47781738 206.80664062 -112.14313477 206.61328125 -112.82861328 206.4140625 C-129.63109962 201.38147126 -144.40583035 193.2454852 -157.8125 182 C-158.63234375 181.33226562 -159.4521875 180.66453125 -160.296875 179.9765625 C-182.7097881 161.04151523 -196.25619147 131.4818552 -199.5 102.6875 C-199.87126967 98.1110331 -199.95819857 93.58950485 -199.8125 89 C-197.50190396 86.68940396 -192.78052727 87.51053041 -189.67138672 87.47875977 C-185.37111683 87.59659634 -182.67899792 88.07890815 -179.4375 90.9375 C-178.19463078 92.26004032 -176.98687479 93.61628014 -175.8125 95 C-167.96876796 103.36870623 -159.31686286 109.66375809 -149.8125 116 C-149.41635739 118.49599632 -149.17011151 120.86354082 -149 123.375 C-148.17055629 131.97131607 -145.55296925 138.94147864 -140.36376953 145.95922852 C-136.13378711 151.80289014 -134.46713967 157.00994046 -133.1875 164.0625 C-131.41166452 173.4628465 -129.56008785 181.64203797 -121.7265625 187.7421875 C-116.43194082 191.22151032 -111.50690013 192.72430556 -105.1796875 191.6953125 C-97.9488548 189.57140454 -92.37757812 185.69568088 -88.75 179.0703125 C-87.55168043 176.42402345 -86.62058193 173.72009616 -85.68359375 170.97265625 C-84.71024645 168.76843927 -83.49413958 167.27140363 -81.9375 165.4375 C-76.84078625 159.03165528 -74.36585463 150.14596761 -73.296875 142.13671875 C-72.8125 139 -72.8125 139 -70.875 137.375 C-69.864375 136.92125 -68.85375 136.4675 -67.8125 136 C-58.987354 132.09835875 -58.987354 132.09835875 -52.8125 125 C-50.09923831 117.75207408 -50.71289966 111.98457238 -53.8125 105 C-55.88870155 100.8294905 -58.27089716 96.89903773 -60.8125 93 C-61.48128174 91.97036133 -61.48128174 91.97036133 -62.16357422 90.91992188 C-70.94581027 77.56268514 -77.43349584 69.70931598 -93.26757812 65.78149414 C-98.89994925 64.36925643 -103.14526461 62.55115736 -107.8125 59 C-105.33937922 56.13418774 -102.7496856 54.95257523 -99.3125 53.4375 C-87.05775475 47.4288174 -78.42276701 38.00471169 -73.9375 25.125 C-71.06355926 14.1283046 -72.71550696 4.46670921 -78.1328125 -5.40625 C-83.94412606 -14.67894705 -91.74491464 -21.05404239 -100.8125 -27 C-71.76056025 -43.54346569 -21.70472194 -19.15835791 0 0 Z " fill="#000000" transform="translate(234.8125,60)"/>
<path d="M0 0 C9.59620979 5.22650712 19.43535854 12.14073971 22.76953125 23.10546875 C24.30727438 30.77981297 23.41315225 37.57161675 19.1875 44.19140625 C12.34355049 52.96776504 2.00300891 58.77113089 -8.8125 61.19140625 C-12.84557901 61.45921572 -16.83819853 61.342503 -20.875 61.19140625 C-32.3958392 60.60464881 -32.3958392 60.60464881 -42.49633789 65.6015625 C-44.09450783 67.2580317 -44.09450783 67.2580317 -44.3125 70.31640625 C-43.48431668 76.73482701 -40.57521005 81.98311958 -35.625 86.19140625 C-30.63778344 89.73787136 -27.68820103 89.16099388 -21.8125 88.19140625 C-20.636875 87.84078125 -19.46125 87.49015625 -18.25 87.12890625 C-10.41137587 84.99109967 -5.48491772 86.32892391 1.4375 90.00390625 C7.39304792 93.01490412 12.82039608 95.19593262 19.4765625 96.23046875 C27.40948503 99.04242688 31.65886182 106.31832101 35.9375 113.12890625 C36.50082031 113.99708984 37.06414062 114.86527344 37.64453125 115.75976562 C45.25766647 127.66541326 45.25766647 127.66541326 45.125 132.44140625 C42.39157175 137.54380565 36.14358448 138.80705115 31.0625 140.6171875 C27.38186657 142.63253434 26.10945056 144.47417914 24.1875 148.19140625 C23.5503128 150.86649388 23.06199344 153.36212229 22.6875 156.06640625 C21.34497987 164.21590128 19.2015414 169.68270393 14.125 176.12890625 C11.36491233 179.63796243 10.04484623 182.9097694 8.92578125 187.2109375 C8.06066295 189.53165167 7.09704767 190.63287838 5.1875 192.19140625 C2.375 193.19140625 2.375 193.19140625 -0.8125 193.19140625 C-4.67346763 191.14736456 -6.24146931 189.74508559 -7.75 185.640625 C-8.82475205 181.41438647 -9.62915767 177.15338762 -10.4453125 172.87109375 C-12.01619006 165.2333787 -14.43551117 159.61976579 -18.8125 153.19140625 C-19.75644077 151.71634147 -20.69442152 150.23743716 -21.625 148.75390625 C-22.02332031 148.13644531 -22.42164062 147.51898438 -22.83203125 146.8828125 C-24.91436174 143.29058501 -24.98926378 140.00052889 -25.1875 135.94140625 C-25.72239642 128.67949364 -25.72239642 128.67949364 -28.8125 122.19140625 C-32.30769156 119.26506298 -36.03664676 116.73921545 -39.8125 114.19140625 C-45.34215489 110.24835862 -50.15120657 105.9220299 -54.875 101.06640625 C-62.56395345 93.16987291 -68.86103404 89.22233588 -80 88.62890625 C-81.12438477 88.56413086 -81.12438477 88.56413086 -82.27148438 88.49804688 C-84.11828375 88.3921794 -85.96536834 88.29130865 -87.8125 88.19140625 C-87.69996871 62.64680233 -71.39376513 37.12814478 -54.1484375 19.36328125 C-39.2906814 4.78416425 -20.75500022 -10.04393761 0 0 Z " fill="#000000" transform="translate(124.8125,44.80859375)"/>
<path d="M0 0 C1.12557312 -0.00700928 2.25114624 -0.01401855 3.41082764 -0.02124023 C7.13611428 -0.03886347 10.86064296 -0.02718133 14.5859375 -0.01367188 C17.17138821 -0.01636552 19.75683792 -0.02024688 22.34228516 -0.02526855 C27.76280283 -0.03116952 33.18303496 -0.022962 38.60351562 -0.00390625 C44.86801188 0.0178625 51.13198739 0.01081098 57.39647102 -0.01121187 C63.42574377 -0.03155849 69.45476196 -0.02939558 75.48406982 -0.01768494 C78.04856438 -0.01501312 80.61307219 -0.01830329 83.17755127 -0.02760315 C86.75935266 -0.03774109 90.34014866 -0.02230447 93.921875 0 C94.98589539 -0.00809692 96.04991577 -0.01619385 97.1461792 -0.02453613 C104.1546177 0.05647792 104.1546177 0.05647792 107.62249756 2.03961182 C109.52162586 5.5556276 109.48758664 8.78844394 109.41503906 12.68261719 C109.4155212 13.51572292 109.41600334 14.34882866 109.41650009 15.20718002 C109.41351829 17.89962477 109.38307739 20.59095697 109.3515625 23.28320312 C109.34568015 24.94709744 109.34160018 26.61099914 109.33935547 28.27490234 C109.31839796 34.4392406 109.2625529 40.60342033 109.2109375 46.76757812 C109.1284375 60.54507813 109.0459375 74.32257813 108.9609375 88.51757812 C68.0409375 88.51757812 27.1209375 88.51757812 -15.0390625 88.51757812 C-15.1215625 74.74007812 -15.2040625 60.96257812 -15.2890625 46.76757812 C-15.32547852 42.41860352 -15.36189453 38.06962891 -15.39941406 33.58886719 C-15.41748047 28.27490234 -15.41748047 28.27490234 -15.4208374 25.78656006 C-15.42697655 24.05002748 -15.44103851 22.31351187 -15.46136475 20.5770874 C-15.49062977 17.9452964 -15.49468723 15.31454644 -15.49316406 12.68261719 C-15.5075565 11.91006718 -15.52194893 11.13751717 -15.5367775 10.34155655 C-15.51214458 7.16377498 -15.2191736 4.85103294 -13.70062256 2.03961182 C-9.3411112 -0.45340845 -4.93291262 -0.03753821 0 0 Z " fill="#000000" transform="translate(320.0390625,323.482421875)"/>
<path d="M0 0 C2.92139818 2.22501072 3.902104 3.34799158 4.45410156 7.02441406 C4.4331543 8.17651367 4.41220703 9.32861328 4.390625 10.515625 C4.37773438 11.76601563 4.36484375 13.01640625 4.3515625 14.3046875 C4.31804687 15.60664063 4.28453125 16.90859375 4.25 18.25 C4.23195312 19.56742187 4.21390625 20.88484375 4.1953125 22.2421875 C4.14816271 25.49552308 4.08236044 28.74739625 4 32 C6.64 32 9.28 32 12 32 C13.27861615 34.55723229 13.11336609 36.36737102 13.09765625 39.2265625 C13.09282227 40.7734375 13.09282227 40.7734375 13.08789062 42.3515625 C13.07532227 43.97191406 13.07532227 43.97191406 13.0625 45.625 C13.05798828 46.71296875 13.05347656 47.8009375 13.04882812 48.921875 C13.03701776 51.61463789 13.02054778 54.30729188 13 57 C13.62648438 56.97679687 14.25296875 56.95359375 14.8984375 56.9296875 C15.71570313 56.91164063 16.53296875 56.89359375 17.375 56.875 C18.18710938 56.85179687 18.99921875 56.82859375 19.8359375 56.8046875 C22 57 22 57 24 59 C24.22705078 61.79736328 24.22705078 61.79736328 24.1953125 65.3203125 C24.18886719 66.57714844 24.18242188 67.83398438 24.17578125 69.12890625 C24.15064453 71.10697266 24.15064453 71.10697266 24.125 73.125 C24.11496983 74.46483721 24.10584404 75.80468152 24.09765625 77.14453125 C24.07402075 80.42986573 24.04107234 83.71484465 24 87 C32.30282835 87.14799524 40.60270084 87.23013806 48.90672112 87.23059464 C52.76385208 87.23282558 56.61816447 87.25685868 60.47460938 87.33251953 C64.20399538 87.40485553 67.92945357 87.41756616 71.65939713 87.39070892 C73.07474326 87.39065356 74.49026133 87.41129775 75.90496445 87.4539566 C82.11438977 87.6296882 87.02383395 87.65726434 91.91949463 83.55163574 C95.3153557 79.75481901 98.02914008 75.52950602 100.75474548 71.23554993 C104.71076862 65.38642852 104.71076862 65.38642852 108.52755737 64.24240112 C111.60280795 63.95809065 114.53593959 63.98558347 117.62109375 64.12109375 C118.72099136 64.13382828 119.82088898 64.14656281 120.95411682 64.15968323 C124.45086596 64.20987714 127.94233298 64.32275056 131.4375 64.4375 C133.81437791 64.4826644 136.19133758 64.52372554 138.56835938 64.56054688 C144.38069395 64.65952152 150.18996969 64.80991311 156 65 C154.9469859 74.07486931 152.22243919 82.73582091 149.65722656 91.47949219 C149.05307561 93.57418565 148.4696407 95.67496669 147.90722656 97.78125 C143.19711484 115.36859832 143.19711484 115.36859832 137.79321289 119.38110352 C134.33203125 120.66796875 134.33203125 120.66796875 131.06567383 121.33276367 C126.74239473 122.27371468 124.18225925 124.60998287 120.90234375 127.44921875 C119.01756359 128.98568225 117.20875397 130.0013874 115 131 C114.45472656 130.46890625 113.90945312 129.9378125 113.34765625 129.390625 C102.93985917 119.64109884 93.51706033 117.48420871 79.55859375 117.73046875 C69.76411574 118.13848825 63.31526087 121.9662939 56.09375 128.390625 C54 130 54 130 51 130 C49.01953125 128.609375 49.01953125 128.609375 46.8125 126.75 C35.76073153 117.85818628 24.85864757 116.7017524 11 118 C2.21284377 120.05964012 -4.35715131 125.07728314 -11 131 C-11.4846875 130.62488281 -11.969375 130.24976563 -12.46875 129.86328125 C-22.06804256 122.53459058 -29.81579356 118.28254805 -42 117 C-44.71693936 110.82237811 -46.83831189 104.52602244 -48.75 98.0625 C-48.97260498 97.31685791 -49.19520996 96.57121582 -49.42456055 95.80297852 C-50.30342455 92.77677633 -51 90.16780194 -51 87 C-45.06 87 -39.12 87 -33 87 C-33.03480469 84.12861328 -33.03480469 84.12861328 -33.0703125 81.19921875 C-33.08906832 78.69531639 -33.10726872 76.19140983 -33.125 73.6875 C-33.14175781 72.42486328 -33.15851562 71.16222656 -33.17578125 69.86132812 C-33.18222656 68.65283203 -33.18867187 67.44433594 -33.1953125 66.19921875 C-33.20578613 65.08377686 -33.21625977 63.96833496 -33.22705078 62.8190918 C-33 60 -33 60 -31 57 C-28.6171875 56.70703125 -28.6171875 56.70703125 -25.875 56.8125 C-24.96492188 56.83957031 -24.05484375 56.86664063 -23.1171875 56.89453125 C-22.41851562 56.92933594 -21.71984375 56.96414063 -21 57 C-21.00785522 55.91730835 -21.00785522 55.91730835 -21.01586914 54.81274414 C-21.03657358 51.56267151 -21.04963918 48.31261272 -21.0625 45.0625 C-21.07087891 43.92619141 -21.07925781 42.78988281 -21.08789062 41.61914062 C-21.09272461 39.99975586 -21.09272461 39.99975586 -21.09765625 38.34765625 C-21.10551147 36.84730835 -21.10551147 36.84730835 -21.11352539 35.31665039 C-21 33 -21 33 -20 32 C-17.66702567 31.95907063 -15.33294775 31.95758277 -13 32 C-13.01571045 31.23856689 -13.0314209 30.47713379 -13.04760742 29.69262695 C-13.11008453 26.2326606 -13.14903172 22.7728131 -13.1875 19.3125 C-13.21263672 18.11431641 -13.23777344 16.91613281 -13.26367188 15.68164062 C-13.27333984 14.52470703 -13.28300781 13.36777344 -13.29296875 12.17578125 C-13.3086792 11.11270752 -13.32438965 10.04963379 -13.34057617 8.9543457 C-12.95119872 5.57667075 -11.98213013 3.73396213 -10 1 C-6.62055069 -1.56372016 -3.97046734 -1.15805297 0 0 Z " fill="#000000" transform="translate(88,279)"/>
<path d="M0 0 C1.90626189 0.16602007 3.81798819 0.26502452 5.72900391 0.36206055 C8.95947266 1.1706543 8.95947266 1.1706543 11.14697266 3.54956055 C11.74509766 4.60014648 12.34322266 5.65073242 12.95947266 6.7331543 C13.28923096 7.31178223 13.61898926 7.89041016 13.95874023 8.48657227 C15.00079689 10.36222438 15.9881545 12.25748115 16.95947266 14.1706543 C17.43199463 15.099021 17.43199463 15.099021 17.9140625 16.04614258 C32.51713623 45.47412824 34.40468228 80.36065405 23.99023438 111.421875 C19.68474915 123.40318281 13.27459084 134.44888249 5.64697266 144.6081543 C5.23866211 145.15818115 4.83035156 145.70820801 4.40966797 146.27490234 C2.7821466 148.35209838 1.283553 149.98390701 -1.01318359 151.30737305 C-6.18488544 150.95860703 -10.71498815 143.94255968 -14.04052734 140.1706543 C-23.56072424 129.14356729 -32.73414648 116.42642319 -31.97802734 101.2331543 C-30.9113042 93.28790606 -26.64343166 87.03938056 -22.29052734 80.4831543 C-19.61024466 76.30144411 -17.75638924 73.28514014 -18.04052734 68.1706543 C-20.25957539 59.68963505 -25.5667342 54.79840645 -32.94677734 50.46362305 C-33.96771484 49.89256836 -34.98865234 49.32151367 -36.04052734 48.7331543 C-45.85549772 43.17051366 -53.12907912 35.34748761 -56.95849609 24.5925293 C-58.18975338 19.72719746 -58.47738266 15.60948422 -56.32958984 10.98706055 C-51.91658798 4.76873974 -44.70778748 2.23737415 -37.52099609 0.69799805 C-25.08136625 -1.18679435 -12.51313089 -1.11579182 0 0 Z " fill="#000000" transform="translate(245.04052734375,79.829345703125)"/>
<path d="M0 0 C3.13925744 2.50393153 5.91164281 5.28664281 8.75 8.125 C11.21634076 9.87530634 12.45998613 10.11840878 15.5 10.1875 C21.33266264 8.28066798 25.26219749 3.54811545 29.625 -0.625 C35.6405721 -4.95621191 43.34847582 -7.0450939 50.75 -5.875 C58.68485669 -4.10382663 63.28540865 -0.8519919 68.7578125 5.05859375 C71.21966352 7.61216078 73.35521848 9.06884575 76.75 10.125 C81.80636808 9.80854703 84.06475383 8.40022735 87.625 4.875 C95.05090634 -2.13773561 101.02841535 -6.33009963 111.51953125 -6.07421875 C120.19363029 -5.29947435 125.33747716 -2.07616238 131.5234375 3.96875 C135.39822164 7.72117254 138.18530735 10.01370615 143.75 10.125 C147.83319458 8.03803388 150.86467765 5.13594173 154.25 2.0625 C160.79281066 -3.84359419 166.7262259 -6.25232658 175.578125 -6.0859375 C184.09965198 -5.25830718 190.36044106 -0.95876944 196.48828125 4.7421875 C200.35805691 8.31839397 203.60802096 10.06928161 208.734375 11.38671875 C211.11318664 12.25802766 212.22173085 13.10938805 213.75 15.125 C214.50757576 21.94318182 214.50757576 21.94318182 212.1875 25.5625 C207.76227089 28.39918533 203.97814818 28.30327957 198.875 27.5625 C192.05143407 25.58656392 186.69043204 21.05949995 181.5625 16.3125 C179.14728993 14.16033261 177.70174192 13.10666193 174.625 11.9375 C168.84519922 12.31444353 165.34479049 16.46995151 161.25 20.1875 C154.1954936 26.48157038 148.20447621 28.31575866 138.75 28.125 C131.00310626 26.8942878 124.55956829 23.70081418 119.6875 17.5 C117.28864084 14.55946297 115.31258026 13.40752889 111.75 12.125 C107.27971621 11.93063984 105.10182315 13.47012257 101.875 16.3125 C100.49860037 17.58181731 99.12360684 18.85266096 97.75 20.125 C90.64380381 26.34468062 84.66045764 28.51028363 75.1875 28 C65.98432833 26.84800355 61.08843739 22.93073914 54.92578125 16.1484375 C51.63687787 13.08981641 49.25260366 12.07217409 44.75 12.23046875 C41.1366254 13.30789425 39.43272074 14.81066928 36.75 17.4375 C29.63121224 24.12130967 23.93733911 28.03285463 14.0078125 28.16015625 C3.46555755 27.56149634 -2.0975937 23.80800107 -9.171875 16.1484375 C-12.21184004 13.18847154 -14.20135168 12.1866852 -18.4375 11.9375 C-23.35755669 13.46997667 -25.46141371 16.14065509 -28.9375 19.828125 C-34.69955257 25.55124478 -40.72307091 27.85154569 -48.7890625 28.26953125 C-51.98791661 28.08166204 -53.87069484 27.26637464 -56.25 25.125 C-57.8537232 21.91755359 -57.72641504 18.60490119 -57.25 15.125 C-55.75 12.75 -55.75 12.75 -53.25 11.125 C-51.29794653 10.70205508 -49.34562643 10.2801959 -47.390625 9.87109375 C-43.24654058 8.42671396 -40.39519025 5.07975881 -37.25 2.125 C-26.05267456 -7.51957132 -12.29397849 -8.96628506 0 0 Z " fill="#000000" transform="translate(62.25,453.875)"/>
<path d="M0 0 C4.08043173 2.58149762 7.5373733 5.65187235 11.0625 8.9375 C14.98524041 12.57321062 17.63855596 13.84064386 23.0625 13.9375 C26.59881618 12.52297353 28.69828166 10.28671212 31.25 7.5625 C37.52872371 1.22999707 43.61956697 -1.35394302 52.5625 -1.6875 C62.33999807 -1.30387583 68.0614298 1.62194556 74.6875 8.6875 C77.41090254 11.56460427 79.28695533 13.53559916 83.25 14.25 C89.38244369 13.74734068 92.33453049 10.7374492 96.375 6.4375 C102.42409638 0.33591688 108.07403332 -1.29926269 116.625 -1.5625 C127.3930891 -1.20856878 132.17357714 2.64686961 139.86328125 9.9140625 C142.511808 12.35089528 144.25871196 13.83032826 147.875 14.3125 C154.63372947 13.51735536 158.48602512 8.65585119 162.83984375 3.83984375 C167.94714689 -0.53143328 173.44321805 -1.60126001 180 -1.5 C181.05876343 -1.4853772 181.05876343 -1.4853772 182.13891602 -1.47045898 C190.88098151 -1.17221574 194.77811893 1.50862173 200.8125 7.5625 C201.52921875 8.33851563 202.2459375 9.11453125 202.984375 9.9140625 C206.10499726 12.95256312 208.91081235 14.01675744 213.125 14.8125 C215.76775611 15.45719469 216.9445832 15.8380077 219.0625 17.625 C220.52077639 20.99726416 220.57279398 23.30165537 220.0625 26.9375 C218.09339977 29.92291003 216.65257961 31.58067111 213.078125 32.3828125 C205.54397808 32.783565 198.91184652 30.45115913 193.27734375 25.48046875 C191.51837746 23.71137891 189.78809648 21.91310506 188.09375 20.08203125 C185.43764753 17.27779999 184.42628694 17.00246195 180.5625 16.3125 C175.06828954 16.34235984 172.25249847 19.96246303 168.5234375 23.60546875 C161.24018583 30.50721676 154.96329613 32.29217355 145.0859375 32.13671875 C136.74302431 31.58699191 132.31657919 27.78534636 126.359375 22.09375 C122.14984979 18.05074786 122.14984979 18.05074786 116.6875 16.5 C110.76992706 17.21418984 107.56267943 20.3594634 103.5625 24.5 C98.19974388 30.02849251 92.4504619 32.05632317 84.875 32.1875 C72.45916997 32.02217603 66.45543222 26.33043222 58.0625 17.9375 C54.80202371 16.30726186 52.68448965 16.4701465 49.0625 16.9375 C46.11569594 18.97261817 43.64857053 21.47010193 41.0625 23.9375 C33.66895463 30.10574972 27.90820819 32.46740538 18.15234375 32.23828125 C9.22982817 31.36971779 3.92367515 27.46277666 -2.02734375 20.9609375 C-4.83405588 17.98777414 -6.54649702 16.99714452 -10.625 16.375 C-16.25346418 16.50876606 -19.10933248 20.22104943 -22.9375 23.9375 C-29.49051352 29.41483017 -35.06906377 32.51889829 -43.8125 32.23828125 C-47.33315365 31.73995344 -48.80036539 30.76403288 -50.9375 27.9375 C-51.63675964 24.7879421 -51.64496167 22.0862843 -50.9375 18.9375 C-47.80751523 15.12283106 -44.50493877 14.53677259 -39.921875 13.5546875 C-35.54098133 12.19212608 -32.59810197 8.65025476 -29.5625 5.375 C-21.66458186 -1.95878113 -10.29368639 -3.79490742 0 0 Z " fill="#000000" transform="translate(55.9375,412.0625)"/>
<path d="M0 0 C4.29 -0.144375 8.58 -0.28875 13 -0.4375 C15.00513672 -0.53309204 15.00513672 -0.53309204 17.05078125 -0.63061523 C22.75844848 -0.7233221 26.97161827 -0.76582215 31.43359375 3.0625 C32.65396887 4.3456957 33.84362952 5.65883858 35 7 C36.19756779 8.22947486 37.39677244 9.45735759 38.59765625 10.68359375 C39.75705841 11.93076985 40.91196678 13.18213754 42.0625 14.4375 C42.67029297 15.09492188 43.27808594 15.75234375 43.90429688 16.4296875 C47.50583786 20.33683722 51.08629106 24.2608634 54.5390625 28.30078125 C55.57436221 29.50494001 56.63442002 30.68801258 57.7109375 31.85546875 C58.53464844 32.76232422 58.53464844 32.76232422 59.375 33.6875 C59.85710937 34.20699219 60.33921875 34.72648437 60.8359375 35.26171875 C62 37 62 37 63 42 C42.21 42 21.42 42 0 42 C0 28.14 0 14.28 0 0 Z " fill="#000000" transform="translate(444,354)"/>
<path d="M0 0 C20.79 0 41.58 0 63 0 C63 13.86 63 27.72 63 42 C61 41 61 41 60.140625 38.77734375 C59.84671875 37.84019531 59.5528125 36.90304687 59.25 35.9375 C56.39013247 27.83103726 52.54535037 22.42910459 45.125 18.0078125 C37.19207854 14.24550784 28.66283065 13.65134209 20.11328125 15.6875 C11.29685057 18.92784206 6.17169967 24.39455931 1 32 C0.67 32 0.34 32 0 32 C0 21.44 0 10.88 0 0 Z " fill="#000000" transform="translate(444,411)"/>
<path d="M0 0 C4.29180708 2.24853371 6.78246547 5.00282491 8.859375 9.31640625 C10.43264248 15.40515572 10.31310151 20.16041875 7.09375 25.62890625 C3.89366408 30.00370725 0.11092853 32.20550069 -5.140625 33.31640625 C-10.87561919 33.50512635 -15.2252167 32.4078476 -19.69921875 28.75390625 C-23.42732083 25.03590742 -24.32415834 21.42473663 -24.515625 16.31640625 C-24.33360921 11.25788398 -23.4020853 7.53565263 -19.67578125 3.87890625 C-13.82007655 -1.16072225 -7.52526701 -2.40314184 0 0 Z M-12.015625 11.37890625 C-13.78844683 14.4320994 -12.83297806 16.98052333 -12.140625 20.31640625 C-10.160625 20.97640625 -8.180625 21.63640625 -6.140625 22.31640625 C-3.474117 20.1505178 -3.474117 20.1505178 -1.140625 17.31640625 C-0.96284188 14.62012046 -0.96284188 14.62012046 -2.140625 12.31640625 C-5.70369933 9.94102336 -8.15680383 9.19224092 -12.015625 11.37890625 Z " fill="#000000" transform="translate(345.140625,440.68359375)"/>
<path d="M0 0 C3.99171045 3.60227528 7.13634528 6.77052555 7.80078125 12.29296875 C7.99790343 18.15475989 7.04507996 22.51717183 3.5625 27.3125 C-0.94696975 31.40248419 -5.47261432 32.54542423 -11.4375 32.3125 C-17.24907457 31.30685413 -20.62394483 28.61674839 -24.30859375 24.12890625 C-26.79713026 20.12485961 -26.82219552 15.9288462 -26.4375 11.3125 C-24.62412342 6.03991048 -22.20486416 2.36850267 -17.4375 -0.6875 C-11.62364524 -2.62545159 -5.51641224 -2.70805692 0 0 Z M-14.375 11 C-15.62620248 13.27667073 -15.62620248 13.27667073 -15.375 15.875 C-14.22190496 18.87304711 -13.34581286 19.93913004 -10.4375 21.3125 C-7.29990027 20.49074769 -5.73494125 19.60994125 -3.4375 17.3125 C-3.07726378 14.50265752 -3.05417398 12.93008081 -4.5625 10.5 C-8.03555034 8.30040145 -11.26225348 8.28889819 -14.375 11 Z " fill="#000000" transform="translate(389.4375,441.6875)"/>
<path d="M0 0 C4.40045992 3.0384128 7.18430028 6.64999266 8.625 11.8125 C9.07188145 17.44320621 8.84528305 20.98207542 5.625 25.8125 C1.49090539 29.85472584 -2.38032171 32.82037905 -8.35546875 32.80859375 C-14.32542488 32.28216235 -18.16996202 30.35346953 -22.125 25.8125 C-25.72808218 21.00839042 -26.0730899 16.6396115 -25.375 10.8125 C-23.63946227 5.97374536 -20.62864635 2.64826423 -16.375 -0.1875 C-10.93882947 -1.99955684 -5.39284814 -1.8974836 0 0 Z M-13.3125 11.5 C-14.56370248 13.77667073 -14.56370248 13.77667073 -14.3125 16.375 C-13.15940496 19.37304711 -12.28331286 20.43913004 -9.375 21.8125 C-6.23740027 20.99074769 -4.67244125 20.10994125 -2.375 17.8125 C-2.72763785 13.30932877 -2.72763785 13.30932877 -5.375 9.8125 C-9.73264206 9.2558159 -9.73264206 9.2558159 -13.3125 11.5 Z " fill="#000000" transform="translate(482.375,441.1875)"/>
<path d="M0 0 C11.55 0 23.1 0 35 0 C35 9.9 35 19.8 35 30 C29.39 30 23.78 30 18 30 C17.443125 27.0609375 17.443125 27.0609375 16.875 24.0625 C14.50972811 13.97724348 10.12932395 8.28031014 1.7578125 2.3125 C1.17773438 1.879375 0.59765625 1.44625 0 1 C0 0.67 0 0.34 0 0 Z " fill="#000000" transform="translate(394,427)"/>
<path d="M0 0 C0.83402344 -0.0309375 1.66804688 -0.061875 2.52734375 -0.09375 C6.10188915 0.74343166 7.67862174 2.80481027 10.0625 5.5 C9.67392822 6.09538574 9.28535645 6.69077148 8.88500977 7.30419922 C7.13057644 9.99375259 5.37776909 12.68436179 3.625 15.375 C2.70750977 16.78072266 2.70750977 16.78072266 1.77148438 18.21484375 C1.18818359 19.11074219 0.60488281 20.00664062 0.00390625 20.9296875 C-0.53548584 21.75710449 -1.07487793 22.58452148 -1.63061523 23.43701172 C-2.95491396 25.45077576 -2.95491396 25.45077576 -3.9375 27.5 C-4.5975 27.5 -5.2575 27.5 -5.9375 27.5 C-13.0890748 15.92125984 -13.0890748 15.92125984 -11.9375 8.5 C-9.48499602 2.98186605 -6.1153621 0.07538197 0 0 Z " fill="#000000" transform="translate(312.9375,152.5)"/>
<path d="M0 0 C6.04566266 3.4878823 8.25787123 8.75134374 11 15 C5.41815526 16.1069877 -0.14287422 16.36255306 -5.8125 16.625 C-6.77865234 16.6765625 -7.74480469 16.728125 -8.74023438 16.78125 C-9.65740234 16.82507813 -10.57457031 16.86890625 -11.51953125 16.9140625 C-12.35589111 16.9548291 -13.19225098 16.9955957 -14.05395508 17.03759766 C-16 17 -16 17 -17 16 C-17.40256562 11.24972565 -17.46650379 8.89968588 -15.25 4.625 C-10.99618662 -0.33778228 -6.29083301 -1.01924646 0 0 Z " fill="#000000" transform="translate(444,80)"/>
<path d="M0 0 C6.27 0 12.54 0 19 0 C16.43682009 2.56317991 14.36020804 4.51864245 11.5625 6.625 C5.92288622 11.38115497 3.63993529 18.29862581 1 25 C0.67 25 0.34 25 0 25 C0 16.75 0 8.5 0 0 Z " fill="#000000" transform="translate(305,427)"/>
<path d="M0 0 C4.62 0 9.24 0 14 0 C9.375 4.875 9.375 4.875 6 6 C2.8125 4.1875 2.8125 4.1875 0 2 C0 1.34 0 0.68 0 0 Z " fill="#000000" transform="translate(352,427)"/>
</svg>
