<?xml version="1.0" encoding="UTF-8"?>
<svg version="1.1" xmlns="http://www.w3.org/2000/svg" width="512" height="512">
<path d="M0 0 C1.62594086 -0.00087616 1.62594086 -0.00087616 3.284729 -0.00177002 C6.83981217 0.00099936 10.39403932 0.0320383 13.94897461 0.06347656 C16.42475425 0.070943 18.90053983 0.07663403 21.37632751 0.08062744 C27.87178044 0.0958519 34.36687187 0.13510677 40.86218262 0.17944336 C47.49849215 0.22046464 54.13483728 0.23865308 60.77124023 0.25878906 C73.77725325 0.30160366 86.78301651 0.36904066 99.78881836 0.45410156 C99.31323486 1.6080542 98.83765137 2.76200684 98.34765625 3.95092773 C97.71475387 5.48713842 97.08186047 7.02335281 96.44897461 8.55957031 C95.98038025 9.69646301 95.98038025 9.69646301 95.50231934 10.85632324 C94.11026301 14.23572914 92.72310764 17.61657975 91.3527832 21.00488281 C89.02107186 26.72146685 87.28463701 29.58671792 81.78881836 32.45410156 C79.01078036 34.84896191 77.99129849 36.74131883 77.55053711 40.46972656 C77.35444215 46.37321694 78.18584594 49.71334838 81.78881836 54.45410156 C86.28841983 57.23757336 89.71824585 57.83536388 94.96826172 57.8581543 C95.66015091 57.86501755 96.3520401 57.8718808 97.06489563 57.87895203 C99.33636398 57.89715022 101.60713699 57.89339278 103.87866211 57.88769531 C105.46757734 57.89226055 107.05649059 57.89756715 108.645401 57.90357971 C111.96989989 57.91249713 115.29415839 57.91010351 118.61865234 57.90014648 C122.86670478 57.88865949 127.11392562 57.90887043 131.36186886 57.93806362 C134.64170044 57.95646149 137.92133404 57.95612606 141.2012043 57.9504261 C142.76681243 57.95027332 144.33243434 57.95628199 145.89799309 57.96871758 C148.09251057 57.98369447 150.28550862 57.97290396 152.47998047 57.95581055 C153.72541122 57.95564438 154.97084198 57.95547821 156.25401306 57.95530701 C160.71844571 57.32228828 163.05882476 55.96808577 166.78881836 53.45410156 C170.34690179 48.6334724 170.55810674 43.25873209 169.78881836 37.45410156 C169.12881836 36.46410156 168.46881836 35.47410156 167.78881836 34.45410156 C168.10315047 29.42741042 169.43911696 25.42344464 171.51147461 20.86425781 C172.31875 19.07084961 172.31875 19.07084961 173.14233398 17.24121094 C173.71180132 15.99958543 174.2814652 14.75805004 174.85131836 13.51660156 C175.42570436 12.24809156 175.99927975 10.97921418 176.57202148 9.70996094 C177.96970077 6.62097227 179.37549415 3.53595559 180.78881836 0.45410156 C190.95089453 0.36123279 201.11286897 0.29025106 211.27528381 0.24685287 C215.99462931 0.22601901 220.71368347 0.19777851 225.43286133 0.15234375 C229.99107712 0.10873561 234.5490135 0.08493288 239.10742188 0.07459259 C240.84249263 0.067228 242.57754889 0.05284673 244.3125 0.03118134 C246.75155127 0.00194744 249.18946255 -0.00184625 251.62866211 0 C252.69358131 -0.02157166 252.69358131 -0.02157166 253.78001404 -0.0435791 C260.49020729 0.01102532 265.42940488 2.47877865 270.47631836 6.70410156 C275.74067977 12.96442324 278.9097512 18.27189122 278.92303944 26.57373905 C278.92749728 27.86240157 278.93195512 29.15106409 278.93654805 30.47877699 C278.93645875 31.91725291 278.93626889 33.35572882 278.93598938 34.79420471 C278.9392879 36.31584404 278.94301344 37.8374825 278.94713086 39.35911983 C278.95716059 43.55161928 278.96086922 47.74410441 278.96352017 51.93661416 C278.9674204 56.4541835 278.97699901 60.97174149 278.98573303 65.48930359 C279.00550654 76.40551013 279.01556528 87.32171762 279.02446082 98.2379376 C279.02884272 103.37752255 279.03420982 108.51710647 279.03944969 113.6566906 C279.05646369 130.74059237 279.0709577 147.8244935 279.07819843 164.90840244 C279.08010836 169.3429877 279.08202869 173.77757296 279.08398438 178.2121582 C279.08446812 179.31436606 279.08495186 180.41657392 279.08545025 181.55218201 C279.0937499 199.4058138 279.11908496 217.25937857 279.15156505 235.11298109 C279.18463413 253.43966682 279.2026471 271.76631849 279.20584267 290.09303421 C279.20800803 300.38406683 279.21676031 310.67500177 279.24230385 320.96600533 C279.26400885 329.73085279 279.27206228 338.49557884 279.26233707 347.26045013 C279.25779165 351.73156809 279.2596926 356.20243552 279.27909851 360.67351913 C279.29672595 364.77028516 279.29573599 368.86661783 279.28020122 372.96338844 C279.27782449 374.44193785 279.28215216 375.92051724 279.29402987 377.39902086 C279.37064821 387.56991619 278.69183491 396.47897481 271.66381836 404.32910156 C264.40161635 410.88460956 255.90674083 412.04525087 246.46578979 411.95530701 C245.36849804 411.9608414 244.27120629 411.9663758 243.14066327 411.97207791 C239.48652583 411.98562392 235.83307858 411.97074744 232.17895508 411.95581055 C229.55009675 411.95959585 226.92124042 411.96509763 224.29238892 411.97218323 C217.90750239 411.98607574 211.52281439 411.97858963 205.13793741 411.96350764 C197.6961555 411.94660156 190.2544224 411.94986351 182.81262721 411.95360173 C169.53235275 411.95947279 156.25217327 411.94533731 142.97192383 411.9206543 C130.09623659 411.89672604 117.22067619 411.88965477 104.3449707 411.90014648 C90.30851236 411.91156362 76.27211259 411.91347668 62.23565495 411.89904839 C60.73817961 411.89752261 59.24070426 411.89600226 57.74322891 411.89448738 C56.63816995 411.89335066 56.63816995 411.89335066 55.51078656 411.89219097 C50.32768667 411.88745505 45.144613 411.8892946 39.96151352 411.89355278 C32.98304976 411.89900241 26.00476443 411.88820753 19.02633286 411.86659813 C16.46572461 411.86103485 13.90509948 411.86056073 11.34449005 411.86555099 C7.84875867 411.87150925 4.3535628 411.85898745 0.85787964 411.84178162 C-0.15477058 411.84779166 -1.16742079 411.85380171 -2.21075737 411.85999388 C-11.22792307 411.77931602 -17.74264041 409.63287449 -24.44946289 403.42675781 C-29.36360164 397.92422994 -31.33373428 391.62013648 -31.34540272 384.35008144 C-31.34986056 383.06490232 -31.35431841 381.77972319 -31.35891134 380.45559925 C-31.35882203 379.02105358 -31.35863217 377.58650792 -31.35835266 376.15196228 C-31.36165119 374.63444775 -31.36537673 373.11693409 -31.36949414 371.59942156 C-31.37952378 367.41832368 -31.38323249 363.23724016 -31.38588345 359.05613196 C-31.38978371 354.55083265 -31.39936231 350.04554473 -31.40809631 345.54025269 C-31.42786975 334.653709 -31.43792855 323.76716437 -31.4468241 312.88060722 C-31.45120601 307.75496904 -31.45657311 302.62933189 -31.46181297 297.50369453 C-31.47882697 280.46611591 -31.49332098 263.42853793 -31.50056171 246.39095211 C-31.50247164 241.9683984 -31.50439197 237.5458447 -31.50634766 233.12329102 C-31.5068314 232.02407377 -31.50731514 230.92485653 -31.50781354 229.79232968 C-31.51611316 211.98719675 -31.54144818 194.18213103 -31.57392833 176.37702744 C-31.60699759 158.10006226 -31.6250104 139.82313122 -31.62820596 121.54613596 C-31.63037129 111.2830489 -31.63912334 101.02005979 -31.66466713 90.75700188 C-31.68637237 82.01594289 -31.69442544 73.27500566 -31.68470035 64.53392278 C-31.680155 60.07495617 -31.68205547 55.61624076 -31.70146179 51.15730858 C-31.71908974 47.0716447 -31.71809887 42.98641536 -31.7025645 38.90074689 C-31.70018784 37.42623512 -31.70451504 35.95169329 -31.71639315 34.47722744 C-31.7942706 24.1677301 -31.03837505 15.54914944 -24.02368164 7.57910156 C-17.3863937 0.89140384 -8.96404937 -0.12819828 0 0 Z M14.78881836 83.45410156 C11.69392142 88.56049299 11.36518948 93.08552058 11.44824219 98.86791992 C11.44780411 99.67848846 11.44736603 100.48905701 11.44691467 101.32418823 C11.44899071 103.98102617 11.47226509 106.63721876 11.49584961 109.29394531 C11.50144979 111.14481766 11.5057179 112.99569448 11.50871277 114.84657288 C11.5201283 119.70130849 11.54956699 124.55577182 11.58282471 129.41040039 C11.61359674 134.37089353 11.62723332 139.33143097 11.64233398 144.29199219 C11.67443997 154.01281448 11.7255963 163.73343531 11.78881836 173.45410156 C12.89933962 172.50510895 14.00944789 171.55563306 15.11938477 170.60595703 C15.73762115 170.0772702 16.35585754 169.54858337 16.99282837 169.00387573 C26.83300144 160.51271145 36.1692158 151.41167166 45.62182617 142.49609375 C51.01234998 137.41651499 56.41890718 132.35399847 61.82592773 127.29199219 C63.14526916 126.05666853 64.46427432 124.82098565 65.78295898 123.58496094 C68.97197225 120.59623898 72.16523308 117.61251427 75.37084961 114.64160156 C77.52104018 112.64742983 79.64263363 110.63068619 81.73803711 108.57910156 C83.03161133 107.34160156 83.03161133 107.34160156 84.35131836 106.07910156 C85.07448242 105.37011719 85.79764648 104.66113281 86.54272461 103.93066406 C89.5534902 101.95141295 91.22814584 102.047794 94.78881836 102.45410156 C97.29464722 104.23840332 97.29464722 104.23840332 99.78442383 106.76855469 C100.2437178 107.2269725 100.70301178 107.68539032 101.17622375 108.15769958 C102.68415297 109.66979431 104.16973963 111.20198406 105.65600586 112.73535156 C106.69986569 113.79040721 107.7450621 114.84414199 108.79153442 115.89660645 C111.53725478 118.66519452 114.26447884 121.45132498 116.98822021 124.24151611 C119.77276969 127.08753199 122.57446267 129.91655907 125.37475586 132.74707031 C130.86301705 138.29960777 136.33184656 143.87079196 141.78881836 149.45410156 C150.25266084 144.88797995 150.25266084 144.88797995 158.54272461 140.01660156 C159.97841797 139.13875 159.97841797 139.13875 161.44311523 138.24316406 C162.40282227 137.65277344 163.3625293 137.06238281 164.35131836 136.45410156 C167.23416067 134.68775805 170.11724288 132.92221864 173.00805664 131.16894531 C174.86384191 130.02451724 176.70119637 128.84965725 178.51879883 127.64550781 C184.88154468 123.52192472 184.88154468 123.52192472 188.97631836 123.21582031 C192.8923489 124.93996154 195.66643807 127.37813212 198.78881836 130.26660156 C200.1190777 131.45853237 201.44981787 132.64992673 202.78100586 133.84082031 C203.44970703 134.44587402 204.1184082 135.05092773 204.80737305 135.67431641 C207.79872105 138.36122214 210.85346579 140.9714001 213.91381836 143.57910156 C215.05577812 144.55562585 216.1977053 145.53218824 217.33959961 146.50878906 C217.90243652 146.98928711 218.46527344 147.46978516 219.04516602 147.96484375 C220.24615327 148.99060996 221.44629997 150.01736086 222.64575195 151.04492188 C224.46215339 152.60048485 226.28135167 154.15271248 228.10131836 155.70410156 C228.65899902 156.18250488 229.21667969 156.6609082 229.79125977 157.15380859 C232.00682189 159.44669766 232.00682189 159.44669766 234.78881836 160.45410156 C234.90472424 150.89215572 234.99353934 141.33045207 235.04787922 131.76795673 C235.07396126 127.32755514 235.10933318 122.88763454 235.16601562 118.44750977 C235.22038615 114.1616106 235.25024938 109.87617373 235.26320457 105.58995628 C235.27243551 103.95564687 235.29046191 102.32136246 235.31746864 100.68725014 C235.35382851 98.39584534 235.35876119 96.10634464 235.35644531 93.81469727 C235.3730999 91.85944878 235.3730999 91.85944878 235.39009094 89.86470032 C234.62938383 85.54974101 233.2139097 84.10691614 229.78881836 81.45410156 C225.89119278 79.99087213 221.71490621 80.30908426 217.61027527 80.31365967 C216.77875185 80.31068855 215.94722843 80.30771742 215.09050733 80.30465627 C212.30007415 80.29597439 209.5096839 80.29446145 206.71923828 80.29296875 C204.72017831 80.28834024 202.72111922 80.28331554 200.72206116 80.27792358 C195.28811735 80.26480139 189.8541859 80.25835506 184.42022872 80.25391293 C181.025734 80.25098213 177.63124267 80.24687732 174.23674965 80.24240875 C163.61729644 80.22873478 152.99785094 80.21906743 142.37838954 80.21520686 C130.11749115 80.21072513 117.85670418 80.1931714 105.59583968 80.16420627 C96.11971724 80.14259637 86.64362616 80.13250296 77.16747934 80.13116574 C71.50715465 80.13011729 65.84693473 80.12420081 60.18663597 80.10634613 C54.86213258 80.08987732 49.53781284 80.08770422 44.21329308 80.09648514 C42.26019296 80.09725613 40.30708301 80.09290468 38.35400772 80.08302689 C35.68522385 80.07032198 33.01709185 80.07617624 30.34831238 80.08660889 C29.19235975 80.07452428 29.19235975 80.07452428 28.01305455 80.06219554 C22.90444893 80.10881747 19.30430457 81.00279227 14.78881836 83.45410156 Z M88.34741211 117.83300781 C87.30539505 118.89258317 86.26514289 119.95389601 85.22631836 121.01660156 C81.16696751 125.12882732 77.05044904 129.06610189 72.64819336 132.81347656 C69.89661431 135.24134043 67.36235762 137.87160075 64.78881836 140.48535156 C62.22576608 143.00835615 59.51536012 145.32972974 56.78881836 147.67285156 C54.70544758 149.52835366 52.74600629 151.46633257 50.78881836 153.45410156 C47.58852314 156.70440139 44.2465726 159.70134401 40.78881836 162.67285156 C38.70544758 164.52835366 36.74600629 166.46633257 34.78881836 168.45410156 C31.5949437 171.69788051 28.26159309 174.69047827 24.80834961 177.65332031 C21.92349172 180.22569843 19.23876039 182.97941496 16.55053711 185.75488281 C14.78881836 187.45410156 14.78881836 187.45410156 11.78881836 189.45410156 C11.32063401 192.44280786 11.32063401 192.44280786 11.39038086 195.96582031 C11.38651367 197.28130859 11.38264648 198.59679687 11.37866211 199.95214844 C11.38494629 200.64042725 11.39123047 201.32870605 11.39770508 202.0378418 C11.41362786 204.11673046 11.39793565 206.19363641 11.37866211 208.27246094 C11.38064705 209.60775163 11.38449589 210.94304111 11.39038086 212.27832031 C11.39376465 213.48576904 11.39714844 214.69321777 11.40063477 215.93725586 C11.93997836 220.8235731 12.92651901 224.95380459 16.87195683 228.13230991 C20.68498729 229.86020538 24.14059545 229.87298955 28.24620056 229.84178162 C29.09561818 229.84716715 29.9450358 229.85255269 30.82019335 229.85810143 C33.66526994 229.8724042 36.50988278 229.86527157 39.35498047 229.8581543 C41.3952217 229.86385664 43.43545975 229.87082038 45.47569275 229.87895203 C51.01699103 229.89691337 56.55813121 229.89570944 62.09944987 229.89000964 C66.72434272 229.88692213 71.349205 229.89300537 75.9740935 229.89904839 C86.88395921 229.91310176 97.79374664 229.91152553 108.70361328 229.90014648 C119.96161798 229.88866387 131.2193845 229.90274162 142.4773578 229.92954296 C152.14118375 229.95168846 161.80493487 229.95833994 171.46878439 229.95246655 C177.24141839 229.9490931 183.01389969 229.95153789 188.78651237 229.96871758 C194.21451034 229.98416624 199.64215503 229.98025407 205.07013893 229.96141243 C207.06235562 229.95772083 209.05459836 229.96085159 211.04679108 229.97129822 C213.76642047 229.98447066 216.48487387 229.97299399 219.20445251 229.95530701 C220.38709691 229.96971452 220.38709691 229.96971452 221.59363312 229.98441309 C226.75071955 229.91540229 229.69025063 228.85122947 233.78881836 225.45410156 C236.75784295 219.51605237 235.44516772 210.40384409 235.57836914 203.88183594 C235.63489301 201.69710768 235.71653701 199.51287095 235.82446289 197.33007812 C236.92193456 184.1402036 236.92193456 184.1402036 232.02172852 172.42553711 C229.39066558 169.78007098 226.54133723 167.59301113 223.42660522 165.54818726 C220.93872712 163.88621774 218.69637143 161.94624634 216.41381836 160.01660156 C215.53467773 159.31019531 214.65553711 158.60378906 213.74975586 157.87597656 C208.86385963 153.87959706 204.12509057 149.71424473 199.36694336 145.56738281 C198.7759082 145.05900879 198.18487305 144.55063477 197.57592773 144.02685547 C196.34375089 142.94247252 195.13776888 141.82783911 193.95483398 140.68994141 C193.06054688 139.85197021 193.06054688 139.85197021 192.14819336 138.99707031 C191.62193359 138.4855542 191.09567383 137.97403809 190.5534668 137.44702148 C188.77810479 136.2364846 188.77810479 136.2364846 186.40185547 136.61083984 C183.49415438 137.54919354 181.21587813 138.79031088 178.62084961 140.40332031 C177.15615234 141.3053418 177.15615234 141.3053418 175.66186523 142.22558594 C174.14689453 143.17401367 174.14689453 143.17401367 172.60131836 144.14160156 C170.6079963 145.37494527 168.61450803 146.60802039 166.62084961 147.84082031 C165.1699292 148.7426001 165.1699292 148.7426001 163.68969727 149.66259766 C159.4149535 152.30256313 155.10546492 154.88338065 150.78881836 157.45410156 C152.35932432 161.29552688 154.7903586 163.62831681 157.76147461 166.48144531 C158.75328049 167.44796579 159.74480856 168.41477142 160.73608398 169.38183594 C162.29488479 170.89097931 163.85668324 172.39673822 165.42382812 173.8972168 C166.94108365 175.35394415 168.44555374 176.82296277 169.94897461 178.29394531 C171.30454468 179.59900024 171.30454468 179.59900024 172.6875 180.93041992 C174.90899417 183.59843261 175.6830598 185.00466329 175.78881836 188.45410156 C173.78881836 191.45410156 173.78881836 191.45410156 170.66381836 192.11035156 C165.02379677 191.15518662 162.57740872 188.04752103 158.78881836 183.95410156 C158.11592773 183.25800781 157.44303711 182.56191406 156.74975586 181.84472656 C154.23894508 179.22727903 151.75998981 176.59413229 149.40731812 173.83239746 C143.84965822 167.33424933 137.81309291 161.33305364 131.76538086 155.29785156 C130.61178244 154.14357838 129.4583324 152.98915688 128.30502319 151.83459473 C125.90459342 149.43270021 123.50238793 147.03260018 121.09887695 144.63378906 C118.01182381 141.55247775 114.9293427 138.4666375 111.84813881 135.37947845 C109.47544249 133.00318168 107.100386 130.62925544 104.7245903 128.25605774 C103.58590592 127.11804173 102.44796748 125.97927885 101.31077957 124.83976746 C99.73115081 123.25761583 98.14838176 121.67867642 96.56469727 120.10058594 C95.21403671 118.75111877 95.21403671 118.75111877 93.83609009 117.37438965 C91.12894761 114.73960012 91.12894761 114.73960012 88.34741211 117.83300781 Z M44.78881836 259.45410156 C44.28866882 261.9966862 44.28866882 261.9966862 44.78881836 264.45410156 C47.52641668 267.19169988 49.028312 266.70551315 52.86230469 266.70806885 C54.15794342 266.7137085 55.45358215 266.71934814 56.78848267 266.72515869 C58.23260553 266.72126972 59.67672786 266.71717335 61.12084961 266.71289062 C62.63512338 266.71559938 64.14939583 266.71915966 65.66366577 266.72351074 C69.78341764 266.7326508 73.90306966 266.72908387 78.02282333 266.72275257 C82.32739284 266.71770092 86.63195361 266.72238169 90.93652344 266.7255249 C98.16627543 266.72916699 105.39598662 266.7243591 112.62573242 266.71484375 C120.99295606 266.70395873 129.36008223 266.70748414 137.7273035 266.71849656 C144.90184649 266.72756254 152.07636008 266.7288581 159.25090694 266.72361922 C163.54005977 266.72049572 167.82916674 266.72010057 172.11831665 266.7266922 C176.15004683 266.73245504 180.18165095 266.72848837 184.21336746 266.71690369 C185.69607966 266.71425139 187.17880241 266.71503185 188.66151047 266.71942902 C190.67944722 266.72486325 192.69740707 266.71685246 194.71533203 266.70806885 C195.84653976 266.7073148 196.9777475 266.70656075 198.14323425 266.70578384 C200.94491131 266.72264979 200.94491131 266.72264979 202.78881836 264.45410156 C203.28896789 261.9966862 203.28896789 261.9966862 202.78881836 259.45410156 C199.58876847 256.25951428 197.05688472 256.07770347 192.64013672 256.07315063 C191.37829559 256.06469116 190.11645447 256.05623169 188.81637573 256.04751587 C187.4204699 256.05334862 186.02456534 256.05949311 184.62866211 256.06591797 C183.15674449 256.06185232 181.68482992 256.05651047 180.21292114 256.04998779 C176.21707303 256.03630749 172.2214572 256.04161571 168.22560501 256.05112505 C164.04476544 256.05871797 159.86394582 256.05167706 155.68310547 256.04696655 C148.66199165 256.04150793 141.64097249 256.0487034 134.61987305 256.06298828 C126.50140389 256.07931503 118.38316075 256.0740266 110.26469707 256.05750906 C103.29558979 256.04389723 96.32655056 256.04197304 89.35743427 256.04982507 C85.19454048 256.05450327 81.03175294 256.05512245 76.86886597 256.04521561 C72.95523366 256.03655259 69.04189288 256.04255548 65.12829208 256.05989838 C63.69157266 256.0638668 62.25482873 256.06272306 60.81811905 256.05611038 C58.85792158 256.04791976 56.89767053 256.06000951 54.9375 256.07315063 C53.2915963 256.07484725 53.2915963 256.07484725 51.61244202 256.07657814 C48.43606475 256.50126534 47.04285932 257.20390833 44.78881836 259.45410156 Z M65.78881836 281.45410156 C65.70857178 284.05299939 65.70857178 284.05299939 66.78881836 286.45410156 C69.65419145 288.2837721 71.89561957 288.70584479 75.26036072 288.71479797 C76.15053391 288.72188278 77.04070709 288.72896759 77.95785522 288.73626709 C79.41126816 288.73255096 79.41126816 288.73255096 80.89404297 288.72875977 C81.92047409 288.7338707 82.94690521 288.73898163 84.00444031 288.74424744 C87.40007342 288.75815643 90.79550388 288.75718569 94.19116211 288.75488281 C96.55001399 288.75876894 98.90886518 288.76310343 101.26771545 288.76786804 C106.21316801 288.77533301 111.15854918 288.77503688 116.10400391 288.76977539 C122.44390229 288.76397959 128.78350864 288.78091335 135.12335873 288.80412006 C139.99522106 288.81884597 144.86701287 288.81973066 149.73889351 288.81661034 C152.07648866 288.81712409 154.4140877 288.82237199 156.7516613 288.83242226 C160.01936747 288.84474728 163.28650231 288.83801829 166.55419922 288.82641602 C168.00457581 288.83788162 168.00457581 288.83788162 169.48425293 288.84957886 C174.41918291 288.8108158 177.75892452 288.6530213 181.78881836 285.45410156 C181.51341132 281.63596709 181.51341132 281.63596709 179.78881836 278.45410156 C178.35366185 278.35204561 176.91353295 278.3189192 175.47476196 278.31365967 C174.54375168 278.30794952 173.61274139 278.30223938 172.65351868 278.2963562 C171.62389511 278.29523834 170.59427155 278.29412048 169.53344727 278.29296875 C168.45547379 278.28800385 167.37750031 278.28303894 166.26686096 278.27792358 C162.68302789 278.26325862 159.09923907 278.25649287 155.51538086 278.25097656 C153.03534951 278.24522881 150.55531817 278.23947104 148.07528687 278.23370361 C142.8681416 278.22318136 137.66101183 278.21734667 132.45385742 278.21386719 C127.09734986 278.21009942 121.74097965 278.19600615 116.38452148 278.17285156 C109.93189344 278.14538375 103.47939924 278.13246264 97.02671432 278.13053131 C94.5618618 278.12749609 92.09701032 278.11943854 89.6321907 278.10634613 C86.18896096 278.08936206 82.74623272 278.09114729 79.30297852 278.09765625 C78.27740341 278.08844147 77.25182831 278.07922668 76.19517517 278.06973267 C74.79020027 278.0780864 74.79020027 278.0780864 73.35684204 278.08660889 C72.54235407 278.08514233 71.7278661 278.08367577 70.88869667 278.08216476 C68.26699109 278.54652919 67.35798257 279.33198595 65.78881836 281.45410156 Z M44.78881836 317.45410156 C43.79237625 320.44342788 43.65087171 322.45717101 43.62768555 325.58056641 C43.618078 326.62530121 43.60847046 327.67003601 43.59857178 328.74642944 C43.5943219 329.87457062 43.59007202 331.00271179 43.58569336 332.16503906 C43.57999329 333.32532623 43.57429321 334.4856134 43.56842041 335.68106079 C43.55896913 338.13729947 43.55243592 340.59355084 43.54858398 343.04980469 C43.53887498 346.80719097 43.50785055 350.56403111 43.47631836 354.32128906 C43.46978863 356.70670248 43.46453804 359.09211981 43.46069336 361.47753906 C43.44834656 362.60163177 43.43599976 363.72572449 43.42327881 364.88388062 C43.42627991 365.93491974 43.42928101 366.98595886 43.43237305 368.06884766 C43.42872742 368.99023529 43.42508179 369.91162292 43.42132568 370.8609314 C43.86129887 373.96555202 45.03451947 375.88576481 46.78881836 378.45410156 C50.60695283 378.17869452 50.60695283 378.17869452 53.78881836 376.45410156 C53.89828014 374.65992268 53.93790797 372.86143938 53.94995117 371.06396484 C53.95955872 369.91251984 53.96916626 368.76107483 53.97906494 367.57473755 C53.98543976 365.69357742 53.98543976 365.69357742 53.99194336 363.77441406 C53.99764343 362.49557343 54.00334351 361.21673279 54.00921631 359.8991394 C54.01973495 357.18715008 54.02557177 354.47519046 54.02905273 351.76318359 C54.03453583 348.28710619 54.0585556 344.81142085 54.08702469 341.33546638 C54.11012526 338.02345604 54.11209926 334.71150085 54.11694336 331.39941406 C54.13546356 329.52432663 54.13546356 329.52432663 54.15435791 327.61135864 C54.15135681 326.45360931 54.14835571 325.29585999 54.14526367 324.10302734 C54.1489093 323.08234161 54.15255493 322.06165588 54.15631104 321.01004028 C53.98618846 318.42656188 53.98618846 318.42656188 52.45404053 316.6010437 C49.29337671 314.42409783 47.82035358 315.43307808 44.78881836 317.45410156 Z M67.15292358 316.68992615 C65.48564493 318.84619089 65.40942527 319.91718359 65.40063477 322.6184082 C65.39117828 323.45259781 65.3817218 324.28678741 65.37197876 325.14625549 C65.37805145 326.04319626 65.38412415 326.94013702 65.39038086 327.86425781 C65.38751068 328.78750351 65.3846405 329.71074921 65.38168335 330.66197205 C65.37964224 332.6129518 65.38517537 334.56395199 65.39770508 336.51489258 C65.41377628 339.50876347 65.39784859 342.50128804 65.37866211 345.49511719 C65.38064417 347.38900039 65.38448709 349.28288275 65.39038086 351.17675781 C65.38430817 352.07572281 65.37823547 352.97468781 65.37197876 353.90089417 C65.38143524 354.73193161 65.39089172 355.56296906 65.40063477 356.41918945 C65.40302155 357.1518251 65.40540833 357.88446075 65.40786743 358.63929749 C65.65511687 360.87077411 65.65511687 360.87077411 68.78881836 362.45410156 C71.37999149 362.45253932 71.37999149 362.45253932 73.78881836 361.45410156 C76.51370923 357.77561604 76.0772609 353.48473517 76.05444336 349.11035156 C76.05731354 347.9011908 76.05731354 347.9011908 76.0602417 346.66760254 C76.0616003 344.96638679 76.05792656 343.26516056 76.04956055 341.56396484 C76.03885624 338.96330428 76.04946664 336.36333445 76.06225586 333.76269531 C76.06093421 332.10774587 76.05837169 330.45279687 76.05444336 328.79785156 C76.05849182 328.02171509 76.06254028 327.24557861 76.06671143 326.44592285 C76.056842 321.12084225 76.056842 321.12084225 73.78881836 316.45410156 C70.30810453 315.10093347 70.30810453 315.10093347 67.15292358 316.68992615 Z M88.69482422 316.8894043 C85.89795489 320.65283613 86.23189431 323.91427942 86.29272461 328.48925781 C86.29126938 329.3643248 86.28981415 330.23939178 86.28831482 331.14097595 C86.28997238 332.98765397 86.30151774 334.834346 86.32226562 336.6809082 C86.35125275 339.51019794 86.34286578 342.33761745 86.32983398 345.16699219 C86.33607059 346.96192318 86.34446092 348.75684826 86.35522461 350.55175781 C86.35228897 351.39867691 86.34935333 352.24559601 86.34632874 353.11817932 C86.29390651 357.4541899 86.29390651 357.4541899 88.15391541 361.21263123 C89.78863315 362.73804166 89.78863315 362.73804166 92.35131836 362.26660156 C94.93323108 361.60783124 94.93323108 361.60783124 96.78881836 359.45410156 C97.01349774 356.48795614 97.11700182 353.61801934 97.12475586 350.64941406 C97.13141266 349.77388885 97.13806946 348.89836365 97.14492798 347.99630737 C97.15506368 346.14192814 97.15974472 344.28751237 97.15942383 342.43310547 C97.16379073 339.5970429 97.20008203 336.76254417 97.23803711 333.92675781 C97.24390635 332.12598189 97.24787503 330.32519857 97.24975586 328.52441406 C97.26412689 327.67638214 97.27849792 326.82835022 97.29330444 325.95462036 C97.26484274 321.072183 97.26484274 321.072183 94.88500977 316.88720703 C92.08330218 314.97176055 91.49441192 314.97046107 88.69482422 316.8894043 Z M108.78881836 317.45410156 C107.53566019 321.21357606 107.60709196 324.74691434 107.58569336 328.66503906 C107.57999329 329.47018951 107.57429321 330.27533997 107.56842041 331.10488892 C107.558979 332.80786834 107.55243984 334.51086596 107.54858398 336.21386719 C107.53888035 338.81250029 107.50785052 341.41034159 107.47631836 344.00878906 C107.46978769 345.66503438 107.46453747 347.32128533 107.46069336 348.97753906 C107.44834656 349.75165131 107.43599976 350.52576355 107.42327881 351.32333374 C107.44204856 355.89338996 108.02772196 358.77719597 110.78881836 362.45410156 C114.60695283 362.17869452 114.60695283 362.17869452 117.78881836 360.45410156 C117.91486093 357.38668375 117.9775192 354.34303331 117.99194336 351.27441406 C117.99764343 350.35071014 118.00334351 349.42700623 118.00921631 348.47531128 C118.01868181 346.51659293 118.02520642 344.55785854 118.02905273 342.59912109 C118.03875506 339.59867608 118.06976237 336.59891676 118.10131836 333.59863281 C118.10784838 331.69889731 118.11309886 329.7991569 118.11694336 327.89941406 C118.12929016 326.99933624 118.14163696 326.09925842 118.15435791 325.17190552 C118.15135681 324.33448822 118.14835571 323.49707092 118.14526367 322.63427734 C118.1489093 321.8978299 118.15255493 321.16138245 118.15631104 320.40261841 C117.6795541 317.87476144 116.83472637 316.97602825 114.78881836 315.45410156 C111.60391829 315.17675146 111.60391829 315.17675146 108.78881836 317.45410156 Z M131.15292358 316.68992615 C129.48564493 318.84619089 129.40942527 319.91718359 129.40063477 322.6184082 C129.39117828 323.45259781 129.3817218 324.28678741 129.37197876 325.14625549 C129.37805145 326.04319626 129.38412415 326.94013702 129.39038086 327.86425781 C129.38751068 328.78750351 129.3846405 329.71074921 129.38168335 330.66197205 C129.37964224 332.6129518 129.38517537 334.56395199 129.39770508 336.51489258 C129.41377628 339.50876347 129.39784859 342.50128804 129.37866211 345.49511719 C129.38064417 347.38900039 129.38448709 349.28288275 129.39038086 351.17675781 C129.38430817 352.07572281 129.37823547 352.97468781 129.37197876 353.90089417 C129.38143524 354.73193161 129.39089172 355.56296906 129.40063477 356.41918945 C129.40302155 357.1518251 129.40540833 357.88446075 129.40786743 358.63929749 C129.65511687 360.87077411 129.65511687 360.87077411 132.78881836 362.45410156 C135.37999149 362.45253932 135.37999149 362.45253932 137.78881836 361.45410156 C140.51370923 357.77561604 140.0772609 353.48473517 140.05444336 349.11035156 C140.05731354 347.9011908 140.05731354 347.9011908 140.0602417 346.66760254 C140.0616003 344.96638679 140.05792656 343.26516056 140.04956055 341.56396484 C140.03885624 338.96330428 140.04946664 336.36333445 140.06225586 333.76269531 C140.06093421 332.10774587 140.05837169 330.45279687 140.05444336 328.79785156 C140.05849182 328.02171509 140.06254028 327.24557861 140.06671143 326.44592285 C140.056842 321.12084225 140.056842 321.12084225 137.78881836 316.45410156 C134.30810453 315.10093347 134.30810453 315.10093347 131.15292358 316.68992615 Z M152.69482422 316.8894043 C149.89795489 320.65283613 150.23189431 323.91427942 150.29272461 328.48925781 C150.29126938 329.3643248 150.28981415 330.23939178 150.28831482 331.14097595 C150.28997238 332.98765397 150.30151774 334.834346 150.32226562 336.6809082 C150.35125275 339.51019794 150.34286578 342.33761745 150.32983398 345.16699219 C150.33607059 346.96192318 150.34446092 348.75684826 150.35522461 350.55175781 C150.35228897 351.39867691 150.34935333 352.24559601 150.34632874 353.11817932 C150.29390651 357.4541899 150.29390651 357.4541899 152.15391541 361.21263123 C153.78863315 362.73804166 153.78863315 362.73804166 156.35131836 362.26660156 C158.93323108 361.60783124 158.93323108 361.60783124 160.78881836 359.45410156 C161.01349774 356.48795614 161.11700182 353.61801934 161.12475586 350.64941406 C161.13141266 349.77388885 161.13806946 348.89836365 161.14492798 347.99630737 C161.15506368 346.14192814 161.15974472 344.28751237 161.15942383 342.43310547 C161.16379073 339.5970429 161.20008203 336.76254417 161.23803711 333.92675781 C161.24390635 332.12598189 161.24787503 330.32519857 161.24975586 328.52441406 C161.26412689 327.67638214 161.27849792 326.82835022 161.29330444 325.95462036 C161.26484274 321.072183 161.26484274 321.072183 158.88500977 316.88720703 C156.08330218 314.97176055 155.49441192 314.97046107 152.69482422 316.8894043 Z M172.78881836 317.45410156 C171.53566019 321.21357606 171.60709196 324.74691434 171.58569336 328.66503906 C171.57999329 329.47018951 171.57429321 330.27533997 171.56842041 331.10488892 C171.558979 332.80786834 171.55243984 334.51086596 171.54858398 336.21386719 C171.53888035 338.81250029 171.50785052 341.41034159 171.47631836 344.00878906 C171.46978769 345.66503438 171.46453747 347.32128533 171.46069336 348.97753906 C171.44834656 349.75165131 171.43599976 350.52576355 171.42327881 351.32333374 C171.44204856 355.89338996 172.02772196 358.77719597 174.78881836 362.45410156 C178.60695283 362.17869452 178.60695283 362.17869452 181.78881836 360.45410156 C181.91486093 357.38668375 181.9775192 354.34303331 181.99194336 351.27441406 C181.99764343 350.35071014 182.00334351 349.42700623 182.00921631 348.47531128 C182.01868181 346.51659293 182.02520642 344.55785854 182.02905273 342.59912109 C182.03875506 339.59867608 182.06976237 336.59891676 182.10131836 333.59863281 C182.10784838 331.69889731 182.11309886 329.7991569 182.11694336 327.89941406 C182.12929016 326.99933624 182.14163696 326.09925842 182.15435791 325.17190552 C182.15135681 324.33448822 182.14835571 323.49707092 182.14526367 322.63427734 C182.1489093 321.8978299 182.15255493 321.16138245 182.15631104 320.40261841 C181.6795541 317.87476144 180.83472637 316.97602825 178.78881836 315.45410156 C175.60391829 315.17675146 175.60391829 315.17675146 172.78881836 317.45410156 Z M195.15292358 316.59812927 C193.26797512 319.16274969 193.40806302 320.9199167 193.40063477 324.0871582 C193.39117828 325.24167984 193.3817218 326.39620148 193.37197876 327.58570862 C193.37805145 328.83262985 193.38412415 330.07955109 193.39038086 331.36425781 C193.38751068 332.64264023 193.3846405 333.92102264 193.38168335 335.23814392 C193.37964016 337.94268165 193.38368385 340.64640809 193.39770508 343.35083008 C193.41481458 346.82029111 193.40494414 350.28905683 193.38698769 353.75849247 C193.37355497 357.06460609 193.38295251 360.37063513 193.39038086 363.67675781 C193.38430817 364.92570328 193.37823547 366.17464874 193.37197876 367.46144104 C193.38143524 368.61281052 193.39089172 369.76417999 193.40063477 370.95043945 C193.40302155 371.96731339 193.40540833 372.98418732 193.40786743 374.03187561 C193.53358124 374.83121017 193.65929504 375.63054474 193.78881836 376.45410156 C196.54438419 378.72056507 196.54438419 378.72056507 199.35131836 378.32910156 C201.87568241 377.6982761 201.87568241 377.6982761 202.92498779 375.72790527 C203.93355334 373.0731253 204.04270136 371.03667682 204.04760742 368.19824219 C204.05391174 367.15035522 204.06021606 366.10246826 204.06671143 365.02282715 C204.06266296 363.89671021 204.0586145 362.77059326 204.05444336 361.61035156 C204.05635681 360.44910767 204.05827026 359.28786377 204.0602417 358.09143066 C204.06160232 355.63696069 204.0579145 353.18248348 204.04956055 350.72802734 C204.03885959 346.96858575 204.04946032 343.20962203 204.06225586 339.45019531 C204.06093424 337.06607967 204.05837181 334.68196433 204.05444336 332.29785156 C204.05849182 331.17173462 204.06254028 330.04561768 204.06671143 328.88537598 C204.0604071 327.83748901 204.05410278 326.78960205 204.04760742 325.70996094 C204.04601624 324.7893689 204.04442505 323.86877686 204.04278564 322.92028809 C203.77105177 320.28157654 203.24114508 318.66563275 201.78881836 316.45410156 C198.34082859 315.12628748 198.34082859 315.12628748 195.15292358 316.59812927 Z M65.78881836 371.45410156 C65.37215169 373.95410156 65.37215169 373.95410156 65.78881836 376.45410156 C68.55869912 378.76953363 68.55869912 378.76953363 71.41381836 378.14160156 C73.72383801 377.67995016 73.72383801 377.67995016 74.78881836 376.45410156 C75.03889566 373.99600158 75.03889566 373.99600158 74.78881836 371.45410156 C72.96178609 369.20491077 72.96178609 369.20491077 70.28881836 369.20410156 C67.61585063 369.20491077 67.61585063 369.20491077 65.78881836 371.45410156 Z M88.78881836 369.45410156 C86.52443436 372.14565357 86.52443436 372.14565357 87.03881836 374.51660156 C87.71414554 376.64887131 87.71414554 376.64887131 89.78881836 378.45410156 C93.08596628 378.12438677 94.41150226 377.83141766 96.78881836 375.45410156 C96.49898567 372.1472669 96.49898567 372.1472669 94.78881836 369.45410156 C91.83077263 369.12069686 91.83077263 369.12069686 88.78881836 369.45410156 Z M108.78881836 371.45410156 C108.45548503 373.95410156 108.45548503 373.95410156 108.78881836 376.45410156 C109.44881836 377.11410156 110.10881836 377.77410156 110.78881836 378.45410156 C113.88808655 378.1321119 113.88808655 378.1321119 116.78881836 377.45410156 C117.4668287 374.55336975 117.4668287 374.55336975 117.78881836 371.45410156 C115.96178609 369.20491077 115.96178609 369.20491077 113.28881836 369.20410156 C110.61585063 369.20491077 110.61585063 369.20491077 108.78881836 371.45410156 Z M129.78881836 371.45410156 C130.11080802 374.55336975 130.11080802 374.55336975 130.78881836 377.45410156 C133.68955017 378.1321119 133.68955017 378.1321119 136.78881836 378.45410156 C139.03800916 376.62706929 139.03800916 376.62706929 139.03881836 373.95410156 C139.03800916 371.28113383 139.03800916 371.28113383 136.78881836 369.45410156 C132.82136746 369.01940629 132.82136746 369.01940629 129.78881836 371.45410156 Z M152.78881836 369.45410156 C150.52443436 372.14565357 150.52443436 372.14565357 151.03881836 374.51660156 C151.71414554 376.64887131 151.71414554 376.64887131 153.78881836 378.45410156 C157.08596628 378.12438677 158.41150226 377.83141766 160.78881836 375.45410156 C160.49898567 372.1472669 160.49898567 372.1472669 158.78881836 369.45410156 C155.83077263 369.12069686 155.83077263 369.12069686 152.78881836 369.45410156 Z M172.78881836 371.45410156 C172.45548503 373.95410156 172.45548503 373.95410156 172.78881836 376.45410156 C173.44881836 377.11410156 174.10881836 377.77410156 174.78881836 378.45410156 C177.88808655 378.1321119 177.88808655 378.1321119 180.78881836 377.45410156 C181.4668287 374.55336975 181.4668287 374.55336975 181.78881836 371.45410156 C179.96178609 369.20491077 179.96178609 369.20491077 177.28881836 369.20410156 C174.61585063 369.20491077 174.61585063 369.20491077 172.78881836 371.45410156 Z " fill="#000000" transform="translate(132.211181640625,79.5458984375)"/>
<path d="M0 0 C1.071362 -0.00960754 2.142724 -0.01921509 3.24655151 -0.02911377 C4.41316315 -0.03336365 5.57977478 -0.03761353 6.78173828 -0.04199219 C7.97179474 -0.04769226 9.1618512 -0.05339233 10.38796997 -0.05926514 C12.91163234 -0.06873246 15.43530717 -0.07525596 17.95898438 -0.07910156 C21.82850624 -0.08880813 25.69749746 -0.11981649 29.56689453 -0.15136719 C32.01350595 -0.15789667 34.46012118 -0.16314735 36.90673828 -0.16699219 C38.65058304 -0.18551239 38.65058304 -0.18551239 40.42965698 -0.20440674 C41.5073233 -0.20140564 42.58498962 -0.19840454 43.6953125 -0.1953125 C44.64493866 -0.19895813 45.59456482 -0.20260376 46.57296753 -0.20635986 C48.97705078 0.16113281 48.97705078 0.16113281 50.81425476 1.48330688 C51.97705078 3.16113281 51.97705078 3.16113281 51.86352539 6.36279297 C50.9101593 10.44774741 49.50934202 14.12754904 47.79345703 17.93457031 C47.46612076 18.67970383 47.13878448 19.42483734 46.80152893 20.19255066 C45.72231778 22.64408524 44.63102136 25.09003486 43.53955078 27.53613281 C42.78140076 29.25183259 42.02409072 30.96790377 41.26757812 32.68432617 C39.67203832 36.30162104 38.07190579 39.91683612 36.46875 43.53076172 C33.94453911 49.22659213 31.44484345 54.93298619 28.94970703 60.64160156 C28.13065902 62.51417931 27.31156776 64.38673814 26.49243164 66.25927734 C26.09522919 67.16728088 25.69802673 68.07528442 25.28878784 69.01080322 C24.89716461 69.90603699 24.50554138 70.80127075 24.10205078 71.72363281 C23.52053757 73.0534317 23.52053757 73.0534317 22.92727661 74.41009521 C21.82310773 76.9332972 20.7167933 79.45554739 19.60986328 81.97753906 C19.28554825 82.71965134 18.96123322 83.46176361 18.62709045 84.22636414 C13.49531948 95.90199846 13.49531948 95.90199846 10.97705078 97.16113281 C9.33388628 97.26661697 7.68653928 97.30987424 6.04003906 97.32226562 C5.01202179 97.33187317 3.98400452 97.34148071 2.92483521 97.35137939 C1.2529866 97.35775421 1.2529866 97.35775421 -0.45263672 97.36425781 C-1.59451447 97.36995789 -2.73639221 97.37565796 -3.91287231 97.38153076 C-6.3322049 97.39098975 -8.75155042 97.3975183 -11.17089844 97.40136719 C-14.87571642 97.41107456 -18.57998024 97.44209097 -22.28466797 97.47363281 C-24.63232092 97.48016247 -26.97997784 97.48541309 -29.32763672 97.48925781 C-30.43815399 97.50160461 -31.54867126 97.51395142 -32.69284058 97.52667236 C-33.72716217 97.52367126 -34.76148376 97.52067017 -35.82714844 97.51757812 C-37.19043777 97.52304657 -37.19043777 97.52304657 -38.58126831 97.52862549 C-41.52259558 97.085932 -42.89574034 96.21524389 -45.02294922 94.16113281 C-45.92732712 88.85141892 -43.87659573 84.76555276 -41.71826172 80.04785156 C-41.36726913 79.25677505 -41.01627655 78.46569855 -40.65464783 77.65065002 C-39.49598219 75.04527469 -38.32205367 72.44708257 -37.14794922 69.84863281 C-36.33750145 68.03435477 -35.52819164 66.21956801 -34.7199707 64.40429688 C-33.45819217 61.57162661 -32.19523336 58.73952327 -30.92790222 55.90933228 C-27.89009625 49.1250381 -24.89520373 42.32305786 -21.92529297 35.50878906 C-21.51645874 34.5717363 -21.10762451 33.63468353 -20.68640137 32.66923523 C-19.09488407 29.02105309 -17.50364202 25.37275794 -15.9163208 21.7227478 C-14.8209533 19.20600429 -13.72126745 16.69118943 -12.62060547 14.17675781 C-12.29946274 13.43583389 -11.97832001 12.69490997 -11.64744568 11.93153381 C-6.43082175 0.04631651 -6.43082175 0.04631651 0 0 Z " fill="#000000" transform="translate(274.02294921875,20.8388671875)"/>
<path d="M0 0 C1.07121094 -0.00945648 2.14242187 -0.01891296 3.24609375 -0.02865601 C4.98052734 -0.01954697 4.98052734 -0.01954697 6.75 -0.01025391 C7.93722656 -0.01312408 9.12445313 -0.01599426 10.34765625 -0.01895142 C12.85937985 -0.02099417 15.37111928 -0.01544963 17.8828125 -0.00292969 C21.73473572 0.01311999 25.58560955 -0.00277228 29.4375 -0.02197266 C31.87500232 -0.01999026 34.31250399 -0.01614667 36.75 -0.01025391 C37.90628906 -0.0163266 39.06257813 -0.02239929 40.25390625 -0.02865601 C41.32511719 -0.01919952 42.39632812 -0.00974304 43.5 0 C44.91539062 0.00358017 44.91539062 0.00358017 46.359375 0.00723267 C49.20109466 0.46006644 50.00950428 1.1473995 51.75 3.38818359 C55.12391706 8.84473372 57.28510521 13.78282981 55.96435547 20.21337891 C54.52225166 24.29727738 52.62093446 28.14441776 50.6875 32.01318359 C50.05125464 33.37195586 49.41905829 34.73263177 48.79101562 36.09521484 C46.65764719 40.67155301 44.55573703 45.17957805 41.75 49.38818359 C39.26659097 49.65545374 37.03527932 49.73684694 34.5546875 49.68115234 C33.84724396 49.6769075 33.13980042 49.67266266 32.41091919 49.66828918 C30.14856095 49.65147906 27.88708952 49.61382487 25.625 49.57568359 C24.09246077 49.56063967 22.5599076 49.54695075 21.02734375 49.53466797 C17.26788682 49.50156822 13.50909382 49.44977184 9.75 49.38818359 C7.17354352 43.64644355 4.61158594 37.89839641 2.05957031 32.14575195 C1.18984562 30.18984423 0.31682166 28.23540009 -0.55957031 26.2824707 C-1.81927405 23.47384553 -3.06698885 20.66015733 -4.3125 17.84521484 C-4.90309204 16.53868706 -4.90309204 16.53868706 -5.50561523 15.20576477 C-6.04617554 13.97505501 -6.04617554 13.97505501 -6.59765625 12.71948242 C-6.91742432 12.00222488 -7.23719238 11.28496735 -7.56665039 10.54597473 C-8.38125933 7.97371023 -8.5727228 6.07054589 -8.25 3.38818359 C-6.04764426 0.02746903 -3.84487386 0.00972544 0 0 Z " fill="#000000" transform="translate(194.25,20.61181640625)"/>
</svg>
