<?xml version="1.0" encoding="UTF-8"?>
<svg version="1.1" xmlns="http://www.w3.org/2000/svg" width="512" height="512">
<path d="M0 0 C70.95 0 141.9 0 215 0 C215 96.03 215 192.06 215 291 C144.05 291 73.1 291 0 291 C0 194.97 0 98.94 0 0 Z M25 25 C25 79.12 25 133.24 25 189 C79.45 189 133.9 189 190 189 C190 134.88 190 80.76 190 25 C135.55 25 81.1 25 25 25 Z M105 206 C103.32724698 209.62222211 101.66283749 213.2482166 100 216.875 C99.52304688 217.90753906 99.04609375 218.94007813 98.5546875 220.00390625 C97.87792969 221.48310547 97.87792969 221.48310547 97.1875 222.9921875 C96.76855469 223.90339355 96.34960938 224.81459961 95.91796875 225.75341797 C94.87391702 227.90408622 94.87391702 227.90408622 95 230 C93.83597656 230.07347656 93.83597656 230.07347656 92.6484375 230.1484375 C84.35255726 230.72261537 76.21652483 231.73118132 68 233 C70.82353229 236.52941536 73.58381389 239.7223535 77.10546875 242.5625 C85.56513908 249.45469067 85.56513908 249.45469067 86.65625 253.33203125 C86.39965971 256.02164728 85.73947836 258.3981317 85 261 C84.57636276 263.24821346 84.20293038 265.50208252 83.83032227 267.75927734 C83.26218723 271.1807991 82.62913414 274.58922246 82 278 C85.31551795 276.85026394 88.24126668 275.32524189 91.25 273.546875 C92.41015625 272.86625 92.41015625 272.86625 93.59375 272.171875 C95.20480171 271.2198899 96.80899126 270.25620014 98.40625 269.28125 C104.26013644 265.88599587 104.26013644 265.88599587 107.484375 266.3828125 C108.31453125 266.91648437 109.1446875 267.45015625 110 268 C111.4607874 268.79932504 112.92467955 269.59298701 114.390625 270.3828125 C116.01209303 271.29389796 117.63184403 272.20804495 119.25 273.125 C120.87914581 274.04615254 122.50929926 274.96552606 124.140625 275.8828125 C124.85766602 276.28902832 125.57470703 276.69524414 126.31347656 277.11376953 C127.8300049 278.07752756 127.8300049 278.07752756 129 278 C128.61549951 273.15529388 128.1954424 268.56128774 126.9140625 263.8671875 C124.6593057 255.15241198 124.6593057 255.15241198 125 251 C127.54184085 246.8311494 130.97557943 244.65611757 135 242 C136.73232671 240.52777483 138.44268965 239.02912873 140.125 237.5 C140.87007813 236.8503125 141.61515625 236.200625 142.3828125 235.53125 C142.91648437 235.0259375 143.45015625 234.520625 144 234 C144 233.67 144 233.34 144 233 C143.23445801 232.99403809 142.46891602 232.98807617 141.68017578 232.98193359 C120.27582619 232.42945906 120.27582619 232.42945906 114.77197266 226.66748047 C111.39900994 221.18749253 109.36294805 215.26892831 107.71655273 209.06958008 C107.2045521 206.81107451 107.2045521 206.81107451 105 206 Z " fill="#000000" transform="translate(28,172)"/>
<path d="M0 0 C0.84422709 -0.00581376 1.68845417 -0.01162753 2.5582639 -0.01761746 C5.40634114 -0.03229402 8.25356687 -0.01829667 11.10163879 -0.00457001 C13.15639533 -0.00917589 15.21114858 -0.0155267 17.26589489 -0.02347898 C22.92720782 -0.04023828 28.58825242 -0.03189598 34.24956656 -0.01953411 C40.34917144 -0.01051289 46.448729 -0.02443876 52.54832458 -0.0354538 C63.81177837 -0.05224405 75.07512228 -0.05074457 86.33857337 -0.03980792 C96.74303335 -0.02975466 107.14746182 -0.0271147 117.55192566 -0.0318985 C118.2414709 -0.03220404 118.93101614 -0.03250958 119.64145669 -0.03282438 C122.44038624 -0.03406969 125.23931578 -0.03534328 128.0382453 -0.03666343 C154.30650359 -0.04890567 180.57470711 -0.03779571 206.84295695 -0.01627585 C230.19231578 0.00270728 253.54158736 0.0010088 276.89094543 -0.01811981 C303.1104596 -0.03952784 329.32992537 -0.04803754 355.54944706 -0.03567076 C358.34334372 -0.03438784 361.1372404 -0.03313649 363.93113708 -0.0318985 C364.61909033 -0.03158219 365.30704358 -0.03126588 366.01584389 -0.03093999 C376.41501005 -0.02638574 386.81414128 -0.03171927 397.21330261 -0.04181671 C409.03494901 -0.05323797 420.85649231 -0.050042 432.67813468 -0.02869374 C438.71401176 -0.01815436 444.74971139 -0.0141106 450.78558731 -0.02729034 C456.30495645 -0.03916032 461.82398271 -0.0327411 467.34332049 -0.01138014 C469.34594717 -0.0068911 471.34860249 -0.00923145 473.35121095 -0.01888329 C476.06224683 -0.03095285 478.77209038 -0.01866909 481.48306274 0 C482.27037533 -0.00936466 483.05768791 -0.01872933 483.86885846 -0.02837777 C487.41129325 0.02076868 489.36608024 0.21689941 492.22228527 2.39615297 C493.95825552 4.80396342 494.30907534 6.05768438 494.30403137 9.00336456 C494.32594543 9.75617706 494.3478595 10.50898956 494.37043762 11.28461456 C493.4075451 14.68165155 491.69382366 15.62969125 488.74153137 17.50336456 C485.82999871 17.88797584 483.30132586 18.04158069 480.39404297 18.00672913 C479.55233838 18.01254289 478.7106338 18.01835665 477.84342301 18.02434659 C475.00993581 18.03899817 472.17730785 18.02503734 469.34382629 18.01129913 C467.29716898 18.015906 465.25051497 18.02225747 463.20386791 18.03020811 C457.56954755 18.04695386 451.93549711 18.03863119 446.30117559 18.02626324 C440.22883591 18.01723653 434.15654361 18.03117064 428.08421326 18.04218292 C416.87269806 18.05896783 405.6612696 18.05747636 394.44975618 18.04653705 C384.09301565 18.03648118 373.73630678 18.03384505 363.37956238 18.03862762 C362.6930037 18.03893316 362.00644502 18.03923871 361.29908153 18.0395535 C358.51222842 18.04079883 355.72537533 18.04207242 352.93852226 18.04339256 C326.7871281 18.05563298 300.63578896 18.04452772 274.4844033 18.02300497 C251.2422837 18.00402205 228.00025176 18.00572054 204.75813293 18.02484894 C178.65506425 18.04626002 152.55204418 18.05476495 126.44896793 18.04239988 C123.66714542 18.04111698 120.8853229 18.03986562 118.10350037 18.03862762 C117.41852734 18.03831132 116.73355432 18.03799501 116.02782454 18.03766911 C105.67671407 18.03311614 95.3256387 18.03844605 84.97453308 18.04854584 C73.20674393 18.05997055 61.43903851 18.05676396 49.67125583 18.03542286 C43.66360136 18.02488807 37.6561251 18.02083201 31.64847183 18.03401947 C26.15376212 18.04589882 20.65939656 18.03945451 15.16471827 18.01810926 C13.17219784 18.01362425 11.1796486 18.01595172 9.18714654 18.02561241 C6.48735229 18.03770289 3.7887508 18.02537652 1.08901978 18.00672913 C0.30782874 18.01609379 -0.47336229 18.02545846 -1.27822578 18.0351069 C-4.98151329 17.98366642 -7.08358031 17.6143575 -10.24088001 15.61057615 C-12.25846863 13.50336456 -12.25846863 13.50336456 -12.88737488 11.28461456 C-12.86546082 10.53180206 -12.84354675 9.77898956 -12.82096863 9.00336456 C-12.82225769 8.25055206 -12.82354675 7.49773956 -12.82487488 6.72211456 C-11.12468652 0.06206639 -5.92855115 -0.07051696 0 0 Z " fill="#000000" transform="translate(15.258468627929688,477.4966354370117)"/>
<path d="M0 0 C0.85058817 -0.00782324 1.70117635 -0.01564648 2.57753992 -0.02370679 C3.51225547 -0.01701463 4.44697103 -0.01032246 5.41001129 -0.00342751 C6.40276109 -0.00810748 7.39551089 -0.01278745 8.41834402 -0.01760924 C11.76030498 -0.02961951 15.10186043 -0.02007835 18.44382477 -0.01066017 C20.83346039 -0.01472319 23.22309414 -0.02006354 25.6127243 -0.02659035 C31.43872629 -0.03887641 37.2645984 -0.03704144 43.09060442 -0.02835242 C47.82449904 -0.02158383 52.55836115 -0.02065558 57.29225922 -0.02392387 C58.30196943 -0.02461342 58.30196943 -0.02461342 59.33207783 -0.0253169 C60.69944705 -0.02627605 62.06681625 -0.02724869 63.43418545 -0.02823468 C76.26321323 -0.03679421 89.09217677 -0.02694563 101.92119402 -0.01083358 C112.93479192 0.00257013 123.94829498 0.0002422 134.96189117 -0.01358986 C147.74426095 -0.02963576 160.52657437 -0.03597018 173.30895281 -0.02675307 C174.67135905 -0.0257974 176.03376531 -0.02485428 177.39617157 -0.02392387 C178.06654327 -0.02346105 178.73691496 -0.02299822 179.42760095 -0.02252137 C184.15711828 -0.0199285 188.88659995 -0.02430885 193.61611176 -0.03136253 C199.97888149 -0.04000592 206.34147148 -0.03405838 212.70422173 -0.01667976 C215.04439431 -0.01270085 217.38458193 -0.0138728 219.72474861 -0.02046776 C222.90951229 -0.02861783 226.09369333 -0.01844078 229.27841949 -0.00342751 C230.21313505 -0.01011967 231.1478506 -0.01681184 232.11089087 -0.02370679 C233.38677313 -0.01197193 233.38677313 -0.01197193 234.68843079 0 C235.42384173 0.00048706 236.15925267 0.00097411 236.9169488 0.00147593 C239.4189006 0.48965577 240.30806192 1.37512131 241.84421539 3.37752342 C242.49590442 7.84759822 242.30732623 12.36535992 242.28171539 16.87752342 C242.30169586 18.12662498 242.32167633 19.37572655 242.34226227 20.66267967 C242.34129547 22.45512108 242.34129547 22.45512108 242.34030914 24.28377342 C242.34216217 25.38012108 242.3440152 26.47646873 242.34592438 27.60603905 C241.84421539 30.37752342 241.84421539 30.37752342 240.41307068 32.02693176 C236.44980364 34.11064408 232.65403964 33.79046043 228.24082184 33.75847435 C227.25609028 33.76315432 226.27135873 33.76783429 225.25678682 33.77265608 C221.94790318 33.78464875 218.63943044 33.775132 215.33054352 33.76570702 C212.96208707 33.76977081 210.59363252 33.7751116 208.22518158 33.78163719 C202.45446032 33.79391546 196.68387026 33.79209238 190.91314495 33.78339927 C186.22361914 33.77662706 181.53412615 33.77570399 176.84459686 33.77897072 C175.84384905 33.77966027 175.84384905 33.77966027 174.82288411 33.78036375 C173.46759616 33.78132291 172.11230822 33.78229555 170.75702029 33.78328152 C158.04527322 33.79183835 145.33359103 33.7819967 132.6218546 33.76588042 C121.71205565 33.75247696 110.80235246 33.75480497 99.89255524 33.7686367 C87.22663086 33.78468736 74.56076336 33.79101435 61.89483023 33.78179991 C60.54449813 33.78084425 59.19416603 33.77990114 57.84383392 33.77897072 C56.84722226 33.77827648 56.84722226 33.77827648 55.83047703 33.77756821 C51.14600147 33.77497678 46.46156196 33.77935262 41.77709198 33.78640938 C35.47340116 33.79505852 29.16989165 33.78909457 22.86622047 33.77172661 C20.54904291 33.7677508 18.23185015 33.7689144 15.91467857 33.7755146 C12.75878083 33.78367682 9.60346906 33.77347269 6.44760895 33.75847435 C5.52427025 33.76516652 4.60093156 33.77185868 3.6496129 33.77875364 C-2.50094427 33.7218098 -2.50094427 33.7218098 -5.72463989 32.02693176 C-7.88959759 29.53179676 -7.65738353 27.54091956 -7.65187836 24.28377342 C-7.65252289 23.08881248 -7.65316742 21.89385155 -7.65383148 20.66267967 C-7.63385101 19.41357811 -7.61387054 18.16447655 -7.59328461 16.87752342 C-7.60037445 15.62842186 -7.60746429 14.3793203 -7.61476898 13.09236717 C-7.55025529 3.89172265 -7.55025529 3.89172265 -5.89026785 1.72790086 C-3.7518862 0.06306936 -2.68732193 0.00177979 0 0 Z " fill="#000000" transform="translate(18.155784606933594,123.62247657775879)"/>
<path d="M0 0 C1.9375 1.4375 1.9375 1.4375 3 3 C3 3.66 3 4.32 3 5 C4.30195313 5.11214844 5.60390625 5.22429688 6.9453125 5.33984375 C10.99863129 5.78854187 14.69118992 6.68068582 18.58325195 7.86669922 C30.91822426 11.61173715 43.29355978 12.46452418 56 10 C56.16159967 19.92940216 56.16159967 19.92940216 55.5 24.3125 C54.29971133 33.16462895 54.78265379 42.17423994 56 51 C38.28195449 56.6035304 21.27897198 50.82630312 4 46 C4.01110306 46.55266037 4.02220612 47.10532074 4.03364563 47.67472839 C4.14437269 53.43345965 4.21972184 59.19188796 4.2746582 64.95141602 C4.29978285 67.09997849 4.33388861 69.24845565 4.37719727 71.39672852 C4.43793792 74.48735612 4.46623044 77.57685263 4.48828125 80.66796875 C4.51408768 81.62648239 4.5398941 82.58499603 4.56648254 83.57255554 C4.56841735 88.18629746 4.51298752 90.31061715 1.68823242 94.10668945 C-1 96 -1 96 -4.5 96.625 C-8.99170595 95.82290965 -10.21771575 94.5828096 -13 91 C-13.47950318 88.00530403 -13.6561714 85.58786507 -13.59936523 82.60131836 C-13.60330795 81.76820633 -13.60725067 80.9350943 -13.61131287 80.07673645 C-13.6180108 77.33048842 -13.58888887 74.58591312 -13.55859375 71.83984375 C-13.55434231 69.92843447 -13.55201493 68.01702002 -13.55152893 66.10560608 C-13.54536712 62.10328713 -13.52268335 58.10152863 -13.48706055 54.09936523 C-13.44175787 48.96896416 -13.42703273 43.83907013 -13.42332363 38.70848751 C-13.41889527 34.76309712 -13.40359231 30.81781315 -13.3844471 26.87246895 C-13.37556794 24.98063596 -13.36883646 23.08879164 -13.36428642 21.19694328 C-13.35524415 18.55419705 -13.33285424 15.91190913 -13.30639648 13.26928711 C-13.30573181 12.48735992 -13.30506714 11.70543274 -13.30438232 10.89981079 C-13.25244353 7.14105198 -13.18471091 4.14779671 -11 1 C-7.4367155 -1.7714435 -4.20758349 -0.99451973 0 0 Z " fill="#000000" transform="translate(140,18)"/>
<path d="M0 0 C1.29357422 -0.02449219 2.58714844 -0.04898438 3.91992188 -0.07421875 C12.3830515 -0.10019255 18.13017013 0.44232345 24.7109375 6.12109375 C25.37996094 6.95833984 25.37996094 6.95833984 26.0625 7.8125 C26.52398437 8.36808594 26.98546875 8.92367187 27.4609375 9.49609375 C30.99879451 14.91554987 30.98787984 20.00357104 31.1484375 26.31640625 C31.79477456 29.9836665 33.0676781 30.86565252 35.6875 33.375 C35.91720769 36.23590492 35.25782088 38.5233956 34.6875 41.375 C31.27332694 41.375 30.79306104 40.88414081 28.16943359 38.91870117 C23.18214807 35.6999551 18.79237512 35.63326719 12.9765625 35.67578125 C11.46429581 35.66504829 11.46429581 35.66504829 9.92147827 35.65409851 C7.79857257 35.64634888 5.67558665 35.65127524 3.55273438 35.66821289 C0.32787495 35.68740848 -2.8926523 35.64804117 -6.1171875 35.60351562 C-8.1901067 35.60322515 -10.26302981 35.60636804 -12.3359375 35.61328125 C-13.28729584 35.59799881 -14.23865417 35.58271637 -15.21884155 35.56697083 C-22.59902283 35.69356788 -27.35109207 38.12062384 -33.3125 42.375 C-35.02324208 39.14511895 -35.86759037 37.07560244 -35.3125 33.375 C-34.65507813 32.79234375 -33.99765625 32.2096875 -33.3203125 31.609375 C-30.69478861 28.68758577 -30.84923986 27.0010551 -30.8125 23.125 C-30.4076311 15.26526254 -28.74297368 10.33103491 -22.875 5 C-16.01611343 -0.6971726 -8.4988574 0.00839393 0 0 Z " fill="#000000" transform="translate(135.3125,217.625)"/>
<path d="M0 0 C4.455 0.99 4.455 0.99 9 2 C9 19.16 9 36.32 9 54 C-13.77 54 -36.54 54 -60 54 C-60 37.5 -60 21 -60 4 C-57.03 3.01 -54.06 2.02 -51 1 C-50.97494385 1.99443115 -50.9498877 2.9888623 -50.92407227 4.01342773 C-50.83015118 7.69048747 -50.72989381 11.3673515 -50.62768555 15.04418945 C-50.58427854 16.637893 -50.54260781 18.2316448 -50.50268555 19.82543945 C-50.44512193 22.11163908 -50.38138851 24.39759449 -50.31640625 26.68359375 C-50.29969376 27.40026718 -50.28298126 28.11694061 -50.26576233 28.85533142 C-50.44981346 32.21527382 -50.44981346 32.21527382 -49 35 C-47.53194708 35.09822744 -46.0592254 35.1279837 -44.58789062 35.12939453 C-43.18138245 35.13412277 -43.18138245 35.13412277 -41.74645996 35.13894653 C-40.72669067 35.1369223 -39.70692139 35.13489807 -38.65625 35.1328125 C-37.61682251 35.13376923 -36.57739502 35.13472595 -35.50646973 35.13571167 C-33.30395446 35.13639363 -31.10143721 35.13453827 -28.89892578 35.13037109 C-25.51460281 35.12502308 -22.13041256 35.13031559 -18.74609375 35.13671875 C-16.61197887 35.13605797 -14.47786408 35.13477681 -12.34375 35.1328125 C-11.32398071 35.13483673 -10.30421143 35.13686096 -9.25354004 35.13894653 C-8.31586792 35.13579437 -7.3781958 35.13264221 -6.41210938 35.12939453 C-5.58239624 35.12859894 -4.75268311 35.12780334 -3.89782715 35.12698364 C-1.98898476 35.20842552 -1.98898476 35.20842552 -1 34 C-0.84011509 31.48119483 -0.74065775 28.98657734 -0.68359375 26.46484375 C-0.66281265 25.71159317 -0.64203156 24.95834259 -0.62062073 24.18226624 C-0.55504575 21.7674401 -0.49620379 19.35250202 -0.4375 16.9375 C-0.3943223 15.30402471 -0.35070827 13.6705609 -0.30664062 12.03710938 C-0.19935638 8.02485536 -0.09811179 4.01248836 0 0 Z " fill="#000000" transform="translate(159,302)"/>
<path d="M0 0 C10.89 0 21.78 0 33 0 C33 16.5 33 33 33 50 C22.11 50 11.22 50 0 50 C0 33.5 0 17 0 0 Z " fill="#000000" transform="translate(284,413)"/>
<path d="M0 0 C4.15125625 1.64496739 6.99807357 4.65728755 10.11328125 7.7421875 C10.6870903 8.30696808 11.26089935 8.87174866 11.85209656 9.4536438 C13.05913623 10.64621023 14.26341323 11.84157854 15.46508789 13.03955078 C17.31144566 14.87395249 19.1756365 16.6888764 21.04101562 18.50390625 C22.21208154 19.66551445 23.38204281 20.82823757 24.55078125 21.9921875 C25.11211258 22.53398651 25.67344391 23.07578552 26.25178528 23.63400269 C27.7902832 25.19091797 27.7902832 25.19091797 30 28 C29.69839809 31.3195758 28.38331912 32.99167661 26.07250977 35.29980469 C25.15134117 36.23031647 25.15134117 36.23031647 24.21156311 37.17962646 C23.54491135 37.83706848 22.87825958 38.4945105 22.19140625 39.171875 C21.1685276 40.1955014 21.1685276 40.1955014 20.12498474 41.23980713 C18.68351299 42.67894002 17.23835094 44.11438471 15.78979492 45.54638672 C13.56576178 47.74677291 11.35539955 49.96022974 9.14648438 52.17578125 C7.74558318 53.57110763 6.34391635 54.96566582 4.94140625 56.359375 C4.27677872 57.02491394 3.61215118 57.69045288 2.92738342 58.37615967 C2.31011887 58.98389221 1.69285431 59.59162476 1.05688477 60.21777344 C0.51363052 60.75642029 -0.02962372 61.29506714 -0.58934021 61.85003662 C-2 63 -2 63 -4 63 C-5.76569083 56.66998287 -7.50900472 50.33411276 -9.23681641 43.99365234 C-9.82736605 41.83696115 -10.42304511 39.68166773 -11.02392578 37.52783203 C-11.88622318 34.43353839 -12.73001257 31.33470418 -13.5703125 28.234375 C-13.84312042 27.27070007 -14.11592834 26.30702515 -14.39700317 25.31414795 C-14.63740326 24.41351624 -14.87780334 23.51288452 -15.12548828 22.58496094 C-15.34310822 21.79442322 -15.56072815 21.0038855 -15.78494263 20.18939209 C-16.05068071 17.48404487 -15.43344844 16.27290046 -14 14 C-12.48779297 12.26074219 -12.48779297 12.26074219 -10.7421875 10.546875 C-10.11699219 9.928125 -9.49179687 9.309375 -8.84765625 8.671875 C-8.19667969 8.03765625 -7.54570312 7.4034375 -6.875 6.75 C-6.21628906 6.1003125 -5.55757813 5.450625 -4.87890625 4.78125 C-3.25703357 3.18288273 -1.6306719 1.58938103 0 0 Z " fill="#000000" transform="translate(471,168)"/>
<path d="M0 0 C3.41720965 11.53734112 6.82114782 23.08185439 10 34.6875 C10.32907349 35.84245972 10.32907349 35.84245972 10.66479492 37.02075195 C12.61966769 44.29790243 12.61966769 44.29790243 11 48 C8.82183841 50.62812292 6.41114594 52.96459169 3.9375 55.3125 C3.27427734 55.95767578 2.61105469 56.60285156 1.92773438 57.26757812 C0.29382329 58.85447018 -1.34868147 60.43126328 -3 62 C-7.15125625 60.35503261 -9.99807357 57.34271245 -13.11328125 54.2578125 C-13.6870903 53.69303192 -14.26089935 53.12825134 -14.85209656 52.5463562 C-16.05913623 51.35378977 -17.26341323 50.15842146 -18.46508789 48.96044922 C-20.31144566 47.12604751 -22.1756365 45.3111236 -24.04101562 43.49609375 C-25.21208154 42.33448555 -26.38204281 41.17176243 -27.55078125 40.0078125 C-28.11211258 39.46601349 -28.67344391 38.92421448 -29.25178528 38.36599731 C-30.7902832 36.80908203 -30.7902832 36.80908203 -33 34 C-32.69436329 30.73103586 -31.44281797 29.0677702 -29.16430664 26.79199219 C-28.570215 26.19167175 -27.97612335 25.59135132 -27.36402893 24.97283936 C-26.71925095 24.33727112 -26.07447296 23.70170288 -25.41015625 23.046875 C-24.7504332 22.38665344 -24.09071014 21.72643188 -23.41099548 21.04620361 C-22.01660208 19.65414878 -20.61851906 18.26578137 -19.21704102 16.88085938 C-17.06543192 14.7528997 -14.92750658 12.61187679 -12.79101562 10.46875 C-11.43568731 9.11899645 -10.0795934 7.77001114 -8.72265625 6.421875 C-8.0799025 5.77820984 -7.43714874 5.13454468 -6.7749176 4.47137451 C-6.1776738 3.88366272 -5.58042999 3.29595093 -4.96508789 2.69042969 C-4.43959854 2.16954773 -3.91410919 1.64866577 -3.37269592 1.11199951 C-2 0 -2 0 0 0 Z " fill="#000000" transform="translate(305,336)"/>
<path d="M0 0 C0.97988892 -0.0038269 1.95977783 -0.00765381 2.96936035 -0.01159668 C5.03703847 -0.01431352 7.10475109 -0.00696836 9.17236328 0.00976562 C12.33313794 0.03117811 15.4916396 0.0099558 18.65234375 -0.015625 C20.66406751 -0.01298168 22.67578985 -0.00785663 24.6875 0 C25.63032837 -0.00809692 26.57315674 -0.01619385 27.54455566 -0.02453613 C31.93455886 0.03804966 34.21476491 0.12329144 37.97851562 2.56445312 C38.59404297 3.21349609 39.20957031 3.86253906 39.84375 4.53125 C38.79477703 13.03154823 36.19277155 20.4120202 29.84765625 26.421875 C22.26045888 32.33099658 15.39386914 33.59730981 5.84375 32.53125 C-2.08476464 30.10503787 -7.40751588 25.51609259 -11.37109375 18.328125 C-13.50091965 13.87140746 -15.25432449 9.53304915 -15.15625 4.53125 C-10.84136206 -0.46897019 -6.13290877 -0.05266886 0 0 Z " fill="#000000" transform="translate(123.15625,259.46875)"/>
<path d="M0 0 C0 10.56 0 21.12 0 32 C-12.21 32 -24.42 32 -37 32 C-37 22.1 -37 12.2 -37 2 C-22.16251726 -3.9349931 -15.81071378 -3.95267845 0 0 Z " fill="#000000" transform="translate(152,299)"/>
<path d="M0 0 C1.76569083 6.33001713 3.50900472 12.66588724 5.23681641 19.00634766 C5.82736605 21.16303885 6.42304511 23.31833227 7.02392578 25.47216797 C7.88622318 28.56646161 8.73001257 31.66529582 9.5703125 34.765625 C9.84312042 35.72929993 10.11592834 36.69297485 10.39700317 37.68585205 C10.63740326 38.58648376 10.87780334 39.48711548 11.12548828 40.41503906 C11.34310822 41.20557678 11.56072815 41.9961145 11.78494263 42.81060791 C12.05013848 45.51043489 11.424219 46.72936284 10 49 C8.703125 50.55566406 8.703125 50.55566406 7.25 52.015625 C6.7240625 52.54414063 6.198125 53.07265625 5.65625 53.6171875 C5.1096875 54.15601563 4.563125 54.69484375 4 55.25 C3.18015625 56.08144531 3.18015625 56.08144531 2.34375 56.9296875 C-1.7466133 61 -1.7466133 61 -4 61 C-5.72116943 55.03083795 -7.42795816 49.05781332 -9.12255859 43.08105469 C-9.70712786 41.02839354 -10.29599189 38.97695059 -10.88916016 36.92675781 C-11.74893769 33.9540162 -12.59444576 30.97752114 -13.4375 28 C-13.84379639 26.61337158 -13.84379639 26.61337158 -14.25830078 25.19873047 C-14.50177246 24.32877441 -14.74524414 23.45881836 -14.99609375 22.5625 C-15.21450928 21.80066406 -15.4329248 21.03882813 -15.65795898 20.25390625 C-16.1872005 16.76642754 -15.8124772 14.12203676 -13.72485352 11.23901367 C-13.19819092 10.72056885 -12.67152832 10.20212402 -12.12890625 9.66796875 C-11.26749023 8.81235352 -11.26749023 8.81235352 -10.38867188 7.93945312 C-9.78603516 7.36130859 -9.18339844 6.78316406 -8.5625 6.1875 C-7.96373047 5.59001953 -7.36496094 4.99253906 -6.74804688 4.37695312 C-2.28105357 0 -2.28105357 0 0 0 Z " fill="#000000" transform="translate(333,308)"/>
<path d="M0 0 C3.41720965 11.53734112 6.82114782 23.08185439 10 34.6875 C10.32907349 35.84245972 10.32907349 35.84245972 10.66479492 37.02075195 C12.60458111 44.24174159 12.60458111 44.24174159 11 48 C9.03202217 50.46429958 6.83595471 52.63144238 4.5625 54.8125 C3.96373047 55.40998047 3.36496094 56.00746094 2.74804688 56.62304688 C-1.71894643 61 -1.71894643 61 -4 61 C-5.76569083 54.66998287 -7.50900472 48.33411276 -9.23681641 41.99365234 C-9.82736605 39.83696115 -10.42304511 37.68166773 -11.02392578 35.52783203 C-11.88622318 32.43353839 -12.73001257 29.33470418 -13.5703125 26.234375 C-13.84312042 25.27070007 -14.11592834 24.30702515 -14.39700317 23.31414795 C-14.63740326 22.41351624 -14.87780334 21.51288452 -15.12548828 20.58496094 C-15.34310822 19.79442322 -15.56072815 19.0038855 -15.78494263 18.18939209 C-16.05013848 15.48956511 -15.424219 14.27063716 -14 12 C-12.703125 10.44433594 -12.703125 10.44433594 -11.25 8.984375 C-10.7240625 8.45585937 -10.198125 7.92734375 -9.65625 7.3828125 C-9.1096875 6.84398437 -8.563125 6.30515625 -8 5.75 C-7.4534375 5.19570313 -6.906875 4.64140625 -6.34375 4.0703125 C-2.2533867 0 -2.2533867 0 0 0 Z " fill="#000000" transform="translate(388,253)"/>
<path d="M0 0 C1.74096881 6.18926853 3.46670568 12.38263696 5.18188477 18.57910156 C5.76724414 20.68684972 6.35609234 22.79363219 6.94848633 24.89941406 C7.7990613 27.925265 8.63705596 30.95435952 9.47265625 33.984375 C9.74030289 34.92617615 10.00794952 35.86797729 10.28370667 36.83831787 C10.52403122 37.71892883 10.76435577 38.59953979 11.01196289 39.50683594 C11.22736221 40.27960876 11.44276154 41.05238159 11.66468811 41.84857178 C12.03812159 44.24459575 11.80080044 45.72519185 11 48 C9.72485352 49.64746094 9.72485352 49.64746094 8.12890625 51.234375 C7.26749023 52.09482422 7.26749023 52.09482422 6.38867188 52.97265625 C5.78603516 53.55917969 5.18339844 54.14570313 4.5625 54.75 C3.96373047 55.35199219 3.36496094 55.95398438 2.74804688 56.57421875 C-1.73293119 61 -1.73293119 61 -4 61 C-5.39404995 56.07627703 -6.78128697 51.15070074 -8.16259766 46.22338867 C-8.632143 44.55198103 -9.10345574 42.88106874 -9.57666016 41.21069336 C-10.91089678 36.49855323 -12.2080056 31.7793486 -13.45117188 27.04232788 C-13.93678827 25.23522678 -14.46709156 23.44026405 -15.00390625 21.64770508 C-16.66689545 15.26136462 -16.66689545 15.26136462 -14.86474609 11.8527832 C-13.12914204 9.77469953 -11.30982852 8.06767831 -9.25 6.3125 C-8.59 5.69439453 -7.93 5.07628906 -7.25 4.43945312 C-2.4123235 0 -2.4123235 0 0 0 Z " fill="#000000" transform="translate(416,225)"/>
<path d="M0 0 C0.66 0.33 1.32 0.66 2 1 C2.9639511 3.94760491 3.81136931 6.86047864 4.6015625 9.85546875 C4.8428891 10.7498616 5.0842157 11.64425446 5.33285522 12.56575012 C5.84272134 14.46375497 6.34851427 16.3628579 6.85058594 18.26293945 C7.61797223 21.16095976 8.40173054 24.05418291 9.1875 26.94726562 C9.68068405 28.79140044 10.1729026 30.6357938 10.6640625 32.48046875 C10.89839996 33.34318893 11.13273743 34.20590912 11.37417603 35.09477234 C12.51245961 39.44598429 13.55964341 43.47178421 13 48 C11.80664062 49.87451172 11.80664062 49.87451172 10.15625 51.4296875 C9.56972656 51.996875 8.98320312 52.5640625 8.37890625 53.1484375 C7.75886719 53.71820313 7.13882812 54.28796875 6.5 54.875 C5.87996094 55.46796875 5.25992187 56.0609375 4.62109375 56.671875 C3.09393227 58.12855211 1.54866657 59.56620705 0 61 C-0.99 60.67 -1.98 60.34 -3 60 C-3.77836609 58.35687256 -3.77836609 58.35687256 -4.3503418 56.20214844 C-4.68034431 54.99519318 -4.68034431 54.99519318 -5.01701355 53.76385498 C-5.35470512 52.44988739 -5.35470512 52.44988739 -5.69921875 51.109375 C-5.9391304 50.21261047 -6.17904205 49.31584595 -6.42622375 48.39190674 C-6.93218686 46.49024139 -7.43194796 44.58691689 -7.92602539 42.68212891 C-8.68169758 39.77234275 -9.45728207 36.86844877 -10.23632812 33.96484375 C-10.72515048 32.11750254 -11.21281839 30.26985539 -11.69921875 28.421875 C-11.93041916 27.55399353 -12.16161957 26.68611206 -12.39982605 25.79193115 C-14.54472857 17.46634632 -14.54472857 17.46634632 -14 14 C-12.71484375 12.1472168 -12.71484375 12.1472168 -10.9375 10.44921875 C-10.30585938 9.83369141 -9.67421875 9.21816406 -9.0234375 8.58398438 C-8.35570312 7.95814453 -7.68796875 7.33230469 -7 6.6875 C-5.99839844 5.71973633 -5.99839844 5.71973633 -4.9765625 4.73242188 C-3.32838797 3.14311073 -1.66970902 1.56662098 0 0 Z " fill="#000000" transform="translate(359,280)"/>
<path d="M0 0 C0.66 0.33 1.32 0.66 2 1 C2.9639511 3.94760491 3.81136931 6.86047864 4.6015625 9.85546875 C4.8428891 10.7498616 5.0842157 11.64425446 5.33285522 12.56575012 C5.84272134 14.46375497 6.34851427 16.3628579 6.85058594 18.26293945 C7.61797223 21.16095976 8.40173054 24.05418291 9.1875 26.94726562 C9.68068405 28.79140044 10.1729026 30.6357938 10.6640625 32.48046875 C10.89839996 33.34318893 11.13273743 34.20590912 11.37417603 35.09477234 C12.51245961 39.44598429 13.55964341 43.47178421 13 48 C11.80664062 49.87451172 11.80664062 49.87451172 10.15625 51.4296875 C9.56972656 51.996875 8.98320312 52.5640625 8.37890625 53.1484375 C7.75886719 53.71820313 7.13882812 54.28796875 6.5 54.875 C5.87996094 55.46796875 5.25992187 56.0609375 4.62109375 56.671875 C3.09393227 58.12855211 1.54866657 59.56620705 0 61 C-0.99 60.67 -1.98 60.34 -3 60 C-3.77836609 58.35687256 -3.77836609 58.35687256 -4.3503418 56.20214844 C-4.68034431 54.99519318 -4.68034431 54.99519318 -5.01701355 53.76385498 C-5.35470512 52.44988739 -5.35470512 52.44988739 -5.69921875 51.109375 C-5.9391304 50.21261047 -6.17904205 49.31584595 -6.42622375 48.39190674 C-6.93218686 46.49024139 -7.43194796 44.58691689 -7.92602539 42.68212891 C-8.68169758 39.77234275 -9.45728207 36.86844877 -10.23632812 33.96484375 C-10.72515048 32.11750254 -11.21281839 30.26985539 -11.69921875 28.421875 C-11.93041916 27.55399353 -12.16161957 26.68611206 -12.39982605 25.79193115 C-14.54472857 17.46634632 -14.54472857 17.46634632 -14 14 C-12.71484375 12.1472168 -12.71484375 12.1472168 -10.9375 10.44921875 C-10.30585938 9.83369141 -9.67421875 9.21816406 -9.0234375 8.58398438 C-8.35570312 7.95814453 -7.68796875 7.33230469 -7 6.6875 C-5.99839844 5.71973633 -5.99839844 5.71973633 -4.9765625 4.73242188 C-3.32838797 3.14311073 -1.66970902 1.56662098 0 0 Z " fill="#000000" transform="translate(442,197)"/>
<path d="M0 0 C8.03952558 2.67984186 12.87063565 4.29974464 17.3125 11.375 C20.93137115 19.14887137 20.11987218 27.52144216 20.0625 35.9375 C20.05798828 37.19369141 20.05347656 38.44988281 20.04882812 39.74414062 C20.03709692 42.82944771 20.01916317 45.91473012 20 49 C13.4 49 6.8 49 0 49 C0 32.83 0 16.66 0 0 Z " fill="#000000" transform="translate(175,307)"/>
<path d="M0 0 C0 15.51 0 31.02 0 47 C-5.28 47 -10.56 47 -16 47 C-16.05424744 42.6873288 -16.09379592 38.3753491 -16.125 34.0625 C-16.14175781 32.85013672 -16.15851563 31.63777344 -16.17578125 30.38867188 C-16.23485839 19.48893972 -15.75832007 11.14050332 -8 3 C-4.9458824 0.7271683 -3.79952223 0 0 0 Z " fill="#000000" transform="translate(92,309)"/>
</svg>
