<?xml version="1.0" encoding="UTF-8"?>
<svg version="1.1" xmlns="http://www.w3.org/2000/svg" width="512" height="512">
<path d="M0 0 C0.96153223 -0.00170885 1.92306445 -0.0034177 2.91373402 -0.00517833 C6.12583921 -0.00846459 9.3377341 0.00251632 12.54981995 0.01345825 C14.85624181 0.01402255 17.16266404 0.01370544 19.46908569 0.01257324 C25.72470152 0.01199947 31.98024065 0.02375794 38.23583865 0.03772116 C44.77547743 0.05022427 51.31511796 0.05139869 57.85476685 0.05377197 C68.82930328 0.05894862 79.80381285 0.0717739 90.77833557 0.08963013 C102.08009196 0.10799961 113.3818407 0.12215088 124.68360901 0.13064575 C125.38072691 0.1311712 126.07784481 0.13169665 126.7960875 0.13223802 C130.29346568 0.13484817 133.79084392 0.13737557 137.28822219 0.13986182 C166.28372423 0.16058147 195.27919847 0.19594486 224.27467346 0.24050903 C224.28347282 2.01457375 224.28347282 2.01457375 224.29244995 3.82447815 C224.34975847 14.99136107 224.42256267 26.15805078 224.51038837 37.3247366 C224.55504238 43.06511966 224.59430959 48.80543256 224.62110901 54.54592896 C224.64719135 60.08981262 224.68762897 65.63342558 224.73785973 71.17714119 C224.75449505 73.28810308 224.76603003 75.39911176 224.77228737 77.51012993 C224.78196465 80.47579953 224.8100676 83.44078173 224.84230042 86.40628052 C224.84014778 87.70425064 224.84014778 87.70425064 224.83795166 89.02844238 C224.94139549 95.79479065 225.79813848 102.55759613 230.52467346 107.67800903 C236.81283612 111.25082872 242.81531668 111.54186103 249.8818512 111.55935669 C250.81921616 111.56940231 251.75658112 111.57944794 252.72235107 111.58979797 C255.80098392 111.62053137 258.87953018 111.63763775 261.95826721 111.65457153 C264.10061381 111.67329109 266.24295309 111.69286509 268.38528442 111.71325684 C274.00923851 111.76450071 279.63321647 111.80416792 285.25727844 111.84140015 C292.01306426 111.88854325 298.76873228 111.95010788 305.52442169 112.00924683 C315.77445787 112.09736463 326.02447254 112.16719685 336.27467346 112.24050903 C336.27467346 138.97050903 336.27467346 165.70050903 336.27467346 193.24050903 C330.33467346 193.24050903 324.39467346 193.24050903 318.27467346 193.24050903 C292.47763666 194.02223742 268.06290588 199.71360416 244.70436096 210.70144653 C241.27467346 212.24050903 241.27467346 212.24050903 239.27467346 212.24050903 C239.24889221 211.66043091 239.22311096 211.08035278 239.19654846 210.48269653 C238.8002482 205.02456105 237.94813155 201.52621014 234.27467346 197.24050903 C228.74021951 193.12514584 223.12999761 193.0920924 216.44490051 193.10006714 C215.66293643 193.09709602 214.88097234 193.09412489 214.07531238 193.09106374 C211.45848695 193.08240122 208.8417074 193.08087056 206.22486877 193.07937622 C204.34713138 193.07474632 202.46939492 193.06972143 200.59165955 193.06433105 C195.49234076 193.05122177 190.39303513 193.04476498 185.29370213 193.0403204 C182.10639583 193.03738734 178.91909312 193.0332821 175.73178864 193.02881622 C165.75519364 193.01514527 155.77860685 193.0054766 145.80200315 193.00161433 C134.29332838 192.99713421 122.78477242 192.97958668 111.27613378 192.95061374 C102.37490193 192.92898429 93.47370348 192.91890938 84.57244563 192.91757321 C79.25859555 192.91652611 73.94485722 192.91063834 68.63103485 192.8927536 C63.63071487 192.8762511 58.63059038 192.87412804 53.63025284 192.88289261 C51.79893342 192.88366181 49.96760339 192.87933575 48.13631058 192.86943436 C35.38056891 192.6556161 35.38056891 192.6556161 23.27467346 196.24050903 C18.68318458 200.94678514 17.91968166 204.30965628 17.99342346 210.69754028 C18.40648591 214.43231322 19.78341678 216.47992731 22.27467346 219.24050903 C27.76793736 223.32524373 33.33746252 223.38962221 39.97518921 223.39872742 C41.12703383 223.40613438 41.12703383 223.40613438 42.30214804 223.41369098 C44.87086858 223.42902837 47.4395642 223.4374164 50.00831604 223.4458313 C51.85139687 223.45541278 53.69447552 223.46542302 55.53755188 223.47583008 C60.53914841 223.50285595 65.54075436 223.52387808 70.54238343 223.54383206 C75.77011469 223.56570589 80.997817 223.59308776 86.2255249 223.61988831 C96.12410541 223.66979628 106.022702 223.71474216 115.92131394 223.75791067 C127.19088393 223.80729923 138.46042487 223.86221136 149.72996676 223.91759026 C172.91150856 224.03138122 196.09307823 224.13822656 219.27467346 224.24050903 C216.13113294 227.42056066 212.99886262 230.31834072 209.46217346 233.05300903 C197.99920242 242.36280038 187.70491127 252.88678106 179.19264221 264.95925903 C178.55971252 265.71207153 177.92678284 266.46488403 177.27467346 267.24050903 C176.28467346 267.24050903 175.29467346 267.24050903 174.27467346 267.24050903 C172.94134013 265.24050903 171.6080068 263.24050903 170.27467346 261.24050903 C165.44575553 257.64977518 160.76744242 257.11896421 154.87458801 257.10006714 C153.80370941 257.09435699 152.73283081 257.08864685 151.62950134 257.08276367 C150.4647226 257.08164581 149.29994385 257.08052795 148.09986877 257.07937622 C146.86513824 257.07441132 145.63040771 257.06944641 144.35826111 257.06433105 C140.9778796 257.05224487 137.59755978 257.0447701 134.21716404 257.0403204 C132.10191904 257.03738281 129.98667937 257.03327671 127.87143707 257.02881622 C121.24368862 257.0151517 114.61595245 257.00548012 107.98819089 257.00161433 C100.35536464 256.99713699 92.72271776 256.97959984 85.08994603 256.95061374 C79.17807251 256.9289476 73.26624927 256.91890742 67.3543365 256.91757321 C63.82898596 256.91652864 60.30380428 256.9106956 56.77849579 256.8927536 C52.84129134 256.87310407 48.90430844 256.87758152 44.96705627 256.88406372 C43.81037445 256.87484894 42.65369263 256.86563416 41.46195984 256.85614014 C35.02653252 256.88925904 29.10639125 257.28957468 23.27467346 260.24050903 C18.68318458 264.94678514 17.91968166 268.30965628 17.99342346 274.69754028 C18.40648591 278.43231322 19.78341678 280.47992731 22.27467346 283.24050903 C27.17719042 286.88597036 31.90827742 287.36645232 37.88717651 287.36076355 C39.00471817 287.36213821 40.12225983 287.36351288 41.27366638 287.3649292 C42.48998749 287.36133392 43.70630859 287.35773865 44.95948792 287.35403442 C46.24768936 287.35418045 47.53589081 287.35432648 48.86312866 287.35447693 C52.38752758 287.35476343 55.91189235 287.34889039 59.43628335 287.34190297 C63.12249849 287.33564503 66.80871445 287.3350637 70.49493408 287.33387756 C77.47172066 287.33077145 84.44849154 287.32256775 91.42527121 287.31252807 C99.36961111 287.3013446 107.31395176 287.29585085 115.25829756 287.29083264 C131.59709871 287.28038454 147.93588408 287.26279902 164.27467346 287.24050903 C163.11946342 290.73783499 161.94091505 294.17649727 160.50514221 297.56863403 C155.90265065 308.62024718 151.96550158 319.56721689 149.27467346 331.24050903 C149.11096252 331.91678345 148.94725159 332.59305786 148.77857971 333.28982544 C143.61104625 355.51342233 143.77481728 383.10873481 149.27467346 405.24050903 C149.4786676 406.07501587 149.68266174 406.90952271 149.89283752 407.76931763 C156.17902995 432.79055951 166.76801202 454.88810269 182.08888245 475.60916138 C183.19058139 477.12481967 184.23530078 478.68145001 185.27467346 480.24050903 C160.09167957 480.35750402 134.90872665 480.44557638 109.72551537 480.49956989 C98.03152231 480.52531055 86.33769849 480.56038188 74.64381409 480.6177063 C64.44698774 480.66766803 54.25028401 480.6998301 44.05333865 480.71095151 C38.65810434 480.71744864 33.26322071 480.73263219 27.86809921 480.76915932 C22.78075751 480.80332071 17.69390799 480.81352157 12.60646248 480.80604744 C10.74819951 480.80741303 8.88991857 480.81722462 7.03175545 480.83653641 C-9.68340889 481.00160519 -22.51395184 478.21052396 -34.87376404 466.14285278 C-43.15052711 457.41994449 -47.96591842 447.25469006 -47.98538876 435.10886288 C-47.98919443 434.42287735 -47.9930001 433.73689182 -47.99692109 433.03011885 C-48.00720234 430.7385126 -48.00333718 428.44715564 -47.9994812 426.15553284 C-48.0039355 424.49304735 -48.00925018 422.83056399 -48.01534992 421.16808373 C-48.02951754 416.60467555 -48.03119345 412.04133552 -48.03075302 407.47790849 C-48.03240233 402.55404974 -48.04547108 397.63021896 -48.0569458 392.70637512 C-48.07978688 381.94173051 -48.08771558 371.17710562 -48.09277225 360.41244006 C-48.09603056 353.68828269 -48.10255388 346.96413103 -48.10977364 340.23997688 C-48.12933906 321.61524738 -48.14574339 302.99052318 -48.14865017 284.36578274 C-48.14883774 283.17413551 -48.14902531 281.98248828 -48.14921856 280.75473053 C-48.14958481 278.33906082 -48.14994851 275.92339112 -48.15030967 273.50772142 C-48.15049249 272.30861115 -48.1506753 271.10950089 -48.15086365 269.87405396 C-48.1510442 268.67347644 -48.15122475 267.47289893 -48.15141077 266.23594029 C-48.15495141 246.78801538 -48.18196724 227.34020127 -48.21936154 207.89231478 C-48.25746447 187.91566042 -48.2768078 167.939061 -48.27710968 147.9623695 C-48.27769383 136.75016621 -48.28615854 125.53809506 -48.31510735 114.32592583 C-48.33964783 104.77734488 -48.34688611 95.22894426 -48.33185982 85.68034028 C-48.32470169 80.81170963 -48.32550107 75.94343488 -48.34827042 71.07484436 C-48.36894916 66.61034296 -48.36617757 62.14646909 -48.34539557 57.68197382 C-48.3419176 56.07426825 -48.34673826 54.46651658 -48.36110001 52.85887139 C-48.4933607 37.0221338 -44.90588159 24.64331216 -33.62767029 13.09207153 C-23.88528103 3.84797026 -13.24862543 -0.08671271 0 0 Z M20.33717346 69.99050903 C15.41768673 77.74242752 15.96355465 85.68505967 15.97389221 94.60769653 C15.96999815 96.01102829 15.96566204 97.41435888 15.96090698 98.81768799 C15.95347124 101.75114776 15.9537165 104.68448712 15.95899963 107.61795044 C15.96478767 111.35559995 15.94786695 115.09275285 15.92465496 118.83032036 C15.90983903 121.726754 15.90905658 124.62307023 15.91216469 127.51953506 C15.91165531 128.89648547 15.90649053 130.27344312 15.89635277 131.65035629 C15.59183272 143.92490926 15.59183272 143.92490926 20.54962158 154.81591797 C27.74775591 161.46281262 37.01108724 160.53247844 46.14527893 160.51516724 C47.5504127 160.51951945 48.95554409 160.52470429 50.360672 160.53065491 C54.16242035 160.54400202 57.96406903 160.54462833 61.76583624 160.54209161 C64.94656738 160.54101889 68.1272786 160.54591298 71.30800545 160.55069703 C78.81595303 160.56177757 86.32385058 160.56223793 93.83180237 160.55618286 C101.56112302 160.55014482 109.29026157 160.56245306 117.01955116 160.58375293 C123.67032046 160.60140257 130.32103197 160.60736496 136.97182381 160.60411519 C140.93754859 160.6023074 144.90314346 160.60488778 148.86884689 160.61882973 C152.6003102 160.63145822 156.33149088 160.62941693 160.06295013 160.61641884 C162.07338201 160.61294762 164.08382273 160.62419417 166.09422302 160.63598633 C177.12574727 160.63912567 177.12574727 160.63912567 186.85204887 155.9655962 C193.58566092 148.66283527 192.58617893 139.12968762 192.57545471 129.87332153 C192.57934877 128.46998978 192.58368489 127.06665918 192.58843994 125.66333008 C192.59587568 122.72987031 192.59563042 119.79653094 192.59034729 116.86306763 C192.58455925 113.12541811 192.60147997 109.38826522 192.62469196 105.65069771 C192.63950789 102.75426407 192.64029035 99.85794783 192.63718224 96.961483 C192.63769161 95.5845326 192.64285639 94.20757495 192.65299416 92.83066177 C192.9575142 80.55610881 192.9575142 80.55610881 187.99972534 69.6651001 C180.80159101 63.01820544 171.53825968 63.94853963 162.40406799 63.96585083 C160.99893423 63.96149862 159.59380283 63.95631378 158.18867493 63.95036316 C154.38692657 63.93701605 150.58527789 63.93638973 146.78351068 63.93892646 C143.60277955 63.93999917 140.42206833 63.93510509 137.24134147 63.93032104 C129.73339389 63.91924049 122.22549635 63.91878013 114.71754456 63.92483521 C106.9882239 63.93087325 99.25908536 63.91856501 91.52979577 63.89726514 C84.87902646 63.8796155 78.22831495 63.8736531 71.57752311 63.87690288 C67.61179834 63.87871066 63.64620347 63.87613028 59.68050003 63.86218834 C55.94903672 63.84955985 52.21785605 63.85160113 48.48639679 63.86459923 C46.47596491 63.86807044 44.46552419 63.8568239 42.4551239 63.84503174 C30.31954334 63.85446231 30.31954334 63.85446231 20.33717346 69.99050903 Z M20.27467346 326.30300903 C16.84751526 331.33664764 16.61698686 335.21943455 17.27467346 341.24050903 C19.62260004 346.11697193 22.562282 348.64388517 27.27467346 351.24050903 C31.95531515 352.5587427 36.68921918 352.39541328 41.51197815 352.40164185 C42.43459442 352.40660675 43.35721069 352.41157166 44.30778503 352.41668701 C47.35404716 352.43126788 50.4002572 352.43810408 53.44654846 352.44363403 C55.57018535 352.44938912 57.69382223 352.45514681 59.81745911 352.46090698 C64.26934551 352.47140557 68.72121392 352.47725562 73.17311096 352.48074341 C78.86351719 352.48622374 84.55368362 352.51024689 90.24401474 352.53871536 C94.63134953 352.55738614 99.01862708 352.56254972 103.40599823 352.56407928 C105.50305237 352.56709663 107.60010572 352.57509398 109.69712067 352.58826447 C112.63819354 352.60541673 115.57868735 352.60342223 118.51979065 352.59695435 C119.80597794 352.61077652 119.80597794 352.61077652 121.1181488 352.62487793 C127.23008759 352.58300548 134.14886079 352.02516354 138.9045372 347.78853226 C142.94939998 343.03400848 143.6306929 339.8463416 143.55201721 333.77957153 C143.14090902 330.01590501 141.79180986 328.02260716 139.27467346 325.24050903 C132.744366 320.09962869 126.9992302 320.08965891 119.03736877 320.07937622 C118.1147525 320.07441132 117.19213623 320.06944641 116.24156189 320.06433105 C113.19529976 320.04975019 110.14908972 320.04291398 107.10279846 320.03738403 C104.97916157 320.03162895 102.85552469 320.02587126 100.73188782 320.02011108 C96.28000141 320.00961249 91.828133 320.00376244 87.37623596 320.00027466 C81.68582973 319.99479433 75.9956633 319.97077117 70.30533218 319.9423027 C65.9179974 319.92363192 61.53071985 319.91846834 57.14334869 319.91693878 C55.04629456 319.91392144 52.94924121 319.90592409 50.85222626 319.8927536 C47.91115338 319.87560133 44.97065958 319.87759584 42.02955627 319.88406372 C41.17209808 319.87484894 40.31463989 319.86563416 39.43119812 319.85614014 C32.42601487 319.90413214 25.04656709 320.69389866 20.27467346 326.30300903 Z M20.27467346 390.30300903 C16.84751526 395.33664764 16.61698686 399.21943455 17.27467346 405.24050903 C19.62260004 410.11697193 22.562282 412.64388517 27.27467346 415.24050903 C31.95531515 416.5587427 36.68921918 416.39541328 41.51197815 416.40164185 C42.43459442 416.40660675 43.35721069 416.41157166 44.30778503 416.41668701 C47.35404716 416.43126788 50.4002572 416.43810408 53.44654846 416.44363403 C55.57018535 416.44938912 57.69382223 416.45514681 59.81745911 416.46090698 C64.26934551 416.47140557 68.72121392 416.47725562 73.17311096 416.48074341 C78.86351719 416.48622374 84.55368362 416.51024689 90.24401474 416.53871536 C94.63134953 416.55738614 99.01862708 416.56254972 103.40599823 416.56407928 C105.50305237 416.56709663 107.60010572 416.57509398 109.69712067 416.58826447 C112.63819354 416.60541673 115.57868735 416.60342223 118.51979065 416.59695435 C119.80597794 416.61077652 119.80597794 416.61077652 121.1181488 416.62487793 C127.23008759 416.58300548 134.14886079 416.02516354 138.9045372 411.78853226 C142.94939998 407.03400848 143.6306929 403.8463416 143.55201721 397.77957153 C143.14090902 394.01590501 141.79180986 392.02260716 139.27467346 389.24050903 C132.744366 384.09962869 126.9992302 384.08965891 119.03736877 384.07937622 C118.1147525 384.07441132 117.19213623 384.06944641 116.24156189 384.06433105 C113.19529976 384.04975019 110.14908972 384.04291398 107.10279846 384.03738403 C104.97916157 384.03162895 102.85552469 384.02587126 100.73188782 384.02011108 C96.28000141 384.00961249 91.828133 384.00376244 87.37623596 384.00027466 C81.68582973 383.99479433 75.9956633 383.97077117 70.30533218 383.9423027 C65.9179974 383.92363192 61.53071985 383.91846834 57.14334869 383.91693878 C55.04629456 383.91392144 52.94924121 383.90592409 50.85222626 383.8927536 C47.91115338 383.87560133 44.97065958 383.87759584 42.02955627 383.88406372 C41.17209808 383.87484894 40.31463989 383.86563416 39.43119812 383.85614014 C32.42601487 383.90413214 25.04656709 384.69389866 20.27467346 390.30300903 Z " fill="#000000" transform="translate(47.72532653808594,-0.240509033203125)"/>
<path d="M0 0 C1.14816193 -0.00101212 1.14816193 -0.00101212 2.31951904 -0.00204468 C13.36982033 0.01346523 23.89974562 0.33338153 34.625 3.25 C35.2957959 3.43224121 35.9665918 3.61448242 36.65771484 3.80224609 C75.66025726 14.63678851 107.12750533 38.66287656 127.265625 73.80078125 C139.48200263 95.76211998 144.85523961 118.52795893 144.875 143.625 C144.87567474 144.39044128 144.87634949 145.15588257 144.87704468 145.94451904 C144.86153477 156.99482033 144.54161847 167.52474562 141.625 178.25 C141.35163818 179.25619385 141.35163818 179.25619385 141.07275391 180.28271484 C130.55730391 218.13657786 106.70966215 250.62191498 72.41015625 270.1875 C50.09037235 282.52408589 26.76886912 288.47990747 1.25 288.5 C0.48455872 288.50067474 -0.28088257 288.50134949 -1.06951904 288.50204468 C-12.12308436 288.48653019 -22.64492455 288.15727833 -33.375 285.25 C-34.02452637 285.07839355 -34.67405273 284.90678711 -35.34326172 284.72998047 C-73.00643169 274.58187375 -105.3006272 250.47938443 -124.90234375 216.703125 C-137.56227173 194.22025481 -143.60467543 170.68858171 -143.625 144.875 C-143.62567474 144.10955872 -143.62634949 143.34411743 -143.62704468 142.55548096 C-143.61153477 131.50517967 -143.29161847 120.97525438 -140.375 110.25 C-140.19275879 109.5792041 -140.01051758 108.9084082 -139.82275391 108.21728516 C-129.0381791 69.39461779 -105.16768807 37.97516233 -70.234375 17.83203125 C-48.35179417 5.58995706 -25.00542297 0.01968826 0 0 Z M-39.65625 67.82421875 C-47.34894836 78.68141348 -49.66203568 91.18980547 -48.375 104.25 C-45.87268338 116.46301123 -39.3034274 127.94395817 -28.84765625 134.94140625 C-25.10299361 137.22339596 -21.3008091 139.29975935 -17.375 141.25 C-17.36620064 142.86492844 -17.36620064 142.86492844 -17.35722351 144.51248169 C-17.29997902 154.66489881 -17.22720821 164.81710209 -17.13928509 174.96930122 C-17.09458188 180.18850278 -17.05532552 185.40762628 -17.02856445 190.62695312 C-17.00253117 195.6650982 -16.96212828 200.7029429 -16.91181374 205.74090195 C-16.89514525 207.66175471 -16.88363086 209.58265943 -16.87738609 211.50357437 C-16.86774489 214.19687544 -16.83968534 216.8894081 -16.80737305 219.58251953 C-16.80952568 220.77043343 -16.80952568 220.77043343 -16.8117218 221.98234558 C-16.71102946 227.92744 -15.45806295 232.16693705 -11.125 236.5 C-5.51143458 240.07226891 0.35577021 240.55898842 6.8671875 240.55078125 C7.63499542 240.55506638 8.40280334 240.5593515 9.19387817 240.56376648 C10.80909241 240.56947746 12.42433234 240.57003405 14.03955078 240.56567383 C16.48645752 240.56251747 18.93214882 240.58599988 21.37890625 240.61132812 C34.09070188 241.06629301 34.09070188 241.06629301 45.22216797 235.83325195 C48.99909277 231.57057229 49.93283821 227.93992495 49.83984375 222.30859375 C49.37978592 217.90040328 47.44349171 215.06849171 44.375 212 C37.9449951 207.9081787 31.57929859 207.9866366 24.1875 208.125 C23.26517578 208.13402344 22.34285156 208.14304687 21.39257812 208.15234375 C19.13660502 208.17572171 16.88076717 208.2115858 14.625 208.25 C14.625 203.96 14.625 199.67 14.625 195.25 C16.27628906 195.29640625 17.92757812 195.3428125 19.62890625 195.390625 C21.81508602 195.42815598 24.00128542 195.46455471 26.1875 195.5 C27.81655273 195.55027344 27.81655273 195.55027344 29.47851562 195.6015625 C36.12345626 195.68235205 40.27370537 195.31436644 45.625 191.25 C49.18099857 186.96688802 50.28571775 182.94619085 50.01171875 177.390625 C49.17155266 172.74000867 46.45963529 170.00320746 43.0625 166.9375 C39.39151719 164.39605036 36.6530543 164.12829804 32.30078125 164.15234375 C31.37434814 164.15484131 30.44791504 164.15733887 29.4934082 164.15991211 C28.3199585 164.16901611 27.14650879 164.17812012 25.9375 164.1875 C22.204375 164.208125 18.47125 164.22875 14.625 164.25 C14.625 156.33 14.625 148.41 14.625 140.25 C16.275 139.92 17.925 139.59 19.625 139.25 C22.79031878 137.48847842 25.68159068 135.35782609 28.625 133.25 C29.49125 132.6725 30.3575 132.095 31.25 131.5 C41.20081889 122.07290842 45.8390924 109.83807269 46.9375 96.4375 C46.51261582 84.04087912 41.81131527 71.99193742 33.36328125 62.8671875 C22.76073669 53.00324717 10.94879418 48.4804054 -3.41772461 48.73071289 C-18.45749656 49.40616532 -30.0111396 56.38053244 -39.65625 67.82421875 Z " fill="#000000" transform="translate(367.375,223.75)"/>
<path d="M0 0 C36.96 0 73.92 0 112 0 C112 10.56 112 21.12 112 32 C75.04 32 38.08 32 0 32 C0 21.44 0 10.88 0 0 Z " fill="#000000" transform="translate(96,96)"/>
<path d="M0 0 C4.74971696 4.07118597 9.27078692 8.12586007 13.66967773 12.5402832 C14.29492844 13.16378159 14.92017914 13.78727997 15.56437683 14.42967224 C17.60661893 16.46755339 19.64522957 18.50902183 21.68359375 20.55078125 C23.10833884 21.97485216 24.53323231 23.39877464 25.95826721 24.82255554 C28.9310808 27.79390041 31.90209168 30.76703288 34.87182617 33.74145508 C38.68742863 37.5627856 42.50754483 41.37956747 46.3289938 45.19505024 C49.26545963 48.12791467 52.19955462 51.06314155 55.13292122 53.99910545 C56.54167242 55.40852548 57.95117163 56.81719824 59.36141777 58.22512245 C61.32206185 60.18324358 63.27950017 62.14451242 65.23608398 64.10668945 C65.82353394 64.69211517 66.41098389 65.27754089 67.01623535 65.88070679 C71 69.88573134 71 69.88573134 71 71 C47.57 71 24.14 71 0 71 C0 47.57 0 24.14 0 0 Z " fill="#000000" transform="translate(304,9)"/>
<path d="M0 0 C3.5 1.6875 3.5 1.6875 6 4 C6.763125 4.70125 7.52625 5.4025 8.3125 6.125 C10.76870815 10.30965092 11.18079382 14.18636466 11 19 C9.35395187 24.90640798 6.80402955 27.52474458 2 31 C-2.2150656 33.1075328 -7.42250022 32.51511506 -12 32 C-16.11280911 30.33767994 -18.37579042 27.8658391 -20.9375 24.3125 C-22.79169503 18.53177433 -23.21645429 12.65335249 -20.375 7.125 C-14.73701342 -0.29340339 -8.94075884 -1.21584495 0 0 Z " fill="#000000" transform="translate(372,304)"/>
</svg>
