<?xml version="1.0" encoding="UTF-8"?>
<svg version="1.1" xmlns="http://www.w3.org/2000/svg" width="512" height="512">
<path d="M0 0 C87.78 0 175.56 0 266 0 C266 69.3 266 138.6 266 210 C225.08 210 184.16 210 142 210 C141.01 205.71 140.02 201.42 139 197 C133.78532568 185.72175088 126.43759978 176.78454085 114.671875 172.06640625 C112.46251425 171.30190891 110.25256509 170.62425738 108 170 C107.195625 169.773125 106.39125 169.54625 105.5625 169.3125 C92.59838517 167.73151039 80.85281837 170.71899527 70 178 C59.34151407 186.36281204 56.47960808 196.9514697 53 210 C35.51 210 18.02 210 0 210 C0 140.7 0 71.4 0 0 Z M22 32 C21.33314062 34.45672892 21.33314062 34.45672892 22 37 C26.12288554 40.33838097 30.09290896 40.43991118 35.1875 40.3984375 C36.35768677 40.40274277 36.35768677 40.40274277 37.55151367 40.40713501 C39.19548268 40.40917003 40.8394762 40.40367952 42.48339844 40.39111328 C44.99209001 40.37505065 47.49917071 40.39098004 50.0078125 40.41015625 C51.60937854 40.40817372 53.21094358 40.40432983 54.8125 40.3984375 C55.93144653 40.40754654 55.93144653 40.40754654 57.07299805 40.4168396 C61.55918313 40.35659867 64.38257105 39.68375562 68 37 C67.42547254 33.06924356 67.42547254 33.06924356 65 30 C62.02196961 29.79989146 59.13895086 29.72027387 56.16015625 29.734375 C55.28225937 29.73246155 54.40436249 29.7305481 53.49986267 29.72857666 C51.64126296 29.72721435 49.78265375 29.73091401 47.92407227 29.73925781 C45.07741911 29.74994399 42.2313989 29.73937075 39.38476562 29.7265625 C37.58072777 29.72788434 35.77669031 29.73044723 33.97265625 29.734375 C32.69286644 29.72830231 32.69286644 29.72830231 31.38722229 29.72210693 C26.39700733 29.75394431 26.39700733 29.75394431 22 32 Z M94.24829102 31.3631134 C92.73257689 32.99671298 92.73257689 32.99671298 93.0625 35.5625 C93.76427669 38.03863921 93.76427669 38.03863921 95.53710938 39.13574219 C99.10659961 40.38831905 102.60675655 40.2851178 106.34375 40.265625 C107.14985718 40.26753845 107.95596436 40.2694519 108.78649902 40.27142334 C110.48771477 40.27278194 112.188941 40.2691082 113.89013672 40.26074219 C116.49079729 40.25003788 119.09076711 40.26064828 121.69140625 40.2734375 C123.34635569 40.27211585 125.0013047 40.26955333 126.65625 40.265625 C127.43238647 40.26967346 128.20852295 40.27372192 129.00817871 40.27789307 C132.81404614 40.24491492 135.77397741 40.14570987 139 38 C139.2502157 35.08365871 139.2502157 35.08365871 139 32 C135.05499701 29.36999801 131.64193985 29.6943088 127.0625 29.69921875 C125.7477771 29.69279106 125.7477771 29.69279106 124.40649414 29.68623352 C122.55388249 29.68049204 120.70124829 29.67998862 118.84863281 29.68432617 C116.01067798 29.6874881 113.17376356 29.6640184 110.3359375 29.63867188 C108.53645965 29.6363991 106.73697899 29.63569528 104.9375 29.63671875 C104.08744385 29.627509 103.2373877 29.61829926 102.36157227 29.60881042 C98.0158265 29.51226325 98.0158265 29.51226325 94.24829102 31.3631134 Z M27 77 C28.08784968 80.24983135 28.08784968 80.24983135 30 83 C32.99468364 83.12600352 35.9650278 83.18869347 38.9609375 83.203125 C39.86244537 83.20882507 40.76395325 83.21452515 41.69277954 83.22039795 C43.60441915 83.22986325 45.5160752 83.23638798 47.42773438 83.24023438 C50.35575804 83.24993624 53.2830789 83.28094342 56.2109375 83.3125 C58.06509998 83.31903008 59.9192675 83.32428053 61.7734375 83.328125 C62.65164154 83.3404718 63.52984558 83.3528186 64.43466187 83.36553955 C65.25205841 83.36253845 66.06945496 83.35953735 66.91162109 83.35644531 C67.63030365 83.36009094 68.34898621 83.36373657 69.08944702 83.36749268 C71.58038736 82.88836316 72.49180554 82.0086111 74 80 C73.92466753 77.3727086 73.92466753 77.3727086 73 75 C69.58958833 73.29479417 65.69466461 73.81506112 61.94140625 73.796875 C61.04131332 73.79117493 60.1412204 73.78547485 59.21385193 73.77960205 C57.30818866 73.77014799 55.402509 73.76361646 53.49682617 73.75976562 C50.5776735 73.7500505 47.65922199 73.71902733 44.74023438 73.6875 C42.89062919 73.68097098 41.04101896 73.67572011 39.19140625 73.671875 C38.31633926 73.6595282 37.44127228 73.6471814 36.53968811 73.63446045 C35.31843483 73.6389621 35.31843483 73.6389621 34.07250977 73.64355469 C33.35684341 73.63990906 32.64117706 73.63626343 31.90382385 73.63250732 C29.47065147 74.10217947 28.56980003 75.13746476 27 77 Z M109.90966797 76.53271484 C109.60947754 77.34691895 109.30928711 78.16112305 109 79 C109.87477648 81.15254203 109.87477648 81.15254203 112 83 C115.04044075 83.62515102 118.06194416 83.5359609 121.15625 83.49609375 C122.50426697 83.4982766 122.50426697 83.4982766 123.8795166 83.50050354 C125.77924848 83.4988438 127.67899369 83.4872741 129.57861328 83.46655273 C132.48918679 83.43760754 135.3979384 83.44593983 138.30859375 83.45898438 C140.1536547 83.45274673 141.99870989 83.44435559 143.84375 83.43359375 C144.71567993 83.43652939 145.58760986 83.43946503 146.48596191 83.44248962 C147.70237366 83.42346336 147.70237366 83.42346336 148.94335938 83.40405273 C149.65600952 83.39864975 150.36865967 83.39324677 151.10290527 83.38768005 C153.5731676 82.88287056 154.49983351 81.99741373 156 80 C155.75794651 76.68181015 155.75794651 76.68181015 154 74 C148.0513263 73.70741799 142.10020117 73.68595892 136.14501953 73.64990234 C134.13513623 73.63332934 132.12531219 73.60602167 130.11572266 73.56787109 C127.22527344 73.51324469 124.33620761 73.49125114 121.4453125 73.4765625 C120.54523468 73.45389313 119.64515686 73.43122375 118.71780396 73.40786743 C113.59207075 73.2691999 113.59207075 73.2691999 109.90966797 76.53271484 Z M40 120 C40.27034634 122.43717258 40.27034634 122.43717258 41 125 C44.88387739 127.58925159 48.1754932 127.32377642 52.68359375 127.3359375 C53.96146507 127.3459227 53.96146507 127.3459227 55.26515198 127.35610962 C57.06647584 127.36623202 58.86783718 127.37092677 60.66918945 127.37060547 C63.42396853 127.37497852 66.17714508 127.41130042 68.93164062 127.44921875 C70.68228619 127.45508705 72.43293936 127.45905635 74.18359375 127.4609375 C75.00661484 127.47530853 75.82963593 127.48967957 76.67759705 127.50448608 C81.49953924 127.48226149 81.49953924 127.48226149 85.55102539 124.97119141 C86.02918701 124.32069824 86.50734863 123.67020508 87 123 C85.88145414 119.27385847 85.88145414 119.27385847 83 117 C80.12995274 116.87646855 77.28514571 116.81157225 74.4140625 116.796875 C73.13406876 116.78832489 73.13406876 116.78832489 71.82821655 116.77960205 C70.020907 116.77014802 68.21358018 116.76361647 66.40625 116.75976562 C63.6429227 116.75006293 60.88034006 116.71904509 58.1171875 116.6875 C56.36198359 116.68096964 54.60677435 116.6757193 52.8515625 116.671875 C51.61232529 116.6533548 51.61232529 116.6533548 50.34805298 116.63446045 C45.98652775 116.65137064 43.2243502 116.7027401 40 120 Z M133 120 C133.27034634 122.43717258 133.27034634 122.43717258 134 125 C137.90083252 127.60055502 141.19477685 127.28773985 145.71875 127.265625 C146.57303589 127.26753845 147.42732178 127.2694519 148.30749512 127.27142334 C150.11304011 127.27278387 151.91859492 127.26909664 153.72412109 127.26074219 C156.4894811 127.25004071 159.25419147 127.26064184 162.01953125 127.2734375 C163.77343894 127.27211588 165.52734622 127.26955344 167.28125 127.265625 C168.10943237 127.26967346 168.93761475 127.27372192 169.79089355 127.27789307 C173.7041155 127.24589123 175.67100141 127.2193324 179 125 C179.5 122 179.5 122 179 119 C175.11152308 116.40768205 171.82781241 116.69423511 167.31640625 116.69921875 C166.46449203 116.69493362 165.61257782 116.6906485 164.73484802 116.68623352 C162.93351124 116.68049195 161.13215126 116.67998869 159.33081055 116.68432617 C156.57625716 116.68748423 153.8227798 116.66403214 151.06835938 116.63867188 C149.31770969 116.63639866 147.56705711 116.63569549 145.81640625 116.63671875 C144.99338516 116.627509 144.17036407 116.61829926 143.32240295 116.60881042 C138.97163747 116.64396761 136.21864156 116.71844986 133 120 Z " fill="#000000" transform="translate(38,156)"/>
<path d="M0 0 C72.59247859 0 72.59247859 0 82.59765625 8.44921875 C88.47528745 14.69002066 93.17001035 21.94157849 98 29 C98.95134164 30.37793657 99.9031402 31.75555782 100.85546875 33.1328125 C102.65507131 35.74160856 104.44678676 38.35561665 106.234375 40.97265625 C109.22459385 45.34040377 112.26243536 49.67389276 115.3125 54 C115.79211182 54.68199463 116.27172363 55.36398926 116.76586914 56.06665039 C118.16788617 58.05132385 119.58119594 60.02729755 121 62 C121.51602783 62.72396973 122.03205566 63.44793945 122.5637207 64.19384766 C123.081521 64.90589355 123.59932129 65.61793945 124.1328125 66.3515625 C124.59703613 66.99432129 125.06125977 67.63708008 125.53955078 68.29931641 C129.80210771 73.26303615 135.26938577 74.12588569 141.5 74.875 C147.57385453 75.69141614 152.00803949 77.20223772 156 82 C160.8623113 89.41983113 160.51926868 96.65459984 160.390625 105.21875 C160.3831527 106.68704453 160.37746445 108.15534911 160.37347412 109.62365723 C160.35829529 113.46419431 160.31908244 117.30411391 160.2746582 121.14440918 C160.22629034 125.76497642 160.20813442 130.38575162 160.18484497 135.00650024 C160.14622469 142.00476126 160.06951983 149.00167087 160 156 C145.48 156 130.96 156 116 156 C115.01 151.71 114.02 147.42 113 143 C107.24628609 130.55592108 99.7325946 122.77184416 86.92578125 117.80859375 C73.65900892 113.30260126 62.99863431 114.42265668 50.26953125 120.25 C39.36127905 126.20303066 32.63309935 135.22525633 29 147 C28.34 149.97 27.68 152.94 27 156 C18.09 156 9.18 156 0 156 C0 104.52 0 53.04 0 0 Z M28 26 C28 39.86 28 53.72 28 68 C46.48 68 64.96 68 84 68 C81.33113343 63.3294835 78.6535498 58.85859313 75.62890625 54.4375 C75.22469955 53.84251709 74.82049286 53.24753418 74.40403748 52.63452148 C73.555641 51.3867105 72.70602228 50.1397297 71.85522461 48.89355469 C70.14652807 46.39069344 68.44385994 43.88375979 66.74259949 41.37583923 C65.92272798 40.17561862 65.09606853 38.9800043 64.2624054 37.7893219 C62.62046605 35.43992221 61.07439174 33.14888871 59.79174805 30.58178711 C58.7649875 28.3303193 58.7649875 28.3303193 56 26 C51.19148151 25.16186454 46.54867402 25.34376238 41.6875 25.5625 C37.170625 25.706875 32.65375 25.85125 28 26 Z " fill="#000000" transform="translate(314,210)"/>
<path d="M0 0 C43.56 0 87.12 0 132 0 C132 12.87 132 25.74 132 39 C88.44 39 44.88 39 0 39 C0 26.13 0 13.26 0 0 Z " fill="#000000" transform="translate(105,107)"/>
<path d="M0 0 C8.5828773 5.41012001 14.13532143 12.90833213 17.25390625 22.52734375 C19.37828047 33.9614756 17.56923602 44.2965366 11.11328125 53.98046875 C5.34139572 61.21584184 -3.06426618 66.59479659 -12.34765625 67.671875 C-23.89363243 68.629686 -33.32684545 66.03050186 -42.34765625 58.671875 C-48.86454068 52.61944558 -52.89582635 44.48640737 -53.5859375 35.60546875 C-53.81891048 24.63121517 -52.33254478 16.76881701 -45.09765625 8.296875 C-33.16725675 -4.04491758 -15.70008228 -7.6669812 0 0 Z " fill="#000000" transform="translate(403.34765625,337.328125)"/>
<path d="M0 0 C5.37359833 3.61936548 8.7132207 8.08932566 11.83203125 13.71484375 C12.34443359 14.60236328 12.34443359 14.60236328 12.8671875 15.5078125 C16.34441076 22.83424105 15.94085542 32.94126174 14.140625 40.69140625 C10.5480555 50.40186607 4.09507523 57.87323371 -5.05859375 62.71484375 C-14.10542234 66.80558363 -24.3298675 67.00008408 -33.6875 63.81640625 C-42.95977002 59.69864224 -49.77834217 53.25201209 -53.98046875 44.02734375 C-57.83478383 33.27583326 -56.9755198 22.98323677 -52.16796875 12.71484375 C-48.01283494 4.86625766 -40.58026772 -1.71585161 -32.16796875 -4.66015625 C-20.7105099 -7.04712684 -10.08929438 -5.98086099 0 0 Z " fill="#000000" transform="translate(156.16796875,339.28515625)"/>
</svg>
